<?xml version="1.0" encoding="UTF-8"?>
<svg xmlns="http://www.w3.org/2000/svg" id="Capa_1" data-name="Capa 1" version="1.1" viewBox="0 0 309.31 115.66">
  <defs>
    <style> .cls-1 { fill: #1d1d1b; stroke-width: 0px; } </style>
  </defs>
  <path class="cls-1" d="M106.39,41.52h9v11.61h-3l-.45-2.7c-1.14,1.32-2.79,3.27-6.72,3.27-5.19,0-9.9-3.72-9.9-11.28,0-5.88,3.27-11.43,10.53-11.4,6.6,0,9.21,4.29,9.45,7.26h-4.5c0-.84-1.53-3.54-4.71-3.54s-6.18,2.22-6.18,7.74c0,5.88,3.21,7.41,6.27,7.41.99,0,4.29-.39,5.22-4.74h-5.01v-3.63h0Z"></path>
  <path class="cls-1" d="M122.35,43.56c.24-2.1,1.29-3.36,3.27-3.36,1.35,0,3,.78,3.24,3.36h-6.51ZM128.68,48.45c-.33,1.14-1.53,1.74-2.7,1.74-3.39,0-3.63-2.7-3.75-3.9h10.95v-.75c0-7.29-4.35-8.79-7.5-8.79-6.99,0-7.65,6.15-7.65,8.07,0,6.57,3.45,8.73,7.95,8.73,2.73,0,5.91-1.26,7.02-5.1h-4.32Z"></path>
  <path class="cls-1" d="M150.4,53.13h-4.2v-9.69c0-1.17-.06-3.15-2.73-3.15-1.86,0-3.3,1.26-3.3,3.69v9.15h-4.2v-15.96h4.02v2.34h.06c.57-.96,1.77-2.76,4.8-2.76s5.55,1.83,5.55,5.34v11.04h0Z"></path>
  <path class="cls-1" d="M157.36,43.56c.24-2.1,1.29-3.36,3.27-3.36,1.35,0,3,.78,3.24,3.36h-6.51ZM163.69,48.45c-.33,1.14-1.53,1.74-2.7,1.74-3.39,0-3.63-2.7-3.75-3.9h10.95v-.75c0-7.29-4.35-8.79-7.5-8.79-6.99,0-7.65,6.15-7.65,8.07,0,6.57,3.45,8.73,7.95,8.73,2.73,0,5.91-1.26,7.02-5.1h-4.32Z"></path>
  <path class="cls-1" d="M170.95,37.17h4.02v2.76h.06c.87-1.62,1.83-3.18,4.38-3.18.27,0,.54.03.81.06v4.26c-.36-.06-.81-.06-1.2-.06-3.27,0-3.87,2.04-3.87,3.81v8.31h-4.2v-15.96h0Z"></path>
  <path class="cls-1" d="M191.47,47.4c0,1.95-1.89,3.15-3.75,3.15-.81,0-1.95-.45-1.95-1.92,0-1.74,1.29-2.13,2.85-2.4,1.74-.27,2.43-.54,2.85-.87v2.04h0ZM195.58,41.37c0-3.93-4.11-4.62-6.36-4.62-3.27,0-6.66.69-7.14,5.58h4.05c.12-.93.48-2.22,2.58-2.22,1.08,0,2.76.09,2.76,1.86,0,.9-.81,1.17-1.47,1.26l-3.78.57c-2.67.39-4.65,1.98-4.65,5.1,0,3.3,2.46,4.65,4.86,4.65,2.85,0,4.2-1.32,5.16-2.31.09.9.15,1.14.39,1.89h4.53v-.63c-.51-.18-.93-.6-.93-2.49v-8.64h0Z"></path>
  <polygon class="cls-1" points="203.65 53.13 199.44 53.13 199.44 31.59 203.65 31.59 203.65 53.13 203.65 53.13"></polygon>
  <path class="cls-1" d="M211.98,37.17v15.96h-4.2v-15.96h4.2ZM211.98,35.28h-4.2v-3.9h4.2v3.9h0Z"></path>
  <path class="cls-1" d="M220.71,37.17h2.61v3h-2.61v8.67c0,.93.03,1.29,1.74,1.29.27,0,.57-.03.87-.06v3.18c-.66.03-1.32.06-1.98.06h-.54c-3.63,0-4.29-1.38-4.29-3.45v-9.69h-2.16v-3h2.16v-4.32h4.2v4.32h0Z"></path>
  <path class="cls-1" d="M234.81,47.4c0,1.95-1.89,3.15-3.75,3.15-.81,0-1.95-.45-1.95-1.92,0-1.74,1.29-2.13,2.85-2.4,1.74-.27,2.43-.54,2.85-.87v2.04h0ZM238.92,41.37c0-3.93-4.11-4.62-6.36-4.62-3.27,0-6.66.69-7.14,5.58h4.05c.12-.93.48-2.22,2.58-2.22,1.08,0,2.76.09,2.76,1.86,0,.9-.81,1.17-1.47,1.26l-3.78.57c-2.67.39-4.65,1.98-4.65,5.1,0,3.3,2.46,4.65,4.86,4.65,2.85,0,4.2-1.32,5.16-2.31.09.9.15,1.14.39,1.89h4.53v-.63c-.51-.18-.93-.6-.93-2.49v-8.64h0Z"></path>
  <path class="cls-1" d="M247.38,37.17h2.61v3h-2.61v8.67c0,.93.03,1.29,1.74,1.29.27,0,.57-.03.87-.06v3.18c-.66.03-1.32.06-1.98.06h-.54c-3.63,0-4.29-1.38-4.29-3.45v-9.69h-2.16v-3h2.16v-4.32h4.2v4.32h0Z"></path>
  <path class="cls-1" d="M99.34,75.27c0-2.52.9-4.89,3.57-4.89,2.88,0,3.6,2.58,3.6,5.13,0,2.37-1.05,4.59-3.72,4.59s-3.45-2.94-3.45-4.83h0ZM110.53,61.59h-4.2v7.65h-.06c-.66-1.02-1.92-2.49-4.62-2.49-3.51,0-6.63,2.7-6.63,8.22,0,4.38,1.98,8.58,6.72,8.58,1.74,0,3.6-.63,4.62-2.43h.06v2.01h4.11v-21.54h0Z"></path>
  <path class="cls-1" d="M117.34,73.56c.24-2.1,1.29-3.36,3.27-3.36,1.35,0,3,.78,3.24,3.36h-6.51ZM123.67,78.45c-.33,1.14-1.53,1.74-2.7,1.74-3.39,0-3.63-2.7-3.75-3.9h10.95v-.75c0-7.29-4.35-8.79-7.5-8.79-6.99,0-7.65,6.15-7.65,8.07,0,6.57,3.45,8.73,7.95,8.73,2.73,0,5.91-1.26,7.02-5.1h-4.32Z"></path>
  <path class="cls-1" d="M153.37,68.64c-.36-1.29-1.05-3.72-4.77-3.72-2.16,0-5.34,1.44-5.34,7.53,0,3.87,1.53,7.35,5.34,7.35,2.49,0,4.23-1.41,4.77-4.05h4.5c-.9,4.68-3.96,7.95-9.36,7.95-5.73,0-9.84-3.87-9.84-11.31s4.35-11.37,9.9-11.37c6.45,0,9.06,4.44,9.3,7.62h-4.5Z"></path>
  <path class="cls-1" d="M169.78,77.4c0,1.95-1.89,3.15-3.75,3.15-.81,0-1.95-.45-1.95-1.92,0-1.74,1.29-2.13,2.85-2.4,1.74-.27,2.43-.54,2.85-.87v2.04h0ZM173.89,71.37c0-3.93-4.11-4.62-6.36-4.62-3.27,0-6.66.69-7.14,5.58h4.05c.12-.93.48-2.22,2.58-2.22,1.08,0,2.76.09,2.76,1.86,0,.9-.81,1.17-1.47,1.26l-3.78.57c-2.67.39-4.65,1.98-4.65,5.1,0,3.3,2.46,4.65,4.86,4.65,2.85,0,4.2-1.32,5.16-2.31.09.9.15,1.14.39,1.89h4.53v-.63c-.51-.18-.93-.6-.93-2.49v-8.64h0Z"></path>
  <path class="cls-1" d="M182.35,67.17h2.61v3h-2.61v8.67c0,.93.03,1.29,1.74,1.29.27,0,.57-.03.87-.06v3.18c-.66.03-1.32.06-1.98.06h-.54c-3.63,0-4.29-1.38-4.29-3.45v-9.69h-2.16v-3h2.16v-4.32h4.2v4.32h0Z"></path>
  <path class="cls-1" d="M196.44,77.4c0,1.95-1.89,3.15-3.75,3.15-.81,0-1.95-.45-1.95-1.92,0-1.74,1.29-2.13,2.85-2.4,1.74-.27,2.43-.54,2.85-.87v2.04h0ZM200.56,71.37c0-3.93-4.11-4.62-6.36-4.62-3.27,0-6.66.69-7.14,5.58h4.05c.12-.93.48-2.22,2.58-2.22,1.08,0,2.76.09,2.76,1.86,0,.9-.81,1.17-1.47,1.26l-3.78.57c-2.67.39-4.65,1.98-4.65,5.1,0,3.3,2.46,4.65,4.86,4.65,2.85,0,4.2-1.32,5.16-2.31.09.9.15,1.14.39,1.89h4.53v-.63c-.51-.18-.93-.6-.93-2.49v-8.64h0Z"></path>
  <polygon class="cls-1" points="208.62 83.13 204.42 83.13 204.42 61.59 208.62 61.59 208.62 83.13 208.62 83.13"></polygon>
  <path class="cls-1" d="M227.04,83.13h-4.02v-2.25h-.06c-.96,1.71-2.64,2.67-4.86,2.67-3.15,0-5.43-1.8-5.43-5.88v-10.5h4.2v9.9c0,2.46,1.44,2.94,2.73,2.94,1.38,0,3.24-.78,3.24-3.63v-9.21h4.2v15.96h0Z"></path>
  <path class="cls-1" d="M245.4,83.13h-4.2v-9.69c0-1.17-.06-3.15-2.73-3.15-1.86,0-3.3,1.26-3.3,3.69v9.15h-4.2v-15.96h4.02v2.34h.06c.57-.96,1.77-2.76,4.8-2.76s5.55,1.83,5.55,5.34v11.04h0Z"></path>
  <path class="cls-1" d="M257.44,82.86c-1.98,5.91-2.52,6.69-6.18,6.69-.57,0-1.29-.03-1.89-.06v-3.36c.18.03.45.06.81.06,1.53,0,2.37-.21,2.76-2.4l-5.88-16.62h4.68l3.42,11.76h.06l3.27-11.76h4.44l-5.49,15.69h0Z"></path>
  <path class="cls-1" d="M273.31,77.4c0,1.95-1.89,3.15-3.75,3.15-.81,0-1.95-.45-1.95-1.92,0-1.74,1.29-2.13,2.85-2.4,1.74-.27,2.43-.54,2.85-.87v2.04h0ZM277.42,71.37c0-3.93-4.11-4.62-6.36-4.62-3.27,0-6.66.69-7.14,5.58h4.05c.12-.93.48-2.22,2.58-2.22,1.08,0,2.76.09,2.76,1.86,0,.9-.81,1.17-1.47,1.26l-3.78.57c-2.67.39-4.65,1.98-4.65,5.1,0,3.3,2.46,4.65,4.86,4.65,2.85,0,4.2-1.32,5.16-2.31.09.9.15,1.14.39,1.89h4.53v-.63c-.51-.18-.93-.6-.93-2.49v-8.64h0Z"></path>
  <g>
    <path class="cls-1" d="M79.45,80.09c.85.73,1.12,2.06.93,3.14-1.34.12-2.39-.18-3.18-.95-.68.18-1.5.58-1.92.91-.23-.54-.49-.98-.83-1.44-3.04,2.05-6.6,1.36-11.44,1.42,2.08-.76,2.98-1.1,4.38-1.86,2.85-1.54,3.55-2.98,5.95-3.17.18-1.12.14-1.22.06-1.91.63.05,1.13.07,1.68-.04-.02-1.58.76-2.86.9-3.08.24-.38.41-.75.8-1.33,1.33-1.98,2.87-5.76,3.5-8.64l.07,9.91c-.16,1.75-.4,2.75-1.36,4.21.44.38.86.57,1.36.81-.39.58-.73,1.31-.89,2.02h0ZM79.81,78.26c-.53-.11-1.11-.65-1.17-.73,0,0,0,0,0-.01,0,0,0,0,0,.01,0,.09-.44.67-1.12,1.07v.03c.07.14.11.3.12.45l.02-.03s1.77-.65,2.14-.8h0ZM78.35,69.89c-1.35,2.98-3.27,4.58-2.66,7.15,0,0,.1.51.42.89.18-.04.55,0,.55,0,1.33-3.49,2.44-6.65,3.21-10.92.11-.71.16-1.7.21-2.49-.39,1.63.03,1.45-1.75,5.37h0ZM73.92,76.76s.1.48-.11,1.39c0,0,.56.02,1.41.43v-.02c.06-.1.13-.19.22-.27.05-.05.09-.09.14-.12h0s-1.65-1.39-1.65-1.39h0ZM66.42,82.71c2.84-.65,6.91-2.15,8.69-3.03v-.03c-.05-.16-.06-.33-.05-.49v-.07c-.45-.25-.95-.41-1.55-.41-2.58.05-3.55,2.26-7.36,3.7l-1.76.54c.52-.02,1.19-.01,2.03-.2h0ZM75.48,82.59l.75-2.11h-.02c-.19-.01-.37-.07-.54-.17h-.01c-.18.43-.29.68-.82,1.13.39.44.54.88.64,1.15h0ZM75.82,79.73c.29.29.77.3,1.06,0,.29-.29.3-.77,0-1.06-.29-.29-.77-.3-1.07,0-.29.29-.3.77,0,1.06h0ZM77.46,81.84c.62.76,1.49,1,2.49.9l-2.64-2.68c-.14.19-.36.31-.56.36.15.61.31.96.7,1.42h0Z"></path>
    <path class="cls-1" d="M80.38,26.14c.19,1.08-.08,2.41-.93,3.14.17.71.5,1.44.89,2.02-.5.25-.93.43-1.36.81.96,1.46,1.2,2.45,1.36,4.21l-.07,9.91c-.64-2.88-2.18-6.66-3.5-8.64-.39-.58-.56-.94-.8-1.33-.14-.22-.92-1.51-.9-3.08-.54-.11-1.04-.09-1.68-.04.08-.69.12-.78-.06-1.91-2.4-.19-3.1-1.63-5.95-3.17-1.39-.75-2.29-1.1-4.38-1.86,4.84.06,8.4-.63,11.44,1.42.35-.46.6-.9.83-1.44.42.33,1.24.73,1.92.91.78-.77,1.83-1.08,3.18-.95h0ZM79.81,31.11c-.37-.15-2.14-.8-2.14-.8l-.02-.03c0,.15-.05.31-.11.45v.03c.67.41,1.1.98,1.11,1.07,0,0,0,.01,0,0,0,0,0,0,0,0,.06-.08.64-.62,1.17-.73h0ZM78.35,39.48c1.77,3.92,1.35,3.75,1.75,5.37-.05-.78-.1-1.77-.21-2.49-.77-4.27-1.88-7.43-3.21-10.92,0,0-.37.03-.55,0-.32.37-.42.89-.42.89-.62,2.57,1.31,4.17,2.66,7.15h0ZM73.92,32.61l1.65-1.38h0c-.05-.05-.1-.09-.14-.14-.08-.08-.15-.17-.21-.27v-.02c-.85.41-1.42.43-1.42.43.21.91.11,1.39.11,1.39h0ZM66.42,26.66c-.83-.19-1.5-.18-2.03-.2l1.76.54c3.81,1.43,4.79,3.64,7.36,3.7.6,0,1.1-.16,1.54-.41v-.07c-.01-.16,0-.33.05-.49v-.03c-1.78-.88-5.85-2.38-8.69-3.03h0ZM75.48,26.77c-.1.27-.24.71-.64,1.15.53.45.64.69.82,1.13h.01c.17-.11.35-.16.54-.18h.02s-.75-2.1-.75-2.1h0ZM75.82,29.64c-.29.29-.29.77,0,1.06.29.29.77.29,1.07,0,.29-.29.29-.77,0-1.06-.29-.29-.77-.29-1.06,0h0ZM77.46,27.53c-.39.45-.56.8-.7,1.42.19.06.42.17.56.36l2.64-2.68c-1-.09-1.87.14-2.49.9h0Z"></path>
    <path class="cls-1" d="M31.02,83.23c-.19-1.08.08-2.41.93-3.14-.17-.71-.5-1.44-.89-2.02.5-.25.93-.43,1.36-.81-.96-1.46-1.2-2.45-1.36-4.21l.07-9.91c.64,2.88,2.18,6.66,3.5,8.64.39.58.56.94.8,1.33.14.22.92,1.51.9,3.08.54.11,1.04.09,1.68.04-.08.69-.12.78.06,1.91,2.4.19,3.1,1.63,5.95,3.17,1.39.75,2.29,1.1,4.38,1.86-4.84-.06-8.39.63-11.44-1.42-.35.46-.6.9-.83,1.44-.42-.33-1.24-.73-1.92-.91-.78.77-1.83,1.07-3.18.95h0ZM31.58,78.26c.37.15,2.14.8,2.14.8l.02.03c0-.15.05-.31.11-.45v-.03c-.67-.41-1.1-.98-1.11-1.07,0,0,0-.01,0-.01,0,0,0,0,0,.01-.06.08-.64.62-1.17.73h0ZM33.04,69.89c-1.77-3.92-1.35-3.75-1.75-5.37.05.78.1,1.77.21,2.49.77,4.27,1.88,7.43,3.21,10.92,0,0,.36-.03.55,0,.32-.37.42-.89.42-.89.62-2.57-1.31-4.17-2.65-7.15h0ZM37.47,76.76l-1.65,1.38h0c.05.05.1.09.14.14.08.08.15.17.21.27v.02c.85-.41,1.42-.43,1.42-.43-.21-.91-.11-1.39-.11-1.39h0ZM44.98,82.71c.83.19,1.5.18,2.03.2l-1.76-.54c-3.81-1.43-4.79-3.64-7.36-3.7-.6,0-1.1.16-1.54.41v.07c.01.17,0,.33-.05.49v.03c1.78.88,5.85,2.38,8.69,3.03h0ZM35.91,82.59c.1-.27.24-.71.64-1.15-.53-.45-.64-.69-.82-1.13h-.01c-.17.1-.35.16-.54.18h-.02s.75,2.1.75,2.1h0ZM35.57,79.73c.29-.29.29-.77,0-1.06-.29-.29-.77-.29-1.06,0-.29.29-.29.77,0,1.06.29.29.77.29,1.06,0h0ZM33.93,81.84c.39-.45.56-.8.7-1.42-.19-.06-.42-.17-.56-.36l-2.64,2.68c1,.09,1.87-.14,2.49-.9h0Z"></path>
    <path class="cls-1" d="M31.94,29.28c-.85-.73-1.12-2.06-.93-3.14,1.34-.12,2.39.18,3.18.95.68-.18,1.5-.58,1.92-.91.23.54.48.98.83,1.44,3.04-2.05,6.6-1.36,11.44-1.42-2.08.76-2.98,1.1-4.38,1.86-2.85,1.54-3.55,2.98-5.95,3.17-.18,1.12-.14,1.22-.06,1.91-.63-.05-1.13-.07-1.68.04.02,1.58-.76,2.86-.9,3.08-.24.39-.41.75-.8,1.33-1.33,1.98-2.87,5.76-3.5,8.64l-.07-9.91c.16-1.75.4-2.75,1.36-4.21-.44-.38-.86-.57-1.36-.81.39-.58.73-1.31.89-2.02h0ZM31.58,31.11c.53.11,1.11.65,1.17.73,0,0,0,0,0,0,0,0,0,0,0,0,0-.09.44-.67,1.12-1.07v-.03c-.07-.14-.11-.3-.12-.45l-.02.03s-1.77.65-2.14.8h0ZM33.04,39.48c1.35-2.98,3.27-4.58,2.65-7.15,0,0-.1-.51-.42-.89-.18.04-.55,0-.55,0-1.33,3.49-2.44,6.65-3.21,10.92-.11.71-.16,1.7-.21,2.49.39-1.63-.03-1.46,1.75-5.37h0ZM37.47,32.61s-.1-.48.11-1.39c0,0-.56-.02-1.41-.43v.02c-.07.1-.13.19-.22.27-.05.05-.09.09-.14.12h0s1.65,1.39,1.65,1.39h0ZM44.98,26.66c-2.84.65-6.91,2.15-8.69,3.03v.03c.05.16.06.33.05.49v.07c.45.25.95.41,1.55.41,2.58-.05,3.55-2.26,7.36-3.7l1.76-.54c-.52.02-1.2.01-2.03.2h0ZM35.91,26.77l-.75,2.11h.02c.19.01.37.07.54.17h.01c.18-.43.29-.68.82-1.13-.39-.44-.54-.88-.64-1.15h0ZM35.57,29.64c-.29-.29-.77-.3-1.06,0-.29.29-.3.77,0,1.06.29.29.77.3,1.06,0,.29-.29.3-.77,0-1.06h0ZM33.93,27.53c-.62-.76-1.49-1-2.49-.9l2.64,2.68c.14-.19.36-.31.56-.36-.15-.61-.31-.96-.7-1.42h0Z"></path>
    <path class="cls-1" d="M55.74,26.35c13.43,0,24.32,12.7,24.32,28.36s-10.89,28.36-24.32,28.36-24.32-12.7-24.32-28.36,10.89-28.36,24.32-28.36h0ZM38.76,68.83v-28.25c-2.34,4-3.71,8.87-3.71,14.12s1.37,10.12,3.71,14.12h0ZM43.99,34.36v40.69c1.35,1.11,2.81,2.04,4.36,2.75V31.61c-1.55.71-3.01,1.64-4.36,2.75h0ZM53.57,30.12v49.18c.71.09,1.44.13,2.17.13s1.47-.05,2.19-.14V30.12c-.72-.09-1.45-.14-2.19-.14s-1.46.05-2.17.14h0ZM63.16,31.62v46.18c1.55-.71,3.01-1.64,4.36-2.76v-40.66c-1.35-1.12-2.81-2.04-4.36-2.76h0ZM72.74,40.61v28.19c2.33-4,3.69-8.86,3.69-14.1s-1.36-10.1-3.69-14.1h0ZM33.46,54.71c0,6.5,2,12.45,5.3,17.04v-1.55c-2.78-4.29-4.43-9.66-4.43-15.49s1.65-11.2,4.43-15.49v-1.55c-3.31,4.59-5.3,10.54-5.3,17.04h0ZM72.74,70.17v1.55c3.3-4.59,5.29-10.53,5.29-17.02s-1.99-12.43-5.29-17.02v1.55c2.77,4.29,4.42,9.65,4.42,15.47s-1.65,11.18-4.42,15.47h0ZM67.52,32.36c-1.36-1-2.82-1.84-4.36-2.48v.96c1.55.68,3.01,1.56,4.36,2.62v-1.1h0ZM55.74,28.38c-.73,0-1.46.04-2.17.12v.89c.71-.09,1.44-.13,2.17-.13s1.47.04,2.19.13v-.89c-.72-.08-1.45-.13-2.19-.13h0ZM48.35,29.87c-1.54.64-3,1.47-4.36,2.47v1.1c1.35-1.06,2.82-1.94,4.36-2.62v-.96h0ZM43.99,77.07c1.36,1,2.82,1.83,4.36,2.47v-.96c-1.55-.68-3.01-1.56-4.36-2.62v1.1h0ZM55.74,81.03c.74,0,1.47-.04,2.19-.13v-.89c-.72.09-1.45.13-2.19.13s-1.46-.04-2.17-.13v.89c.72.08,1.44.12,2.17.12h0ZM63.16,79.53c1.54-.64,3-1.48,4.36-2.48v-1.1c-1.35,1.06-2.82,1.94-4.36,2.62v.96h0Z"></path>
  </g>
</svg>
