<svg width="31" height="29" viewBox="0 0 31 29" xmlns="http://www.w3.org/2000/svg" fill="currentColor">
<path d="M5.16659 24.1667C4.45617 24.1667 3.84801 23.9301 3.34211 23.4568C2.8362 22.9835 2.58325 22.4146 2.58325 21.75V7.25004C2.58325 6.58546 2.8362 6.01653 3.34211 5.54327C3.84801 5.07001 4.45617 4.83337 5.16659 4.83337H12.9166L15.4999 7.25004H25.8333C26.5437 7.25004 27.1518 7.48667 27.6577 7.95994C28.1636 8.4332 28.4166 9.00212 28.4166 9.66671H14.4343L11.851 7.25004H5.16659V21.75L8.26659 12.0834H30.3541L27.028 22.4448C26.8558 22.9684 26.5383 23.3863 26.0754 23.6985C25.6126 24.0106 25.1013 24.1667 24.5416 24.1667H5.16659ZM7.87909 21.75H24.5416L26.8666 14.5H10.2041L7.87909 21.75Z" />
</svg>
