<?xml version="1.0" encoding="UTF-8" standalone="no"?>
<!-- Created with Inkscape (http://www.inkscape.org/) -->

<svg
   version="1.1"
   id="svg1"
   width="1280"
   height="1280"
   viewBox="0 0 1280 1280"
   sodipodi:docname="favicon.jpg"
   inkscape:export-filename="favicon.svg"
   inkscape:export-xdpi="96"
   inkscape:export-ydpi="96"
   xmlns:inkscape="http://www.inkscape.org/namespaces/inkscape"
   xmlns:sodipodi="http://sodipodi.sourceforge.net/DTD/sodipodi-0.dtd"
   xmlns="http://www.w3.org/2000/svg"
   xmlns:svg="http://www.w3.org/2000/svg">
  <defs
     id="defs1" />
  <sodipodi:namedview
     id="namedview1"
     pagecolor="#ffffff"
     bordercolor="#666666"
     borderopacity="1.0"
     inkscape:showpageshadow="2"
     inkscape:pageopacity="0.0"
     inkscape:pagecheckerboard="0"
     inkscape:deskcolor="#d1d1d1" />
  <g
     inkscape:groupmode="layer"
     inkscape:label="Image"
     id="g1">
    <path
       style="fill:#000000"
       d="m 218.66746,849.51152 c -0.25055,-0.41471 -0.76238,-12.67902 -1.13741,-27.25402 -0.37503,-14.575 -1.05486,-40 -1.51074,-56.5 -0.45588,-16.5 -0.55685,-42.15 -0.22438,-57 0.33247,-14.85 0.57548,-30.15 0.54002,-34 -0.0714,-7.74924 -1.2849,-26.35472 -1.83531,-28.13852 -0.19322,-0.62618 -0.60589,-18.40118 -0.91705,-39.5 -0.31115,-21.09882 -0.83082,-44.21148 -1.1548,-51.36148 -0.52245,-11.52977 -0.62138,-24.66601 -0.28996,-38.5 0.0593,-2.475 -0.06,-21.13537 -0.26501,-41.46748 L 211.5,438.82254 216,437.96829 c 4.7542,-0.9025 158.911,-0.0659 161.36481,0.8757 1.52021,0.58336 2.5699,6.30422 1.84884,10.07622 l -0.43187,2.25916 -41.14089,-0.51213 C 315.0134,450.38558 280.75,450.00996 261.5,449.83254 c -19.25,-0.17742 -35.9,-0.61023 -37,-0.96181 -4.99215,-1.59559 -4.89549,-2.75452 -4.67607,56.06339 0.11249,30.15286 0.22739,61.683 0.25534,70.06699 0.0423,12.69777 0.32249,15.51529 1.67747,16.87027 1.32095,1.32095 1.57399,3.43554 1.34648,11.25204 -0.15409,5.29397 -0.66359,9.86237 -1.13222,10.152 -1.09834,0.67881 -1.42798,13.56825 -0.44709,17.48208 0.41353,1.65 1.21074,3.58157 1.7716,4.29238 0.70233,0.89012 0.65942,1.65269 -0.13789,2.45 -1.51152,1.51151 -1.4816,4.43935 0.0551,5.38907 0.66698,0.41221 23.05448,0.65502 49.75,0.53957 26.69552,-0.11545 59.86227,0.19968 73.70389,0.70029 13.84162,0.50062 26.66207,0.60435 28.48988,0.23052 2.0087,-0.41082 3.77069,-1.57709 4.45433,-2.94833 0.98618,-1.97809 1.21452,-2.05112 1.78281,-0.57017 0.35848,0.93416 -0.0698,2.79973 -0.95171,4.1457 -1.22796,1.8741 -2.16921,2.30524 -4.01911,1.84094 -2.23551,-0.56108 -107.7837,-0.78373 -136.62342,-0.2882 -7.5544,0.1298 -13.14292,0.66077 -13.79217,1.31039 -0.72722,0.72766 -1.08382,8.82112 -1.06845,24.25 0.0128,12.88278 -0.37186,23.15784 -0.86702,23.15784 -1.94581,0 -3.34469,13.23344 -2.18737,20.69254 0.61361,3.95481 1.11565,10.59186 1.11565,14.74901 0,7.33639 1.44113,10.37071 2.28375,4.80845 0.22912,-1.5125 0.44848,0.175 0.48747,3.75 0.039,3.575 -0.15609,5.9375 -0.4335,5.25 -0.27741,-0.6875 -0.91689,-1.25 -1.42105,-1.25 -1.23283,0 -1.15449,30.08461 0.0833,32 0.64988,1.00562 0.97442,-3.4163 0.98469,-13.41667 0.0153,-14.90484 0.92725,-19.34359 1.52122,-7.40428 0.26026,5.23144 1.45492,52.57241 1.93449,76.6583 l 0.12619,6.33736 76.9667,0.32118 c 42.33169,0.17664 86.19171,0.25072 97.46671,0.16462 11.275,-0.0861 48.69899,-0.15745 83.16443,-0.15854 34.46543,-10e-4 62.91249,-0.24903 63.21568,-0.55099 0.30319,-0.30196 0.61368,-5.58946 0.68997,-11.75 0.0799,-6.45155 0.54881,-11.20098 1.10588,-11.20098 0.53195,0 0.88516,1.0125 0.78491,2.25 -0.10024,1.2375 -0.13244,6.40855 -0.0716,11.49123 l 0.11069,9.24124 53.25,0.25876 c 48.15122,0.23399 53.22518,0.41188 52.99082,1.85784 -0.21643,1.3353 1.43314,1.73468 10,2.4211 5.64255,0.45211 15.88418,0.64274 22.75918,0.42363 15.27681,-0.48688 20.7445,-0.46081 24,0.11444 1.75189,0.30956 2.5,-0.007 2.5,-1.05824 0,-1.07354 -1.47517,-1.64841 -5.18864,-2.02198 -13.65906,-1.3741 -3.02987,-1.98782 36.27197,-2.09432 23.60417,-0.064 48.31667,-0.21347 54.91667,-0.33225 31.37097,-0.56455 78.62722,-0.59086 79.51161,-0.0443 0.54362,0.33597 1.34801,0.3886 1.78754,0.11696 1.30077,-0.80392 1.32098,-45.77446 0.0213,-47.34051 -0.82043,-0.98856 -0.81184,-2.00704 0.0326,-3.86029 1.55146,-3.4051 1.4443,-4.9832 -0.46827,-6.89577 -1.48706,-1.48705 -1.48043,-1.76431 0.0834,-3.49236 1.80863,-1.99851 1.943,-8.48928 0.22327,-10.7852 -0.56329,-0.75202 -3.27784,-1.25 -6.81385,-1.25 -4.99321,0 -5.87756,0.27083 -5.87756,1.8 0,0.99 -0.41903,2.2275 -0.93118,2.75 C 870.12184,768.77362 864,791.33079 864,793.85403 c 0,2.44183 -3.36473,5.40347 -6.13891,5.40347 -1.48193,0 -2.87255,0.53437 -3.09026,1.1875 C 854.11071,802.42536 850,797.52051 850,794.7525 c 0,-1.37775 1.63388,-8.69025 3.63085,-16.25 1.99697,-7.55975 4.18078,-16.22 4.85291,-19.245 0.67213,-3.025 2.24501,-8.875 3.4953,-13 1.25028,-4.125 2.32058,-9.15839 2.37846,-11.1853 0.0579,-2.02691 0.32086,-3.46965 0.58442,-3.2061 0.51179,0.51179 7.73622,-27.59567 10.64881,-41.43042 1.50449,-7.14626 2.01015,-8.25431 3.57962,-7.84388 1.0052,0.26286 2.0986,0.0395 2.42978,-0.49636 0.33119,-0.53586 1.23163,-0.73274 2.001,-0.4375 1.54878,0.59432 1.58995,0.0302 1.40189,-19.20873 -0.0608,-6.21955 -0.36099,-11.96093 -0.66709,-12.75863 -0.82712,-2.15545 -3.026,-2.41891 -24.33595,-2.91591 -10.725,-0.25013 -20.175,-0.50745 -21,-0.57183 -0.825,-0.0644 -2.4,-0.0361 -3.5,0.0629 -1.1,0.099 -15.95,-0.0384 -33,-0.30538 -17.05,-0.26695 -40.675,-0.1968 -52.5,0.15588 -19.72198,0.5882 -21.4757,0.78595 -21.20616,2.39123 0.16161,0.9625 -0.17589,1.75 -0.75,1.75 -0.57411,0 -1.04384,-0.84893 -1.04384,-1.8865 0,-1.362 -0.9036,-2.02164 -3.25,-2.37253 -3.57753,-0.53501 -4.47774,0.25055 -5.45364,4.75903 l -0.64937,3 -0.79541,-2.96839 c -1.29993,-4.85112 1.15052,-7.52622 6.92147,-7.55602 44.00774,-0.22719 109.6772,0.0866 130.83151,0.62521 26.83502,0.68321 27.1259,0.66874 29.25,-1.45537 2.77491,-2.77491 2.85585,-7.1469 0.14544,-7.85569 -2.5732,-0.6729 -2.5732,-2.32709 0,-3 1.94264,-0.50801 2,-1.36401 2,-29.84736 0,-18.47088 0.37012,-29.5531 1,-29.94238 1.34312,-0.8301 1.34312,-34.16991 0,-35 -0.60499,-0.37391 -1,-7.52695 -1,-18.10871 0,-16.29215 0.11863,-17.42428 1.73128,-16.5218 1.59102,0.89038 1.75139,4.27031 1.97957,41.72184 0.13656,22.41413 -0.13747,41.238 -0.60897,41.83082 -0.47149,0.59281 -0.63346,3.32785 -0.35992,6.07785 0.27353,2.75 0.55599,15.62909 0.62769,28.6202 l 0.13035,23.62021 77.78046,-0.015 c 42.77924,-0.008 77.98924,-0.35285 78.24454,-0.76581 0.2552,-0.41295 0.7486,-36.46031 1.0966,-80.10523 0.3479,-43.64492 1.0253,-79.78189 1.5055,-80.30439 1.2442,-1.35405 1.0822,-8.3026 -0.2122,-9.10259 -0.7163,-0.44271 -0.9841,-5.13566 -0.7878,-13.80902 l 0.2972,-13.13839 -36.9621,-0.17038 c -20.32923,-0.0937 -39.8872,-0.12986 -43.4622,-0.0804 -7.54974,0.10455 -16.42331,0.0183 -27,-0.26254 -11.25671,-0.29887 -44.05272,1.07367 -47.65774,1.99451 l -3.15775,0.80659 -0.41606,-4.64392 c -0.22884,-2.55415 -0.36597,-4.7358 -0.30473,-4.84811 0.0612,-0.1123 14.04445,-0.78149 31.07381,-1.48709 35.47978,-1.47007 99.02127,-1.71075 120.66647,-0.45706 l 14.7039,0.85166 0.7961,4.64834 c 0.4378,2.55659 0.7635,8.92335 0.7238,14.14835 -0.6309,83.04374 -1.5527,139.93253 -2.4303,150 -0.5993,6.875 -0.8489,17.96154 -0.5547,24.63676 0.3966,8.99719 0.2145,12.38901 -0.7039,13.11185 -0.6814,0.5363 -3.4785,1.26765 -6.2159,1.62522 -6.3174,0.82522 -52.741,1.21595 -54.04654,0.45489 -1.27217,-0.74161 -17.68951,-0.7685 -18.92545,-0.031 -1.87331,1.11783 -11.09574,1.13993 -13.26692,0.0318 -1.64088,-0.83749 -2.56739,-0.83927 -3.57037,-0.007 -0.96791,0.80329 -3.09351,0.84404 -7.44801,0.14276 -3.35146,-0.53973 -7.14479,-0.61267 -8.42963,-0.16208 -1.28485,0.45058 -4.13608,0.65057 -6.33608,0.4444 -10.53155,-0.98693 -18.05473,-1.08366 -22.31924,-0.28697 -2.57156,0.48042 -5.12674,0.51205 -5.67817,0.0703 -0.90993,-0.72898 -12.27542,0.34065 -15.22614,1.43297 -0.67296,0.24912 -1.65171,-0.31212 -2.175,-1.2472 -0.52329,-0.93507 -1.28673,-1.36485 -1.69652,-0.95506 -0.84409,0.84409 -1.32618,7.79569 -0.62972,9.08024 0.88341,1.62934 0.98095,16.23746 0.15463,23.15803 -0.74309,6.22354 -0.62911,7.16638 1.02759,8.5 1.89353,1.52425 3.27572,5.91685 9.4399,30 14.56406,56.90108 19.34351,75.17547 21.11922,80.75 0.66837,2.09822 0.40529,2.26124 -3.89992,2.41666 -2.53915,0.0917 -5.38729,0.20417 -6.3292,0.25 -1.10269,0.0537 -1.97918,-0.98503 -2.46121,-2.91666 -0.41174,-1.65 -2.39482,-9.8625 -4.40684,-18.25 -3.48162,-14.51386 -3.77629,-15.25 -6.10453,-15.25 -5.56587,0 -6.31485,1.30883 -6.31485,11.03518 0,7.13887 0.2935,8.96482 1.44098,8.96482 2.44715,0 2.6241,1.64755 0.47094,4.38484 -1.82944,2.32576 -2.04309,3.88281 -1.90281,13.86754 0.0869,6.18619 0.0593,11.47262 -0.0614,11.74762 -0.1207,0.275 -0.34165,5.5865 -0.49102,11.80334 l -0.27158,11.30335 53.65745,-0.10988 c 78.59474,-0.16095 81.35574,-0.12662 80.65744,1.00319 -0.3399,0.55 -2.729,1.05955 -5.309,1.13234 -5.685,0.16039 17.9268,2.68834 26.0904,2.79332 4.465,0.0574 5.9236,-0.29635 6.4061,-1.55366 0.3436,-0.89539 0.075,-5.83004 -0.597,-10.96587 -1.3961,-10.67136 -2.7936,-60.40971 -3.7272,-132.65613 l -0.6429,-49.75 h 4.5545 4.5545 l 0.5675,7.25 c 0.3122,3.9875 0.7926,25.25 1.0676,47.25 0.7775,62.20888 2.4678,126.0057 3.6266,136.87809 0.5974,5.60574 0.6762,10.25459 0.1822,10.7486 -0.4891,0.4891 -74.89442,0.76158 -169.82189,0.6219 L 720.5,849.7575 l -0.31642,-2.75 c -0.17403,-1.5125 -0.70664,-2.75 -1.18358,-2.75 -0.47694,0 -1.00955,1.2375 -1.18358,2.75 l -0.31642,2.75 -81.89046,0.25587 c -56.30291,0.17593 -82.28744,-0.0736 -83.16097,-0.79856 -0.88529,-0.73472 -1.467,-0.73651 -1.91856,-0.006 -0.92636,1.49888 -134.71757,1.46099 -136.21714,-0.0386 -0.78285,-0.78284 -1.2752,-0.78284 -1.75902,0 -0.42967,0.69523 -5.49684,1.08714 -14.05616,1.08714 -12.69732,0 -13.46418,-0.11408 -14.94099,-2.22251 -1.51697,-2.16578 -1.67166,-2.12794 -1.9317,0.47251 -0.0986,0.98641 -17.24534,1.30356 -81.3135,1.50402 -44.65367,0.13971 -81.39349,-0.0853 -81.64404,-0.5 z m 675.99384,-7.32736 c 5.6456,0.30061 4.29391,0.33521 16.43935,-0.42082 5.28036,-0.32869 12.27272,-0.1673 15.5386,0.35865 3.83264,0.61723 7.69701,0.60722 10.89935,-0.0282 2.72877,-0.54149 9.9114,-0.89647 15.9614,-0.78885 14.40016,0.25616 13.82965,0.27828 22.5,-0.8726 5.58438,-0.74127 -4.27552,-0.9531 -38.60329,-0.82937 -47.32775,0.17058 -49.43144,0.34213 -49.3814,4.02701 0.009,0.62985 0.41081,0.50275 0.9113,-0.28793 0.61313,-0.96865 2.42348,-1.33416 5.73469,-1.15785 z M 821.5,841.3302 c 5.60775,-0.75045 9.53683,-0.75754 13.13935,-0.0237 5.08611,1.03603 27.36936,0.64235 38.3384,-0.67732 9.15577,-1.10152 2.59965,-2.35118 -10.22075,-1.94818 -6.19135,0.19462 -23.407,0.41892 -38.257,0.49845 -26.92065,0.14418 -26.99312,0.15034 -24.65751,2.09652 2.56172,2.13459 6.04683,2.14332 21.65751,0.0543 z m -458.03856,-0.0103 c 0.32577,-0.52712 -1.18069,-0.91331 -3.44099,-0.88211 -2.21125,0.0305 -4.02045,0.45244 -4.02045,0.9376 0,1.18366 6.72652,1.13364 7.46144,-0.0555 z M 465.5,841.31487 c 2.85034,-0.58958 -0.31124,-0.85603 -11,-0.92706 -10.01487,-0.0666 -14.50149,0.22248 -13.5,0.86969 1.81337,1.17188 18.91812,1.21194 24.5,0.0574 z m 83.84549,-0.30737 c -0.25494,-0.4125 -12.16352,-0.75 -26.46352,-0.75 -14.3,0 -25.79142,0.3375 -25.53648,0.75 0.25494,0.4125 12.16352,0.75 26.46352,0.75 14.3,0 25.79142,-0.3375 25.53648,-0.75 z M 601,841.28848 c 7.37535,-0.69584 7.29224,-0.71362 -5,-1.07007 -11.9741,-0.34722 -40.95732,-0.22178 -42,0.18178 -0.275,0.10644 2.2,0.49222 5.5,0.85731 8.04863,0.89042 32.19955,0.90846 41.5,0.031 z m 126.5,0.0264 c 3.95723,-0.81853 3.93852,-0.82861 -1.75,-0.94238 -3.24333,-0.0649 -5.75,0.32095 -5.75,0.88501 0,1.1772 2.01167,1.19259 7.5,0.0574 z m -437.23625,-0.76131 c -1.22994,-0.23736 -3.47994,-0.2435 -5,-0.0136 -1.52006,0.22986 -0.51375,0.42406 2.23625,0.43157 2.75,0.008 3.99369,-0.18055 2.76375,-0.41792 z m 57.46542,0.0998 c -0.33229,-0.33229 -1.1948,-0.36782 -1.91667,-0.0789 -0.79773,0.31923 -0.56078,0.55618 0.60417,0.60417 1.05416,0.0434 1.64479,-0.19293 1.3125,-0.52522 z M 486.25,840.55176 c -1.2375,-0.23835 -3.2625,-0.23835 -4.5,0 -1.2375,0.23836 -0.225,0.43337 2.25,0.43337 2.475,0 3.4875,-0.19501 2.25,-0.43337 z m 168.5,0.0164 c -0.9625,-0.25153 -2.5375,-0.25153 -3.5,0 -0.9625,0.25153 -0.175,0.45732 1.75,0.45732 1.925,0 2.7125,-0.20579 1.75,-0.45732 z M 792.5,839.2575 c -1.1,-0.47269 -3.575,-0.85943 -5.5,-0.85943 -2.83644,0 -3.12082,0.16293 -1.5,0.85943 1.1,0.47268 3.575,0.85943 5.5,0.85943 2.83644,0 3.12082,-0.16294 1.5,-0.85943 z m 208.25,0.26496 c -2.6125,-0.206 -6.8875,-0.206 -9.5,0 -2.6125,0.20599 -0.475,0.37454 4.75,0.37454 5.225,0 7.3625,-0.16855 4.75,-0.37454 z M 866.88169,773.8075 c 0.0695,-1.73214 -0.24174,-2.55781 -0.75383,-2 -1.20844,1.31631 -2.26627,8.9769 -1.36507,9.8855 0.81855,0.82528 1.93638,-3.33472 2.1189,-7.8855 z M 887.68311,761.07 c -0.31922,-0.79774 -0.55618,-0.56078 -0.60416,0.60416 -0.0434,1.05417 0.19293,1.64479 0.52522,1.3125 0.33229,-0.33229 0.36781,-1.19479 0.0789,-1.91666 z m 5.9295,-13.5625 c -0.2872,-0.9625 -1.05594,-4 -1.70833,-6.75 -0.65238,-2.75 -1.79773,-5.71044 -2.54521,-6.57875 -0.9128,-1.06034 -1.40379,-4.67232 -1.49525,-11 -0.0749,-5.18169 -0.32197,-8.29625 -0.54904,-6.92125 -0.76851,4.65364 -1.53471,5.70988 -2.23001,3.07413 -1.01078,-3.83166 -3.08332,-3.76967 -3.09389,0.0925 -0.005,1.83334 -1.13002,7.73333 -2.5,13.1111 C 878.1209,737.91303 877,743.6764 877,745.34276 c 0,2.94596 0.11751,3.02123 4.25,2.72223 l 4.25,-0.30749 -0.13148,-7.95459 -0.13147,-7.95459 1.83956,3.45459 c 1.08802,2.04324 1.85668,5.59943 1.88147,8.70459 0.0396,4.95919 0.18413,5.25 2.60931,5.25 1.97738,0 2.44739,-0.40217 2.04522,-1.75 z M 867.68311,730.07 c -0.31922,-0.79774 -0.55618,-0.56078 -0.60416,0.60416 -0.0434,1.05417 0.19293,1.64479 0.52522,1.3125 0.33229,-0.33229 0.36781,-1.19479 0.0789,-1.91666 z M 885,712.31651 c 0,-0.51754 -0.45,-1.2191 -1,-1.55901 -0.55,-0.33992 -1,0.0835 -1,0.94098 0,0.85746 0.45,1.55902 1,1.55902 0.55,0 1,-0.42345 1,-0.94099 z M 887.68311,693.07 c -0.31922,-0.79774 -0.55618,-0.56078 -0.60416,0.60416 -0.0434,1.05417 0.19293,1.64479 0.52522,1.3125 0.33229,-0.33229 0.36781,-1.19479 0.0789,-1.91666 z M 368,448.871 c 0,-0.83551 -6.02841,-1.21273 -7.22674,-0.45221 -0.76373,0.48471 0.42749,0.81421 2.97674,0.82339 2.3375,0.008 4.25,-0.15861 4.25,-0.37118 z m 10,-0.6135 c 0,-1.19838 -3.71124,-1.19838 -6.5,0 -1.54896,0.66561 -1.04154,0.87528 2.25,0.92971 2.3375,0.0387 4.25,-0.37971 4.25,-0.92971 z m -89,-0.90485 c 0,-0.81499 -7.90921,-0.33385 -8.91667,0.54243 -0.22916,0.19933 1.68334,0.36242 4.25,0.36242 2.56667,0 4.66667,-0.40718 4.66667,-0.90485 z m 18.72917,0.30068 c -0.33229,-0.33229 -1.1948,-0.36782 -1.91667,-0.0789 -0.79773,0.31923 -0.56078,0.55618 0.60417,0.60417 1.05416,0.0434 1.64479,-0.19293 1.3125,-0.52522 z M 686,838.15407 c 0,-1.0993 13.54247,-1.0081 17,0.11448 1.63073,0.52946 -0.89017,0.80655 -7.25,0.7969 -5.3625,-0.008 -9.75,-0.41826 -9.75,-0.91138 z m -303.25,-0.47548 c -0.4125,-0.41494 -0.75,-5.04443 -0.75,-10.28776 0,-6.59793 0.32012,-9.21322 1.03965,-8.49369 0.61468,0.61469 0.92125,4.81989 0.75,10.28776 -0.15931,5.08646 -0.62715,8.90862 -1.03965,8.49369 z M 281.5,833.2575 c 0.33992,-0.55 0.81648,-1 1.05902,-1 0.24254,0 0.44098,0.45 0.44098,1 0,0.55 -0.47656,1 -1.05902,1 -0.58246,0 -0.7809,-0.45 -0.44098,-1 z m 437.69495,-4.5 c 0.0204,-1.65 0.2445,-2.20394 0.49804,-1.23097 0.25354,0.97297 0.23687,2.32297 -0.0371,3 -0.27393,0.67703 -0.48137,-0.11903 -0.46099,-1.76903 z m -0.66373,-4.79313 c -0.42806,-0.98622 -0.4977,-2.07372 -0.15476,-2.41667 1.01549,-1.01549 1.83409,0.41095 1.3667,2.38153 -0.41435,1.74694 -0.46826,1.7485 -1.21194,0.0351 z M 718,808.2575 c 0,-5.5 0.40065,-10 0.89034,-10 0.48968,0 0.95347,4.5 1.03063,10 0.0882,6.28894 -0.24217,10 -0.89033,10 -0.63881,0 -1.03064,-3.80182 -1.03064,-10 z m -336.34944,3.6839 c -0.37104,-3.15694 -0.42413,-6.7398 -0.11799,-7.9619 0.30614,-1.2221 -0.0976,-3.11579 -0.89726,-4.20819 -1.20127,-1.64108 -2.52284,-1.96161 -7.60602,-1.84476 -5.76312,0.13249 -6.3701,-0.0765 -9.5992,-3.30563 -1.89589,-1.89589 -5.08811,-6.69075 -7.09383,-10.65525 -4.07416,-8.05296 -3.56539,-2.80965 -4.87186,-50.20817 -0.34868,-12.65 -0.79152,-26.36419 -0.98409,-30.47598 -0.20248,-4.32361 0.0957,-8.01318 0.70723,-8.75 0.75576,-0.91063 0.71797,-1.27402 -0.13248,-1.27402 -1.59216,0 -0.35096,-4.10865 1.73704,-5.75 1.40379,-1.1035 1.33335,-1.25 -0.60097,-1.25 -1.42355,0 -2.19113,-0.61558 -2.19113,-1.75721 0,-1.4644 0.73691,-1.6986 4.42233,-1.40548 4.24203,0.33738 4.41895,0.48036 4.33974,3.5072 -0.0454,1.73552 0.21526,8.78049 0.57929,15.65549 0.36402,6.875 0.91762,17.89289 1.23021,24.48422 0.31872,6.72045 1.03312,12.27146 1.6265,12.63819 0.58199,0.35969 0.71737,1.20539 0.30085,1.87934 -0.41652,0.67394 -0.71257,5.54501 -0.65789,10.8246 0.0737,7.11326 0.64035,11.03325 2.18812,15.13644 3.52811,9.35311 6.14206,13.98034 9.62517,17.03856 3.59418,3.15573 4.80086,3.25175 18.68926,1.48724 11.54047,-1.46621 15.50229,-9.50143 15.77222,-31.98859 0.0858,-7.15 -0.21108,-13.87302 -0.65979,-14.94003 -0.49274,-1.17174 -0.40612,-2.0766 0.21874,-2.28489 0.56901,-0.18967 0.8326,-1.40141 0.58574,-2.69275 -0.24686,-1.29135 0.0435,-2.65221 0.64534,-3.02413 1.6034,-0.99096 1.3344,-4.25204 -0.40583,-4.91983 -1.87901,-0.72104 -1.97133,-2.63837 -0.12705,-2.63837 1.00474,0 1.30895,-1.27392 1.13431,-4.75 -0.13698,-2.72622 -0.69265,-4.65325 -1.30422,-4.52292 -1.1974,0.25519 -0.975,-16.64254 0.30242,-22.97708 0.51795,-2.56841 0.39991,-3.75 -0.37462,-3.75 -0.62196,0 -1.13084,-0.69852 -1.13084,-1.55226 0,-1.24429 1.04163,-1.49229 5.25,-1.25 l 5.25,0.30226 0.63769,8.5 c 0.50177,6.68821 1.85822,46.52884 2.16198,63.5 0.16265,9.08707 -1.32873,22.66859 -2.81788,25.66154 -2.85264,5.73334 -7.92804,12.8345 -9.17463,12.83652 -0.65606,0.001 -2.84935,0.9793 -4.87398,2.17386 -3.00954,1.77567 -5.05074,2.13657 -11.18805,1.97812 -4.12881,-0.10659 -7.91405,-0.44542 -8.41165,-0.75296 -0.52244,-0.32288 -0.73912,2.74986 -0.5128,7.27188 0.49351,9.86038 -0.70911,14.19161 -1.67012,6.01494 z m 22.44823,-27.78966 c 4.37376,-4.68212 3.48203,-5.71665 -1.0979,-1.27372 -4.41113,4.27917 -4.4776,4.37948 -2.9021,4.37948 0.60433,0 2.40433,-1.39759 4,-3.10576 z M 881,805.19848 c 0,-1.13246 0.45,-1.7809 1,-1.44098 0.55,0.33991 1,1.26647 1,2.05901 0,0.79254 -0.45,1.44099 -1,1.44099 -0.55,0 -1,-0.92656 -1,-2.05902 z M 251.90676,799.5075 c -0.71021,-5.71272 -1.88283,-41.32572 -2.4942,-75.75 -0.25397,-14.3 -0.60237,-27.575 -0.77421,-29.5 -0.70074,-7.84964 2.30899,-11.98299 7.73404,-10.62139 1.87038,0.46944 3.55691,4.13597 10.50601,22.8403 4.55288,12.2546 8.86386,23.63109 9.57996,25.28109 0.71611,1.65 2.09995,5.475 3.07521,8.5 0.97526,3.025 2.57612,7.38435 3.55746,9.68745 1.11967,2.62772 1.39606,4.31685 0.74202,4.53486 -1.51539,0.50513 1.14726,8.77769 2.82524,8.77769 1.8019,0 1.7048,-2.45378 -0.15829,-4 -1.58007,-1.31135 -2.13334,-4.50947 -0.61813,-3.57301 1.06221,0.65648 4.20451,-5.47822 3.43981,-6.71553 -0.8148,-1.31836 1.7851,-9.71146 3.00828,-9.71146 0.7288,0 0.71202,-0.35803 -0.0526,-1.12267 -0.69694,-0.69694 -0.80894,-1.92938 -0.29536,-3.25 0.45502,-1.17004 1.37337,-4.82733 2.04078,-8.12733 2.28124,-11.27957 4.10516,-18.99926 4.96163,-21 0.47089,-1.1 1.1007,-3.76117 1.39958,-5.9137 0.29889,-2.15253 1.06034,-4.40253 1.69213,-5 0.85051,-0.80431 1.00206,-0.56713 0.58379,0.9137 -0.3107,1.1 -0.83968,3.35 -1.17551,5 -0.51534,2.53193 -0.43085,2.716 0.54153,1.17972 0.63367,-1.00114 1.26106,-5.08362 1.3942,-9.07217 0.13313,-3.98855 0.56963,-7.78193 0.97,-8.42973 0.79186,-1.28126 10.20955,-1.64953 10.94074,-0.42782 0.24688,0.4125 0.72091,7.95 1.05341,16.75 2.00726,53.12532 2.63121,71.56224 2.85968,84.5 l 0.25607,14.5 -4.40468,-0.20469 c -2.42258,-0.11257 -4.7761,-0.57609 -5.23004,-1.03004 -1.66204,-1.66203 -3.07295,-26.15022 -3.83236,-66.51527 -0.0181,-0.9625 -0.4526,-1.75 -0.96553,-1.75 -1.25788,0 -1.89676,2.3615 -2.56745,9.49017 -0.57928,6.15717 -2.40465,13.62367 -3.54728,14.50983 -1.31235,1.01777 -2.01058,6 -0.84087,6 0.78079,0 0.9356,1.20372 0.48228,3.75 -3.07214,17.25621 -3.81577,22.79139 -3.699,27.53364 0.0622,2.52714 -0.41148,3.97729 -1.42647,4.36678 -1.16489,0.44701 -1.25395,0.90329 -0.3815,1.95453 0.87308,1.05199 0.78077,1.50852 -0.39634,1.96022 -2.0645,0.79221 -5.69079,-1.25366 -5.69079,-3.21061 0,-1.38276 -7.10578,-21.41688 -16.26387,-45.85456 -1.64892,-4.4 -4.4016,-12.14969 -6.11708,-17.22153 -1.71548,-5.07184 -3.62221,-9.23434 -4.23719,-9.25 -0.76475,-0.0195 -1.01757,2.73706 -0.79993,8.72153 0.17503,4.8125 0.75606,20.675 1.29118,35.25 0.53513,14.575 0.73014,27.7375 0.43335,29.25 -0.4905,2.49968 -0.9386,2.75 -4.92304,2.75 -2.41088,0 -4.42538,-0.3375 -4.47666,-0.75 z M 319,796.2575 c 0,-0.55 -0.45,-1 -1,-1 -0.55,0 -1,0.45 -1,1 0,0.55 0.45,1 1,1 0.55,0 1,-0.45 1,-1 z m -35,-18.5 c 0,-0.825 -0.43588,-1.5 -0.96862,-1.5 -0.53273,0 -0.70959,0.675 -0.39301,1.5 0.31659,0.825 0.75246,1.5 0.96862,1.5 0.21615,0 0.39301,-0.675 0.39301,-1.5 z m 8.88566,-15.13777 c -0.6218,-0.74923 -0.72776,-1.36223 -0.23547,-1.36223 1.44986,0 3.29167,-9.30057 2.12667,-10.73899 -1.22131,-1.50796 -3.10577,-0.56053 -2.42318,1.21828 0.26952,0.70235 0.0608,1.70621 -0.46379,2.23081 -0.5246,0.5246 -0.99004,4.51694 -1.03431,8.87186 -0.12594,12.38795 0.15953,13.54415 1.73584,7.03027 1.06621,-4.40598 1.14026,-6.23061 0.29424,-7.25 z m -17.43111,-6.81678 c -0.86444,-2.06889 -1.77626,-3.55708 -2.02626,-3.30708 -0.25,0.25 0.25273,2.14728 1.11716,4.21617 0.86444,2.0689 1.77626,3.55708 2.02626,3.30708 0.25,-0.25 -0.25273,-2.14728 -1.11716,-4.21617 z M 297,746.83928 c 0,-1.52441 -1.36169,-3.47628 -2.10478,-3.01702 -1.46276,0.90403 -1.01714,3.43524 0.60478,3.43524 0.825,0 1.5,-0.1882 1.5,-0.41822 z m 1.69299,-14.31275 c -0.25354,-0.97297 -0.47766,-0.41903 -0.49804,1.23097 -0.0204,1.65 0.18706,2.44606 0.46099,1.76903 0.27392,-0.67703 0.29059,-2.02703 0.0371,-3 z M 308,726.2575 c 0,-0.55 -0.47656,-1 -1.05902,-1 -0.58246,0 -0.7809,0.45 -0.44098,1 0.33992,0.55 0.81648,1 1.05902,1 0.24254,0 0.44098,-0.45 0.44098,-1 z m -47.57141,-9.95454 c -1.47437,-2.81969 -2.92302,-4.88437 -3.21921,-4.58818 -0.29619,0.2962 0.74965,3.08459 2.3241,6.19644 1.57446,3.11185 3.0231,5.17653 3.21922,4.58818 0.19612,-0.58835 -0.84973,-3.37675 -2.32411,-6.19644 z m 38.93304,-1.54546 c 0.31658,-0.825 0.13972,-1.5 -0.39301,-1.5 -0.53274,0 -0.96862,0.675 -0.96862,1.5 0,0.825 0.17686,1.5 0.39301,1.5 0.21616,0 0.65203,-0.675 0.96862,-1.5 z m 263.67733,83.31143 c -1.124,-1.20646 -2.04321,-3.56235 -2.04843,-5.25 -0.005,-1.68379 -0.44247,-14.98643 -0.97169,-29.56143 -0.52923,-14.575 -1.22746,-37.49995 -1.55161,-50.94432 -0.32416,-13.44438 -0.78836,-24.76627 -1.03155,-25.15976 -0.24319,-0.39349 -0.17179,-1.42003 0.15866,-2.28119 0.44443,-1.15814 1.76588,-1.49756 5.07623,-1.30381 2.46146,0.14406 4.69864,-0.0993 4.97151,-0.54081 1.6449,-2.66151 2.24381,2.6236 2.43596,21.49621 0.1189,11.67852 0.31537,23.03368 0.43659,25.23368 0.12122,2.2 0.32312,18.37452 0.44866,35.94338 0.21203,29.6721 0.1012,32.03629 -1.55865,33.25 -2.51901,1.84195 -4.02199,1.63372 -6.36568,-0.88195 z M 561,686.13946 c 0,-0.55 -0.45,-0.72188 -1,-0.38196 -0.55,0.33991 -1,1.06803 -1,1.61803 0,0.55 0.45,0.72188 1,0.38197 0.55,-0.33992 1,-1.06804 1,-1.61804 z M 952.74738,796.0208 c -0.29047,-2.34482 -0.57894,-15.2883 -0.64105,-28.7633 -0.0621,-13.475 -0.38481,-38.04578 -0.7171,-54.60172 l -0.60417,-30.10172 3.55252,-0.57649 c 1.95389,-0.31708 4.80457,-0.24165 6.33486,0.16761 l 2.78233,0.74411 0.36879,49.21229 c 0.20283,27.06676 0.1578,49.7621 -0.10007,50.4341 -0.25787,0.672 -0.52446,1.67182 -0.59243,2.22182 -0.0806,0.65218 8.89245,0.87532 25.79807,0.64154 24.60867,-0.34031 26.02797,-0.25946 28.01967,1.59612 1.5542,1.44795 2.1567,3.35531 2.3246,7.35846 l 0.2266,5.40388 -33.11225,0.2633 -33.11225,0.26331 z m 58.50262,-8.46904 c -1.2375,-0.23835 -3.2625,-0.23835 -4.5,0 -1.2375,0.23836 -0.225,0.43337 2.25,0.43337 2.475,0 3.4875,-0.19501 2.25,-0.43337 z M 961.70573,762.0075 c -0.23835,-1.2375 -0.43337,-0.225 -0.43337,2.25 0,2.475 0.19502,3.4875 0.43337,2.25 0.23836,-1.2375 0.23836,-3.2625 0,-4.5 z m -506.18464,36.28412 c -0.32832,-0.53123 -0.87079,-20.44373 -1.20548,-44.25 -0.3347,-23.80627 -0.68068,-48.45912 -0.76884,-54.78412 -0.20193,-14.4865 0.18348,-15.74664 4.65635,-15.22446 1.98505,0.23175 3.79158,1.1591 4.3468,2.23136 2.27044,4.38471 13.7838,24.59567 21.92795,38.4931 16.15432,27.56622 24.98819,43.48915 25.97157,46.81338 0.90011,3.04276 2.77732,0.71789 2.16227,-2.6779 -0.31235,-1.72452 -0.81949,-20.954 -1.12698,-42.73219 -0.62906,-44.55394 -0.93461,-42.62936 6.60743,-41.61776 2.24016,0.30047 4.35652,0.82981 4.70302,1.17631 0.3465,0.3465 0.72688,7.92184 0.84529,16.83408 0.11841,8.91224 0.50141,24.19158 0.85112,33.95408 0.47934,13.38117 0.34388,17.75 -0.55032,17.75 -0.81172,0 -0.87278,0.39459 -0.19343,1.25 0.54601,0.6875 1.23063,10.59033 1.5214,22.00631 l 0.52866,20.7563 -2.21522,0.55599 c -1.21837,0.30579 -4.42296,0.41545 -7.1213,0.24369 l -4.90608,-0.31229 -10.25722,-15.5 c -5.64147,-8.525 -12.08212,-18.2 -14.31255,-21.5 -15.66014,-23.16972 -18.31676,-27.6776 -16.90302,-28.68181 1.11012,-0.78853 1.02028,-0.87798 -0.4143,-0.41253 -1.00748,0.32689 -2.17667,0.59434 -2.5982,0.59434 -0.42153,0 -0.87865,6.4125 -1.01582,14.25 -0.13717,7.8375 -0.38893,18.975 -0.55947,24.75 -0.17053,5.775 -0.35161,13.33905 -0.40239,16.80901 -0.0654,4.46866 -0.42658,6.10244 -1.23817,5.60085 -0.80641,-0.49839 -0.94888,0.0766 -0.48095,1.94098 0.63536,2.53149 0.48901,2.64916 -3.29514,2.64916 -2.17802,0 -4.22866,-0.43465 -4.55698,-0.96588 z M 460,764.69848 c 0,-0.79254 -0.40186,-1.44098 -0.89301,-1.44098 -1.10376,0 -2.17899,2.59467 -1.39861,3.37504 0.87532,0.87532 2.29162,-0.32 2.29162,-1.93406 z m 44.95416,-0.52663 c -0.61391,-1.14711 -1.36033,-1.84151 -1.65872,-1.54313 -0.82426,0.82426 0.49605,3.62878 1.70836,3.62878 0.73956,0 0.72434,-0.63946 -0.0496,-2.08565 z m 17.7531,-29.1527 c -0.23919,-1.24391 -0.44398,-0.46165 -0.45508,1.73835 -0.0111,2.2 0.18461,3.21774 0.4349,2.26165 0.25029,-0.95608 0.25937,-2.75608 0.0202,-4 z m -36.78574,-3.51165 c -2.84553,-4.76034 -4.27624,-6.38699 -3.2983,-3.75 0.78433,2.11489 4.47951,7.5 5.1464,7.5 0.21642,0 -0.61522,-1.6875 -1.8481,-3.75 z m 36.76159,-2.4375 c -0.31922,-0.79774 -0.55618,-0.56078 -0.60416,0.60416 -0.0434,1.05417 0.19293,1.64479 0.52522,1.3125 0.33229,-0.33229 0.36781,-1.19479 0.0789,-1.91666 z M 625.25,798.49583 c -5.53161,-0.2487 -7.25,-0.6711 -7.25,-1.78214 0,-0.80091 -0.42522,-1.45619 -0.94494,-1.45619 -1.69896,0 -9.39509,-8.96597 -10.96772,-12.77736 -1.27189,-3.08254 -1.58741,-10.42642 -1.83491,-42.70943 -0.21053,-27.45982 0.0386,-39.87769 0.84271,-42 4.65252,-12.28002 8.20075,-16.51321 13.84122,-16.51321 2.015,0 4.25989,-0.5625 4.98864,-1.25 1.06,-1 1.41667,-1 1.78333,0 0.3378,0.92127 4.26271,1.25 14.92466,1.25 11.5023,0 15.12205,0.33895 17.66667,1.6543 4.9574,2.56256 10.66234,7.66206 10.68231,9.54864 0.0173,1.63716 1.11714,4.81406 3.29328,9.51297 0.74649,1.61188 0.67861,2.63475 -0.24902,3.75248 -0.77599,0.93501 -1.03609,2.73229 -0.66439,4.59082 0.55296,2.7648 0.2835,3.19103 -2.84338,4.49752 -5.1443,2.14943 -6.24431,1.81411 -7.56717,-2.30673 -2.32141,-7.23138 -6.15308,-14.33611 -8.5943,-15.93566 -1.7571,-1.1513 -5.24631,-1.68346 -12.16056,-1.85468 -12.05484,-0.29852 -17.18517,0.87472 -21.42073,4.89865 l -3.30692,3.14169 0.59288,33 c 0.55042,30.63681 0.74695,33.38869 2.74441,38.42788 2.33049,5.87936 2.41251,5.96294 9.45427,9.63435 6.53003,3.40461 11.93584,3.4356 18.73966,0.10743 7.91489,-3.87167 8.79109,-4.74088 12.95619,-12.85277 2.74026,-5.33687 4.35927,-7.40629 5.98283,-7.64725 2.52873,-0.3753 6.36469,2.5965 5.67419,4.39592 -0.25152,0.65547 -0.0679,2.91847 0.40809,5.02889 0.55191,2.44708 0.49248,4.28647 -0.16403,5.07753 -0.5662,0.68222 -0.75711,1.68106 -0.42425,2.21964 0.33286,0.53858 -0.5284,2.11284 -1.91391,3.49835 -1.38551,1.38552 -2.51911,2.911 -2.51911,3.38996 0,0.47897 -2.8125,3.13499 -6.25,5.90226 l -6.25,5.03141 -11,0.42534 c -6.05,0.23394 -14.2625,0.27867 -18.25,0.0994 z m 83.25,-0.21145 -3,-0.5463 -0.25076,-56.38692 c -0.18045,-40.57884 0.0641,-56.76634 0.87245,-57.74029 1.41143,-1.70067 7.49978,-1.77486 8.53245,-0.10398 0.42469,0.68717 0.63329,2.59967 0.46355,4.25 -0.16973,1.65034 0.0718,2.62506 0.53685,2.16606 0.465,-0.459 0.68854,-5.9715 0.49676,-12.25 -0.23945,-7.83888 -0.004,-11.41545 0.75,-11.41545 0.60428,0 1.13401,1.4625 1.17717,3.25 0.0432,1.7875 0.28137,10.1125 0.52935,18.5 0.29807,10.08185 0.10203,15.25 -0.57847,15.25 -0.56614,0 -1.06098,-1.9125 -1.09964,-4.25 -0.0386,-2.3375 -0.43105,-5.15 -0.872,-6.25 -0.44094,-1.1 -0.69879,22.14736 -0.573,51.66081 l 0.22871,53.66081 -2.10671,0.37578 c -1.15869,0.20668 -3.45671,0.12995 -5.10671,-0.17052 z m 44.73699,-0.27688 c -0.60443,-0.74961 -1.2713,-15.26106 -1.66586,-36.25 -0.36188,-19.25 -0.87288,-43.72636 -1.13556,-54.3919 -0.58154,-23.61267 -0.19235,-25.10318 6.55854,-25.118 2.47824,-0.005 12.15589,-0.0789 21.50589,-0.16323 18.72637,-0.16891 22.10117,0.27415 28,3.676 6.34687,3.66024 8.22149,6.35057 10.05642,14.43232 1.32634,5.84173 1.57123,10.34234 1.14267,21 -0.30001,7.46064 -1.08518,15.47893 -1.74484,17.81842 -1.48748,5.27546 -6.49979,9.21539 -15.8453,12.45523 -5.85161,2.02861 -8.49973,2.29116 -23.10895,2.29116 h -16.5 l 0.65035,12.5 c 0.35769,6.875 0.69519,16.6625 0.75,21.75 0.0918,8.52381 -0.0527,9.25 -1.84133,9.25 -1.06754,0 -2.2191,0.45 -2.55902,1 -0.85376,1.3814 -3.0515,1.25252 -4.26301,-0.25 z m 43.49428,-59.97198 c 4.37242,-2.08871 4.9682,-2.81821 7.16892,-8.77802 1.87447,-5.07628 2.40602,-8.50939 2.42679,-15.67383 0.0242,-8.34792 -0.20624,-9.4791 -2.55966,-12.56459 -3.18145,-4.17109 -7.96749,-5.73432 -17.88334,-5.8411 -4.06119,-0.0437 -11.07915,-0.38701 -15.59547,-0.76284 -4.51631,-0.37583 -8.56631,-0.56539 -9,-0.42126 -0.43368,0.14414 -0.67727,9.82491 -0.54132,21.51284 0.13596,11.68793 0.24846,21.53368 0.25,21.87946 0.002,0.34577 1.24031,1.1171 2.75281,1.71407 7.33591,2.89541 25.94913,2.29452 32.98127,-1.06473 z m -78.0646,56.55531 c -1.03737,-1.03737 -0.78384,-4.33333 0.33333,-4.33333 0.55,0 1,1.125 1,2.5 0,2.61806 -0.23099,2.93567 -1.33333,1.83333 z m 177.42759,-1.29151 c -2.32457,-0.56767 -2.34446,-0.64877 -0.58956,-2.40367 1.65531,-1.65531 1.8968,-1.67209 2.72651,-0.18949 1.32775,2.37256 0.59598,3.26054 -2.13695,2.59316 z M 718.9892,787.2575 c -0.0394,-0.825 -0.32548,-4.14336 -0.63575,-7.37413 -0.35494,-3.69579 -0.20312,-5.651 0.4094,-5.27244 1.46904,0.90792 2.46871,10.42148 1.30492,12.41859 -0.80589,1.38295 -1.02125,1.42847 -1.07857,0.22798 z M 549.53849,731.4284 c -0.40888,-30.41462 -0.47231,-55.57042 -0.14095,-55.90177 0.33135,-0.33136 0.92028,-0.28464 1.30874,0.10381 0.99429,0.99429 1.36242,106.26711 0.38089,108.92045 -0.44289,1.19725 -1.1398,-22.70787 -1.54868,-53.12249 z m -167.34354,50.3291 c 0.0204,-1.65 0.2445,-2.20394 0.49804,-1.23097 0.25354,0.97297 0.23687,2.32297 -0.0371,3 -0.27393,0.67703 -0.48137,-0.11903 -0.46099,-1.76903 z M 381.659,767.05151 c -0.90536,-17.44026 -0.77429,-26.3093 0.37187,-25.16314 0.96376,0.96375 1.58821,35.08338 0.6591,36.01249 -0.24457,0.24457 -0.7085,-4.63764 -1.03097,-10.84935 z M 381,727.69848 c 0,-6.90746 0.38844,-12.31895 0.86319,-12.02554 1.2125,0.74937 1.31299,24.58456 0.10366,24.58456 -0.57114,0 -0.96685,-5.1401 -0.96685,-12.55902 z m -155.768,0.55902 c 0,-1.925 0.2058,-2.7125 0.45733,-1.75 0.25152,0.9625 0.25152,2.5375 0,3.5 -0.25153,0.9625 -0.45733,0.175 -0.45733,-1.75 z m -0.0741,-6 c 0,-1.375 0.22698,-1.9375 0.50439,-1.25 0.27741,0.6875 0.27741,1.8125 0,2.5 -0.27741,0.6875 -0.50439,0.125 -0.50439,-1.25 z m -0.40192,-6.20934 c -0.25907,-1.76514 -0.12382,-4.35264 0.30055,-5.75 0.57937,-1.90776 0.79299,-1.10828 0.85753,3.20934 0.0949,6.34843 -0.43016,7.50032 -1.15808,2.54066 z m 156.43898,-8.29066 c 0.0204,-1.65 0.2445,-2.20394 0.49804,-1.23097 0.25354,0.97297 0.23687,2.32297 -0.0371,3 -0.27393,0.67703 -0.48137,-0.11903 -0.46099,-1.76903 z m 479.4989,-25.13948 c -0.79893,-0.79894 0.10419,-2.36052 1.36517,-2.36052 0.51754,0 0.94098,0.675 0.94098,1.5 0,1.54641 -1.17996,1.9867 -2.30615,0.86052 z m -311.0108,-9.11052 c -0.72198,-1.24483 -0.23906,-13.02827 0.56695,-13.83379 0.4125,-0.41225 0.75,2.70045 0.75,6.91712 0,7.21057 -0.28336,8.69878 -1.31695,6.91667 z m -168.59286,-5.2 c -0.0637,-3.14477 0.22185,-4.13796 0.97368,-3.38614 0.72424,0.72424 0.75303,2.14485 0.0902,4.45 l -0.97368,3.38614 z M 889.5,653.2575 c 0.33992,-0.55 0.81648,-1 1.05902,-1 0.24254,0 0.44098,0.45 0.44098,1 0,0.55 -0.47656,1 -1.05902,1 -0.58246,0 -0.7809,-0.45 -0.44098,-1 z m -509.5,-3 c 0,-1.1 0.45,-2 1,-2 0.55,0 1,0.9 1,2 0,1.1 -0.45,2 -1,2 -0.55,0 -1,-0.9 -1,-2 z m 167.58494,-2.74839 c -0.371,-0.37101 -15.16689,-0.71084 -32.87975,-0.75519 -55.18366,-0.13815 -130.73816,-1.74075 -131.38466,-2.78681 -0.3881,-0.62796 29.01284,-0.81275 83.03932,-0.5219 L 550,643.89547 v -7.51899 c 0,-8.77523 1.44449,-8.60612 2.67895,0.31362 l 0.82105,5.93261 68,-0.003 c 37.4,-0.002 71.75199,0.17671 76.33776,0.3963 16.86335,0.80748 6.38464,1.53508 -23.78091,1.65125 -23.12604,0.0891 -31.29938,0.43272 -32.22143,1.35476 -1.85249,1.8525 -3.83542,1.48859 -3.83542,-0.70388 0,-1.86415 -0.17761,-1.87878 -4.58352,-0.37754 -3.57246,1.21726 -5.12826,1.31357 -7.05303,0.43658 -1.74787,-0.79638 -10.27087,-0.93973 -29.16648,-0.49054 -14.68333,0.34904 -29.09258,0.54765 -32.02054,0.44133 -2.92796,-0.10632 -5.85296,0.22216 -6.5,0.72994 -1.52166,1.19417 -10.21153,2.3311 -11.09149,1.45115 z m 159.82115,-3.40356 c -0.28827,-0.46643 0.81563,-0.84805 2.45311,-0.84805 1.63747,0 3.75043,-0.29671 4.69546,-0.65935 1.14899,-0.44091 1.57688,-0.23527 1.29155,0.6207 -0.48131,1.44393 -7.63147,2.19511 -8.44012,0.8867 z M 329,632.7575 c 0,-0.91667 0.48375,-1.50542 1.075,-1.30834 0.59125,0.19709 1.075,0.78584 1.075,1.30834 0,0.5225 -0.48375,1.11125 -1.075,1.30833 -0.59125,0.19708 -1.075,-0.39167 -1.075,-1.30833 z m 51.232,-3.5 c 0,-1.925 0.2058,-2.7125 0.45733,-1.75 0.25152,0.9625 0.25152,2.5375 0,3.5 -0.25153,0.9625 -0.45733,0.175 -0.45733,-1.75 z m -157.15305,-2.58334 c 0.048,-1.16494 0.28494,-1.4019 0.60416,-0.60416 0.28887,0.72187 0.25335,1.58437 -0.0789,1.91666 -0.3323,0.33229 -0.56864,-0.25833 -0.52522,-1.3125 z m 9.62526,-28.05889 c -1.81632,-3.55859 -3.38417,-42.21874 -1.82994,-45.12285 0.5424,-1.01348 0.61627,-2.44121 0.16417,-3.17273 -0.45211,-0.73152 -0.46056,-2.59036 -0.0188,-4.13075 0.58075,-2.02495 0.47105,-2.67324 -0.39604,-2.34051 -0.86202,0.33079 -1.21334,-1.58584 -1.24925,-6.81536 -0.0439,-6.39049 -1.46408,-50.46666 -1.762,-54.68472 -0.0919,-1.30117 0.88913,-1.54823 5.38763,-1.35676 3.025,0.12875 17.875,0.73699 33,1.35165 15.125,0.61465 27.86752,1.46183 28.31672,1.88262 0.4492,0.42079 0.8992,3.63755 1,7.14836 l 0.18328,6.38328 -25.85061,0.10377 c -20.93421,0.084 -26.02517,0.36931 -26.76848,1.5 -1.02491,1.55906 -0.86615,32.78732 0.16995,33.42766 0.36235,0.22394 4.7795,0.47294 9.81589,0.55332 12.04502,0.19223 14.13325,1.60281 14.13325,9.54684 0,3.01754 -0.39901,5.23984 -0.88669,4.93843 -0.48768,-0.3014 -1.44278,0.12204 -2.12245,0.94099 -0.94828,1.14261 -3.63612,1.48899 -11.55429,1.48899 -10.38247,0 -12.70218,0.7701 -10.4595,3.47236 0.69092,0.83252 1.28,6.49795 1.47713,14.2062 0.18034,7.05179 0.37692,13.5984 0.43684,14.54802 0.0981,1.55362 1.18586,1.67831 10.85896,1.24464 31.22336,-1.39981 38.36772,-1.32905 39.01673,0.38641 0.34175,0.9033 1.20904,2.23701 1.92732,2.96379 1.8526,1.87456 1.61751,6.51333 -0.45096,8.8983 -2.19169,2.52703 -6.26278,3.03441 -30.24309,3.76914 -10.175,0.31176 -21.27586,0.8278 -24.66859,1.14676 -6.01991,0.56596 -6.20374,0.51106 -7.6272,-2.27785 z M 292,594.2575 c 0,-0.55 -0.70156,-1 -1.55902,-1 -0.85746,0 -1.2809,0.45 -0.94098,1 0.33992,0.55 1.04148,1 1.55902,1 0.51754,0 0.94098,-0.45 0.94098,-1 z m -33.08333,-7.63759 c 0.22916,-0.19933 -2.24584,-0.35552 -5.5,-0.3471 -3.75877,0.01 -5.41431,0.3335 -4.53927,0.88775 1.2347,0.78206 8.9993,0.3639 10.03927,-0.54065 z M 264,586.2575 c 0,-0.55 -0.47656,-1 -1.05902,-1 -0.58246,0 -0.7809,0.45 -0.44098,1 0.33992,0.55 0.81648,1 1.05902,1 0.24254,0 0.44098,-0.45 0.44098,-1 z m 7.5,0 c 0.35191,-0.56941 -0.50929,-1 -2,-1 -1.49071,0 -2.35191,0.43059 -2,1 0.33992,0.55 1.23992,1 2,1 0.76008,0 1.66008,-0.45 2,-1 z m 15.0838,-0.25 c 0.41225,-0.4125 -1.91297,-0.74311 -5.16713,-0.73469 -3.32838,0.009 -5.36758,0.36393 -4.66148,0.81222 1.56467,0.9934 8.81552,0.9362 9.82861,-0.0775 z m -44.97963,-52.47917 c -1.01652,-1.01652 -1.85525,0.51389 -1.02122,1.86338 0.63003,1.01942 0.86558,1.02021 1.2043,0.004 0.2316,-0.69478 0.14921,-1.53512 -0.18308,-1.86741 z m 93.80273,65.36604 c -11.41475,-2.86834 -18.08504,-10.29088 -19.2176,-21.38488 -0.37912,-3.7136 -0.25874,-8.21449 0.2675,-10.00199 0.83111,-2.8231 1.3935,-3.25 4.28138,-3.25 2.30111,0 3.48499,0.53873 3.84564,1.75 1.36215,4.57495 5.02383,10.54649 7.58547,12.37054 5.95801,4.24248 17.82461,5.92525 23.33716,3.30937 5.71496,-2.71193 7.8368,-7.9501 7.23727,-17.86667 -1.01169,-16.73394 -6.79817,-22.02339 -25.78065,-23.56625 -12.3374,-1.00275 -13.9431,-1.61059 -16.90201,-6.3982 -5.54663,-8.97464 -6.27994,-20.98545 -2.06512,-33.82445 4.81482,-14.66665 7.63065,-16.27434 28.50406,-16.27434 12.70222,0 15.58309,0.28963 18.80645,1.89072 6.09189,3.02595 9.0432,7.7367 9.51793,15.19212 0.38598,6.06174 0.25944,6.48719 -2.85626,9.60288 l -3.26013,3.26013 -1.60399,-2.47293 c -4.13377,-6.37315 -9.09301,-10.60421 -14.38413,-12.2721 -2.96761,-0.93545 -6.75206,-1.70082 -8.40988,-1.70082 -4.77153,0 -9.42669,3.87799 -13.04458,10.86682 -4.05163,7.8267 -4.2804,12.77348 -0.78294,16.92997 l 2.48247,2.95025 14.26753,0.48846 c 15.15069,0.51869 17.7029,1.11811 21.93649,5.15205 4.30131,4.09846 5.83104,11.41824 5.83104,27.90152 0,16.62498 -1.33386,22.40442 -6.58732,28.5419 -6.74105,7.87541 -21.27619,11.75336 -33.00578,8.8059 z m 12.32227,-13.24104 c -0.33229,-0.33229 -1.1948,-0.36782 -1.91667,-0.0789 -0.79773,0.31923 -0.56078,0.55618 0.60417,0.60417 1.05416,0.0434 1.64479,-0.19293 1.3125,-0.52522 z M 425,598.95936 c -0.275,-0.26031 -3.49036,-0.70866 -7.14526,-0.99634 -7.05556,-0.55534 -9.38169,-1.40004 -12.01445,-4.3629 -2.8731,-3.23334 -6.05971,-9.70991 -6.31037,-12.82541 -0.13352,-1.65947 -0.63791,-5.94221 -1.12089,-9.51721 -0.48297,-3.575 -0.80128,-8.975 -0.70734,-12 0.3813,-12.27831 0.11111,-16.59777 -1.16079,-18.55796 -0.93731,-1.44454 -1.03978,-2.5861 -0.34378,-3.8298 0.54537,-0.97451 0.71204,-3.87343 0.37038,-6.44204 -1.65992,-12.47952 -1.63885,-13.998 0.31828,-22.92807 2.93374,-13.38621 10.417,-23.20178 17.67527,-23.18412 1.61642,0.004 8.18955,-0.0355 14.60696,-0.0876 13.67663,-0.11104 17.4966,1.25711 23.05085,8.25581 3.9145,4.93252 5.43703,8.15048 7.41291,15.66765 1.28309,4.88151 1.2582,5.57021 -0.26199,7.25 -0.96156,1.06252 -3.03144,1.85612 -4.84115,1.85612 -2.79849,0 -3.63596,-0.74439 -7.29551,-6.4846 -6.36235,-9.9797 -12.78209,-12.78883 -23.93516,-10.47346 -6.93631,1.43997 -11.23695,5.39591 -13.68877,12.59162 -3.15772,9.2674 -1.94641,42.8871 2.2006,61.07719 1.03328,4.53226 6.45975,12.20993 8.77424,12.41425 9.54651,0.84275 14.02282,-0.0819 18.45612,-3.81224 2.97301,-2.50162 9.95985,-15.5913 9.95985,-18.65954 0,-1.99139 2.63886,-2.8116 6.63424,-2.06206 3.3385,0.6263 3.36576,0.67615 3.36576,6.15411 0,3.03748 -0.42954,7.1499 -0.95453,9.13871 -0.525,1.98881 -1.18783,4.74102 -1.47296,6.11602 -0.79991,3.85742 -9.62083,12.40427 -14.16161,13.7216 -4.48601,1.30145 -16.66469,2.68661 -17.4109,1.98026 z m 21.01328,-19.73393 c 1.77479,-4.28471 0.68738,-4.66045 -1.31788,-0.45538 -0.91467,1.9181 -1.27492,3.48745 -0.80054,3.48745 0.47437,0 1.42766,-1.36443 2.11842,-3.03207 z M 398.68311,557.07 c -0.31922,-0.79774 -0.55618,-0.56078 -0.60416,0.60416 -0.0434,1.05417 0.19293,1.64479 0.52522,1.3125 0.33229,-0.33229 0.36781,-1.19479 0.0789,-1.91666 z M 411,506.51261 c 0,-1.21995 -0.28005,-1.26758 -1.5,-0.25511 -0.825,0.68468 -1.5,1.91989 -1.5,2.74489 0,1.21995 0.28005,1.26757 1.5,0.25511 0.825,-0.68469 1.5,-1.91989 1.5,-2.74489 z m 91.75,92.10742 c -0.9625,-0.28005 -1.75,-0.89129 -1.75,-1.35831 0,-0.46701 -1.6875,-1.40229 -3.75,-2.07838 -5.60609,-1.83769 -9.94632,-5.58637 -12.48243,-10.78113 -1.24716,-2.55459 -2.85595,-5.26524 -3.57508,-6.02365 -0.75188,-0.79296 -0.9937,-2.06781 -0.56906,-3 0.40615,-0.89159 0.5731,-2.97106 0.371,-4.62106 -0.20211,-1.65 -0.39603,-16.275 -0.43095,-32.5 -0.0613,-28.47858 0.0196,-29.75969 2.3363,-37 3.94282,-12.32247 8.35331,-15.66277 21.10022,-15.98034 9.77104,-0.24343 8.90853,-0.26143 13.5,0.28176 11.57579,1.36947 18.27035,6.23204 20.50245,14.8919 0.61053,2.36867 1.51003,5.65668 1.99889,7.30668 1.8772,6.3359 4.27113,41.84137 3.57348,53 -1.1066,17.69972 -1.35742,19.34564 -3.64651,23.92908 -2.67962,5.36544 -5.60322,8.58769 -10.59596,11.67836 -3.32247,2.05672 -5.22933,2.39843 -14.33235,2.56832 -5.775,0.10778 -11.2875,-0.0332 -12.25,-0.31323 z m 21.41478,-14.11253 c 3.53006,-2.07766 6.06571,-5.92676 8.39923,-12.75 1.47845,-4.32303 1.62401,-7.57251 1.07508,-24 -0.75857,-22.70127 -1.82282,-31.41318 -4.60485,-37.69514 -3.62223,-8.17916 -9.75395,-11.27242 -21.07685,-10.63261 -7.87373,0.4449 -10.96461,2.50151 -14.01865,9.32775 -4.03908,9.02793 -3.32405,43.41704 1.27663,61.39877 2.29191,8.95793 6.2356,14.47905 10.99295,15.39003 6.09999,1.16808 15.09053,0.64797 17.95646,-1.0388 z M 517,508.2575 c 0,-0.55 0.45,-1 1,-1 0.55,0 1,0.45 1,1 0,0.55 -0.45,1 -1,1 -0.55,0 -1,-0.45 -1,-1 z m 21.78776,72.86329 c -0.24965,-0.74895 -0.70294,-0.29566 -1.05655,1.05655 -0.43497,1.66334 -0.30483,2.05377 0.43724,1.31171 0.5811,-0.58111 0.85979,-1.64682 0.61931,-2.36826 z M 496.03297,501.7575 c 1.35701,-1.85001 1.33579,-1.89708 -0.28297,-0.62756 -0.9625,0.75484 -1.75,1.84234 -1.75,2.41667 0,0.57432 0.12734,0.85672 0.28297,0.62755 0.15563,-0.22916 0.94313,-1.31666 1.75,-2.41666 z m 422.62208,96.26531 c -0.63528,-0.40408 -2.24051,-0.74158 -3.56719,-0.75 -4.1354,-0.0263 -10.70654,-4.67439 -13.86495,-9.80746 -3.88941,-6.32109 -4.67119,-8.96279 -3.18308,-10.75584 0.947,-1.14107 0.91115,-1.80606 -0.16739,-3.10529 -1.09023,-1.31332 -1.40277,-7.97993 -1.51992,-32.42077 l -0.14747,-30.76749 3.33267,-9.69579 c 1.83296,-5.33269 4.37433,-10.84395 5.64747,-12.24725 7.10386,-7.83007 9.73259,-9.52515 13.35976,-8.61479 1.28776,0.32321 2.86913,0.26149 3.51416,-0.13716 1.93063,-1.1932 20.06466,-0.44067 23.37201,0.9699 6.63491,2.82977 9.70878,8.56608 12.60994,23.53208 1.63098,8.41362 1.80112,13.10913 1.37937,38.06601 -0.59214,35.03998 -1.8019,43.05959 -7.35942,48.78623 -5.38131,5.54508 -13.58497,8.25561 -24.01661,7.93521 -4.52886,-0.1391 -8.75407,-0.58351 -9.38935,-0.98759 z M 938,581.72266 c 8.32348,-4.24542 10.47195,-14.46169 9.66643,-45.96516 -0.66068,-25.83833 -1.15409,-28.16726 -7.24491,-34.19657 -3.09017,-3.05896 -11.6199,-5.67429 -16.41061,-5.03172 -8.11349,1.08824 -11.98012,6.34121 -13.93567,18.93214 -1.2589,8.10551 -1.71401,41.931 -0.64308,47.79615 1.10968,6.07735 4.77113,14.0212 7.68279,16.6685 4.60452,4.18645 14.52625,5.03998 20.88505,1.79666 z M 922,499.2575 c 0,-0.55 0.47656,-1 1.05902,-1 0.58246,0 0.7809,0.45 0.44098,1 -0.33992,0.55 -0.81648,1 -1.05902,1 -0.24254,0 -0.44098,-0.45 -0.44098,-1 z m 34.98469,69.25 c -0.0109,-4.0814 -0.29662,-5.31472 -0.98469,-4.25 -1.65516,2.56118 -1.15924,10 0.66667,10 0.18333,0 0.32644,-2.5875 0.31802,-5.75 z m 0.27611,-12.3607 c -0.74384,-2.84447 -1.26263,-2.27769 -1.24549,1.3607 0.0104,2.20964 0.29129,2.81442 0.87743,1.8893 0.47417,-0.74839 0.6398,-2.21089 0.36806,-3.25 z M 906.68311,543.07 c -0.31922,-0.79774 -0.55618,-0.56078 -0.60416,0.60416 -0.0434,1.05417 0.19293,1.64479 0.52522,1.3125 0.33229,-0.33229 0.36781,-1.19479 0.0789,-1.91666 z M 942,498.2575 c -3.21867,-2.42785 -4.0099,-1.63905 -0.89166,0.88891 1.31541,1.06641 2.60994,1.72189 2.87672,1.45661 0.26678,-0.26527 -0.62649,-1.32076 -1.98506,-2.34552 z m -379.5416,96.75 c 0.60987,-2.76378 1.42617,-49.01172 1.4925,-84.55902 0.0388,-20.79112 0.31127,-26.14387 1.2991,-25.5216 1.72642,1.08754 12.95834,0.37276 14.54238,-0.92545 0.91658,-0.75118 1.629,-0.72256 2.45,0.0984 1.45022,1.45022 4.47401,1.50844 4.94508,0.0952 0.24996,-0.74985 1.17617,-0.74985 3.14844,0 1.53686,0.58432 4.53845,1.0624 6.67018,1.0624 2.13174,0 4.16751,0.47185 4.52393,1.04855 0.44373,0.71797 1.08881,0.68276 2.04603,-0.11166 3.35808,-2.78696 12.54427,3.17964 16.71983,10.85982 5.249,9.65459 8.60655,31.37953 5.27674,34.14302 -0.86493,0.71784 -1.58472,1.81255 -1.59951,2.43271 -0.0886,3.71387 -13.90743,13.62756 -18.99564,13.62756 -1.09108,0 -1.97746,0.67236 -1.97746,1.5 0,0.825 0.39974,1.5 0.8883,1.5 2.55888,0 16.1117,27.77746 16.1117,33.02207 0,0.61017 0.53703,2.09232 1.1934,3.29367 0.65636,1.20134 1.28869,3.87176 1.40517,5.93426 l 0.21178,3.75 h -4.68294 c -5.51714,0 -7.21576,-1.53312 -9.63053,-8.6922 -0.89192,-2.64429 -2.2686,-5.80447 -3.05928,-7.02262 -1.64289,-2.5311 -1.93358,-5.70975 -0.4376,-4.78518 1.66087,1.02647 1.1165,-2.79858 -0.8539,-6 C 599.4932,562.19765 587,550.88514 587,554.23182 c 0,0.56412 0.369,1.02568 0.82,1.02568 1.75271,0 9.03264,7.13966 12.68047,12.43616 5.56512,8.0803 3.6868,7.85426 -2.2406,-0.26964 -5.29733,-7.26035 -11.62239,-11.75765 -20.01632,-14.23217 -4.55166,-1.34182 -6.53701,-0.70326 -4.12254,1.32598 1.22298,1.02784 1.38137,3.68375 0.927,15.54347 -0.30141,7.8671 -0.19753,14.65258 0.23084,15.07885 0.42837,0.42628 0.47891,3.32706 0.11232,6.4462 l -0.66653,5.67115 h -6.38137 c -6.09817,0 -6.35934,-0.0999 -5.88487,-2.25 z M 574,592.7575 c 0,-0.825 -0.40186,-1.5 -0.89301,-1.5 -0.49116,0 -1.15203,0.675 -1.46862,1.5 -0.35062,0.91371 -0.002,1.5 0.89301,1.5 0.80774,0 1.46862,-0.675 1.46862,-1.5 z m 29.25,-48.16229 c -0.6875,-0.27741 -1.8125,-0.27741 -2.5,0 -0.6875,0.27742 -0.125,0.50439 1.25,0.50439 1.375,0 1.9375,-0.22697 1.25,-0.50439 z m 17.66277,-9.58771 c 1.68345,-2.66808 0.82363,-2.11518 -2.9666,1.90765 -2.73177,2.89941 -2.89593,3.26219 -0.79187,1.75 1.45986,-1.04921 3.15118,-2.69515 3.75847,-3.65765 z m -22.82268,-1.58417 C 609.18128,530.89663 615,525.29885 615,517.15548 c 0,-2.62897 -0.45,-5.05807 -1,-5.39798 -0.55,-0.33992 -1,-1.40729 -1,-2.37193 0,-1.85782 -4.15144,-6.21614 -7.5,-7.87374 -4.53721,-2.24601 -12.76074,-3.45941 -18.95189,-2.79639 -9.37308,1.00377 -9.60078,1.30884 -10.13352,13.57651 -0.24997,5.75605 -0.64786,12.27563 -0.88421,14.48796 -0.23635,2.21232 -0.0606,4.61976 0.39068,5.34986 1.84385,2.98341 12.11935,3.58298 22.16903,1.29356 z M 607,534.2575 c 0,-0.55 -0.42344,-1 -0.94098,-1 -0.51754,0 -1.2191,0.45 -1.55902,1 -0.33992,0.55 0.0835,1 0.94098,1 0.85746,0 1.55902,-0.45 1.55902,-1 z m 6.80687,-6.52647 c -0.30789,-0.30788 -0.86705,0.24712 -1.24258,1.23334 -0.54268,1.4252 -0.42782,1.54006 0.5598,0.55979 0.68342,-0.67833 0.99067,-1.48524 0.68278,-1.79313 z M 576.7715,497.69566 c -0.3352,-0.3352 -1.14849,0.44158 -1.80729,1.72619 -1.14512,2.23286 -1.1183,2.25968 0.60945,0.60946 0.99401,-0.94941 1.53304,-2.00045 1.19784,-2.33565 z m 118.42775,98.59312 c -4.00106,-0.96906 -3.39471,-0.28375 -6.6636,-7.53128 -6.36427,-14.11039 -13.87943,-30.05717 -14.49926,-30.7667 -0.36838,-0.42168 -1.90958,2.05332 -3.4249,5.5 -1.51532,3.44668 -3.15672,6.9417 -3.64755,7.7667 -0.49084,0.825 -2.76526,5.09188 -5.05429,9.48196 -2.28902,4.39008 -4.74828,8.44008 -5.46501,9 -0.71674,0.55992 -1.44749,2.14304 -1.6239,3.51804 -0.24523,1.91147 -0.99343,2.57693 -3.17823,2.82679 C 647.96775,596.50455 643,594.4509 643,592.51152 c 0,-0.82684 5.45218,-12.41107 12.11597,-25.74273 l 12.11596,-24.23939 -3.11596,-6.52892 C 662.40218,532.40957 661,529.16132 661,528.78214 c 0,-0.89336 -5.51493,-13.5983 -8.67724,-19.99007 -5.7524,-11.62695 -7.77827,-21.08172 -5.00953,-23.37957 0.75552,-0.62702 2.89841,-0.83264 5.04583,-0.48416 4.32082,0.70117 3.91911,0.075 14.00354,21.82916 3.8244,8.25 7.04011,16.47027 7.14603,18.26727 0.26313,4.46394 1.22076,5.07862 2.52607,1.62141 0.59987,-1.58877 5.38286,-11.5918 10.62887,-22.22893 8.60339,-17.44476 9.74883,-19.28374 11.68732,-18.76366 1.18201,0.31713 3.10025,0.58274 4.26275,0.59025 1.81174,0.0117 2.11912,0.62069 2.15202,4.26366 0.031,3.43225 -1.90729,8.13268 -10.07374,24.42916 -5.56167,11.09854 -10.42562,19.98542 -10.80877,19.74862 -0.38315,-0.2368 -0.4744,0.41929 -0.20277,1.45798 0.27162,1.03868 0.005,2.19086 -0.59326,2.56039 -1.67608,1.03588 -1.33023,2.8858 1.81986,9.73408 1.59884,3.47587 4.93293,11.04477 7.4091,16.81977 2.47616,5.775 5.64023,13.03748 7.03125,16.13885 1.39103,3.10136 2.66943,7.82636 2.8409,10.5 0.34805,5.42676 -0.50497,5.96286 -6.98898,4.39243 z M 646,591.19848 c 0,-1.13246 -0.45,-1.7809 -1,-1.44098 -0.55,0.33991 -1,1.26647 -1,2.05901 0,0.79254 0.45,1.44099 1,1.44099 0.55,0 1,-0.92656 1,-2.05902 z m 34.6,-47.54098 c -0.35589,-0.92745 -0.87208,-1.46126 -1.14708,-1.18626 -0.275,0.275 -0.20881,1.25881 0.14708,2.18626 0.35589,0.92744 0.87208,1.46125 1.14708,1.18625 0.275,-0.275 0.20881,-1.25881 -0.14708,-2.18625 z m 15.35622,-34.76607 c 1.72974,-3.22634 2.93688,-6.07417 2.68254,-6.32851 -0.56537,-0.56537 -5.09333,7.06844 -6.64003,11.19458 -1.61584,4.31062 0.3016,1.95297 3.95749,-4.86607 z m 126.25466,87.51639 c -5.72888,-0.44946 -8.58117,-1.11362 -9.23468,-2.15032 -0.52007,-0.825 -0.96233,-9.15 -0.9828,-18.5 -0.0205,-9.35 -0.13987,-33.73959 -0.26532,-54.19909 -0.17303,-28.2204 0.0668,-37.49417 0.99355,-38.42163 1.87843,-1.87984 26.92424,-2.45334 35.66293,-0.81662 3.91349,0.73298 7.66412,1.80624 8.33473,2.38502 0.67061,0.57877 3.44308,2.61179 6.16106,4.5178 5.07999,3.56242 5.16134,3.71354 8.63146,16.03452 1.51527,5.38008 3.71003,31.68338 3.02161,36.21281 -0.19119,1.25795 -0.62304,7.46219 -0.95967,13.78719 -1.49718,28.13123 -5.14993,36.50341 -17.45612,40.00987 -4.70547,1.34076 -23.35728,1.9681 -33.90675,1.14045 z M 845,584.2575 c 1.09851,-0.70992 0.36246,-0.97348 -2.75,-0.98469 -2.3375,-0.008 -4.25,0.43469 -4.25,0.98469 0,1.27601 5.02551,1.27601 7,0 z m 8.57972,-5.54729 c 2.24385,-1.28559 4.54742,-2.92588 5.11904,-3.64508 4.49819,-5.65945 6.8854,-52.8006 3.29588,-65.08497 -1.4075,-4.81687 -6.1892,-10.27111 -11.28275,-12.86965 -5.60405,-2.85897 -20.71923,-3.73066 -26.02986,-1.50114 l -3.81798,1.60288 0.53912,17.77262 c 0.29652,9.77494 0.53274,28.65337 0.52493,41.95205 l -0.0142,24.17942 2.79305,0.45456 c 1.53618,0.25001 7.74305,0.23455 13.79305,-0.0343 9.13016,-0.4058 11.69349,-0.88623 15.07972,-2.82635 z M 837,525.2575 c 0,-0.55 0.45,-1 1,-1 0.55,0 1,0.45 1,1 0,0.55 -0.45,1 -1,1 -0.55,0 -1,-0.45 -1,-1 z m 26.23897,46.53026 c 0.25966,-1.35836 0.0871,-2.2318 -0.38343,-1.94099 -0.82856,0.51208 -1.24587,4.41073 -0.47212,4.41073 0.21089,0 0.59588,-1.11139 0.85555,-2.46974 z M 873,549.2575 c 0,-0.55 -0.45,-1 -1,-1 -0.55,0 -1,0.45 -1,1 0,0.55 0.45,1 1,1 0.55,0 1,-0.45 1,-1 z m -0.90232,-13.71858 c -0.90968,-1.56291 -1.04059,-1.46454 -1.06727,0.80191 -0.0167,1.42083 0.30709,2.9237 0.71959,3.33971 1.20134,1.21155 1.48648,-2.18508 0.34768,-4.14162 z m 151.83842,56.45596 c -2.5102,-2.88056 -7.4409,-9.06238 -10.9572,-13.73738 -9.6892,-12.88215 -14.86351,-18.76557 -18.45667,-20.98627 -1.79206,-1.10755 -3.5141,-2.01373 -3.82675,-2.01373 -0.74995,0 0.22,36.05422 1.00408,37.32289 0.3333,0.53928 -0.16498,1.54426 -1.10728,2.23329 -2.22141,1.62433 -11.56382,1.73008 -12.101,0.13697 -0.22128,-0.65624 -0.6281,-25.87585 -0.90405,-56.04358 -0.56044,-61.26886 -0.79966,-58.95629 6.23496,-60.276 1.9952,-0.3743 4.17535,-1.22826 4.84478,-1.89769 0.81622,-0.81622 3.62432,-1.08299 8.52508,-0.80988 26.32105,1.46681 35.41165,9.56564 37.41605,33.334 0.6513,7.72295 -1.197,16.43669 -5.0783,23.94233 -3.6553,7.06862 -12.3921,13.16443 -20.8534,14.54985 l -3.8236,0.62606 4.6335,4.07857 c 5.9527,5.23984 14.9322,17.05488 21.9685,28.90596 5.9211,9.97279 6.4435,11.85607 3.9738,14.3258 -3.0585,3.05846 -6.6028,1.9201 -11.4925,-3.69119 z M 1035,591.81651 c 0,-0.24254 -0.45,-0.7191 -1,-1.05901 -0.55,-0.33992 -1,-0.14148 -1,0.44098 0,0.58246 0.45,1.05902 1,1.05902 0.55,0 1,-0.19845 1,-0.44099 z m -10,-16.55901 c -0.5887,-1.1 -1.2954,-2 -1.5704,-2 -0.275,0 -0.018,0.9 0.5704,2 0.5887,1.1 1.2954,2 1.5704,2 0.275,0 0.018,-0.9 -0.5704,-2 z m -5,-7.37756 c 0,-0.20766 -0.7875,-0.99516 -1.75,-1.75 -1.5861,-1.24387 -1.6214,-1.2085 -0.3776,0.37756 1.3064,1.66574 2.1276,2.19547 2.1276,1.37244 z M 988.66228,552.0075 c -0.27741,-0.6875 -0.50439,-0.125 -0.50439,1.25 0,1.375 0.22698,1.9375 0.50439,1.25 0.27741,-0.6875 0.27741,-1.8125 0,-2.5 z m 22.96692,-20.05828 c 4.2323,-2.18857 8.4788,-8.78354 9.589,-14.8921 0.5197,-2.85911 1.6855,-5.73995 2.5908,-6.40188 1.5237,-1.11416 1.5157,-1.45197 -0.1071,-4.55062 -1.4503,-2.76924 -1.6694,-2.91407 -1.269,-0.83882 0.2661,1.37957 0.128,3.0841 -0.3069,3.78784 -0.4988,0.80702 -1.2468,-0.75824 -2.0257,-4.23868 -1.403,-6.26897 -3.6225,-8.52462 -10.9081,-11.08547 -2.5807,-0.90712 -5.4736,-2.05941 -6.4286,-2.56065 -2.6609,-1.39651 -12.48468,-1.13874 -12.90661,0.33866 -0.19635,0.6875 -0.21852,10.3346 -0.0493,21.43801 0.35371,23.20574 -0.92706,20.95078 11.75581,20.69739 4.1655,-0.0832 8.2952,-0.77809 10.0657,-1.69368 z m 7.7873,-3.33485 c 0.9188,-2.3941 0.2027,-2.57795 -1.2128,-0.3114 -0.6714,1.07499 -0.815,1.95453 -0.3192,1.95453 0.4959,0 1.1853,-0.73941 1.532,-1.64313 z m -238.26774,66.73506 c -0.55275,-0.34162 -0.92684,-1.28956 -0.8313,-2.10653 0.0955,-0.81697 -1.01319,-5.3104 -2.46383,-9.9854 -1.45064,-4.675 -3.66831,-12.20638 -4.92816,-16.73641 -1.25984,-4.53002 -2.64177,-8.80502 -3.07095,-9.5 -1.24763,-2.0203 -23.06129,-1.15118 -24.90716,0.99237 -0.35239,0.40922 -1.36236,4.34404 -2.24439,8.74404 -2.76055,13.77099 -5.69365,26.82401 -6.12432,27.25468 -0.86616,0.86616 -8.56415,1.46455 -10.28099,0.79917 -1.70335,-0.66014 -1.69583,-0.77164 0.14347,-2.12527 1.74991,-1.28785 1.76872,-1.42858 0.19098,-1.42858 -0.96258,0 -1.54368,-0.3375 -1.29134,-0.75 0.41764,-0.6827 5.9083,-26.14023 7.71054,-35.75 0.41259,-2.2 1.50555,-7.15 2.42879,-11 4.54618,-18.95788 5.639,-24.2561 5.61252,-27.21072 -0.0158,-1.76589 0.34949,-3.44449 0.81179,-3.73021 0.46231,-0.28572 2.33019,-6.64691 4.15085,-14.13599 2.68197,-11.03195 3.74874,-13.90378 5.62023,-15.13003 3.15022,-2.0641 6.82077,-0.96272 8.14583,2.44423 1.54913,3.98305 5.26883,16.41342 5.61461,18.76272 0.1619,1.1 0.74693,3.125 1.30006,4.5 1.06016,2.63541 3.4988,10.58628 7.82117,25.5 1.43464,4.95 3.01466,10.35 3.51116,12 0.49651,1.65 3.10717,10.65 5.80147,20 2.6943,9.35 5.71691,19.1214 6.71691,21.71422 1,2.59283 1.5776,4.95481 1.28355,5.24885 -0.94452,0.94453 -9.68114,2.27184 -10.72149,1.62886 z M 736,590.2575 c 0,-0.55 -0.19844,-1 -0.44098,-1 -0.24254,0 -0.7191,0.45 -1.05902,1 -0.33992,0.55 -0.14148,1 0.44098,1 0.58246,0 1.05902,-0.45 1.05902,-1 z m 1.96937,-10 c 0,-1.33334 -0.1077,-1.33334 -0.96937,0 -0.53316,0.825 -0.96937,2.175 -0.96937,3 0,1.33333 0.1077,1.33333 0.96937,0 0.53316,-0.825 0.96937,-2.175 0.96937,-3 z m 1.88117,-8.83032 c 0.7078,-3.15019 0.6565,-4.17351 -0.1952,-3.89374 -0.63544,0.20872 -1.2989,2.36308 -1.47435,4.78746 -0.38552,5.32686 0.36176,4.92685 1.66955,-0.89372 z m 1.53102,-7.72162 c 0.34149,-0.88993 0.17385,-1.29132 -0.39301,-0.94099 -0.5437,0.33603 -0.98855,1.0344 -0.98855,1.55194 0,1.43843 0.71677,1.12147 1.38156,-0.61095 z M 745,555.19848 c 0,-0.51754 -0.45,-0.94098 -1,-0.94098 -0.55,0 -1,0.70155 -1,1.55901 0,0.85746 0.45,1.2809 1,0.94099 0.55,-0.33992 1,-1.04148 1,-1.55902 z m 18.85607,-13.51576 c 0.87075,-0.28501 1.13789,-1.24577 0.74644,-2.68454 -0.3353,-1.23238 -1.9867,-7.19068 -3.66979,-13.24068 -1.68308,-6.05 -3.36898,-12.8 -3.74644,-15 -0.95579,-5.57081 -2.54756,-4.82842 -3.42138,1.5957 -0.4043,2.97236 -1.16683,7.2043 -1.69451,9.4043 -3.26665,13.61941 -4.2276,18.64793 -3.78435,19.80301 0.36472,0.95044 2.36505,1.20484 7.35743,0.93571 3.77109,-0.2033 7.46676,-0.56937 8.2126,-0.8135 z m 263.81063,18.90811 c -0.3667,-0.36667 -0.6508,-2.05417 -0.6313,-3.75 l 0.035,-3.08333 1.4291,2.5 c 2.1462,3.75439 1.5723,6.73892 -0.8333,4.33333 z M 379,553.81651 c 0,-0.85746 0.45,-1.55901 1,-1.55901 0.55,0 1,0.42344 1,0.94098 0,0.51754 -0.45,1.2191 -1,1.55902 -0.55,0.33991 -1,-0.0835 -1,-0.94099 z m 17.07895,-3.14235 c 0.048,-1.16494 0.28494,-1.4019 0.60416,-0.60416 0.28887,0.72187 0.25335,1.58437 -0.0789,1.91666 -0.33229,0.33229 -0.56864,-0.25833 -0.52522,-1.3125 z M 1059,549.2575 c 0,-0.55 0.4766,-1 1.059,-1 0.5825,0 0.7809,0.45 0.441,1 -0.3399,0.55 -0.8165,1 -1.059,1 -0.2426,0 -0.441,-0.45 -0.441,-1 z m -663.84211,-5 c 0,-1.375 0.22698,-1.9375 0.50439,-1.25 0.27741,0.6875 0.27741,1.8125 0,2.5 -0.27741,0.6875 -0.50439,0.125 -0.50439,-1.25 z M 730,518.2575 c 0,-0.55 0.45,-1 1,-1 0.55,0 1,0.45 1,1 0,0.55 -0.45,1 -1,1 -0.55,0 -1,-0.45 -1,-1 z m -13.61507,-9.43927 c -0.30376,-0.79159 -0.0783,-2.25409 0.50098,-3.25 0.89503,-1.53869 1.05784,-1.32246 1.08368,1.43927 0.0321,3.42831 -0.66033,4.2195 -1.58466,1.81073 z M 379,503.31651 c 0,-2.41456 0.55611,-2.65815 1.34934,-0.59104 0.30982,0.80739 0.13297,1.73394 -0.39301,2.05902 C 379.43035,505.10956 379,504.44897 379,503.31651 Z m 0.15789,-5.05901 c 0,-1.375 0.22698,-1.9375 0.50439,-1.25 0.27741,0.6875 0.27741,1.8125 0,2.5 -0.27741,0.6875 -0.50439,0.125 -0.50439,-1.25 z m 169.99211,-0.95 c 0.42971,-1.28914 1.80131,-1.52071 1.925,-0.325 0.0412,0.39875 -0.465,0.905 -1.125,1.125 -0.66,0.22 -1.02,-0.14 -0.8,-0.8 z M 885,474.4575 v -21.2 l -12.75,-0.0728 c -7.0125,-0.0401 -44.58729,-0.15256 -83.49953,-0.25 -55.83818,-0.13984 -70.74963,-0.44064 -70.75,-1.42718 -3.4e-4,-0.90805 2.47775,-1.25 9.05855,-1.25 5.7847,0 8.83563,-0.36145 8.44098,-1 -0.33992,-0.55 -4.41648,-1 -9.05902,-1 -7.77431,0 -8.44098,-0.15796 -8.44098,-2 0,-1.1 -0.45,-2 -1,-2 -0.55,0 -1,1.35 -1,3 v 3 l -9.25,0.20354 -9.25,0.20355 8.49439,0.34084 c 4.67192,0.18747 8.94692,0.82197 9.5,1.41001 0.71323,0.7583 -5.24554,0.8465 -20.49439,0.30338 -11.825,-0.42118 -26.225,-0.84774 -32,-0.94791 -5.775,-0.10018 -13.2,-0.32426 -16.5,-0.49797 l -6,-0.31583 4.5,-0.65152 4.5,-0.65152 -3.82726,-0.82407 c -2.23853,-0.48199 -5.55939,-0.4066 -8,0.18162 -3.39344,0.81787 -3.65915,1.02812 -1.42274,1.12578 1.5125,0.066 2.75001,0.4576 2.75003,0.8701 4e-5,0.95059 -19.67363,0.90973 -20.6262,-0.0428 -0.38894,-0.38894 2.85534,-0.73879 7.2095,-0.77745 5.35227,-0.0475 7.26882,-0.34868 5.91667,-0.92971 -2.89047,-1.24208 -38.5,-1.24208 -38.5,0 0,0.57222 3.01967,1 7.05902,1 3.88246,0 6.85043,0.3375 6.59548,0.75 -0.25494,0.4125 -12.76748,0.75 -27.80564,0.75 -23.59251,0 -27.35597,-0.20571 -27.44317,-1.5 -0.0556,-0.825 -0.1696,-2.7375 -0.25338,-4.25 C 550.86679,440.85234 549,443.23752 549,448.7575 v 5.5 l -7.25,-0.0153 c -3.9875,-0.008 -7.925,-0.45153 -8.75,-0.98468 -1.08997,-0.70439 -1.14217,-0.97356 -0.19098,-0.98469 0.71996,-0.008 1.0309,-0.46531 0.69098,-1.01531 -0.97316,-1.57461 -6.49057,-1.18815 -7.13837,0.5 -0.69497,1.81105 -2.51554,2.01006 -2.28698,0.25 0.0893,-0.6875 0.0558,-2.825 -0.0745,-4.75 l -0.2368,-3.5 -0.65505,3 -0.65505,3 -13.47664,-0.34797 c -7.41214,-0.19138 -13.09914,0.0336 -12.63777,0.5 0.92733,0.93739 0.89116,0.93462 15.41114,1.17692 6.34216,0.10583 10.25,0.56888 10.25,1.21453 0,0.71449 -7.17274,0.82379 -22.75,0.34665 -12.5125,-0.38326 -23.97285,-0.6471 -25.46744,-0.5863 -1.49459,0.0608 -3.00452,-0.35395 -3.35538,-0.92167 -0.42845,-0.69324 3.41944,-0.95086 11.71744,-0.78449 7.18773,0.14411 12.25209,-0.1382 12.10843,-0.67498 -0.13582,-0.50748 -6.04252,-1.04787 -13.126,-1.20086 -12.46497,-0.26921 -12.8972,-0.20877 -13.4434,1.87988 -0.40483,1.54807 -1.05203,1.9709 -2.28975,1.49594 -0.94898,-0.36415 -15.48833,-0.92502 -32.30966,-1.24637 C 416.26291,450.28743 401.825,449.62227 401,449.13064 c -1.71047,-1.0193 41.45531,-0.89153 52.5,0.1554 7.25193,0.68741 10.7666,-0.22353 5.82322,-1.50928 -1.55277,-0.40387 -16.09822,-0.88357 -32.32322,-1.06601 -16.225,-0.18244 -31.10144,-0.62897 -33.05876,-0.99229 -1.95732,-0.36332 -5.16427,-0.21728 -7.12656,0.32454 -4.65686,1.28582 -5.52785,0.60347 -5.9575,-4.66727 -0.41902,-5.14042 1.72597,-7.48416 4.98616,-5.44814 1.2634,0.789 5.62567,0.98725 13.75346,0.62505 10.96887,-0.48881 64.39836,1.559 96.4032,3.69489 17.44502,1.16421 48.06765,2.54185 50,2.24937 14.67901,-2.22177 32.4611,-2.72355 91,-2.56782 35.475,0.0944 68.1,0.58843 72.5,1.09791 6.01591,0.6966 9.61208,0.58093 14.5,-0.46637 5.28602,-1.13261 19.94719,-1.34157 78.5,-1.11884 39.6,0.15064 74.5152,0.43325 77.58933,0.62803 l 5.58933,0.35415 0.15112,3.85693 0.15113,3.85692 -4.74045,0.59197 c -2.60725,0.32558 -6.54046,0.97347 -8.74046,1.43975 -3.41438,0.72366 -2.73175,0.86537 4.66261,0.96787 l 8.66262,0.1201 0.37018,21.25 c 0.20361,11.6875 0.0179,21.6775 -0.41261,22.2 -0.43054,0.5225 -0.7828,-8.59 -0.7828,-20.25 z m -309,-24.7 c 0,-0.825 -0.675,-1.5 -1.5,-1.5 -1.56157,0 -1.98397,1.1827 -0.83333,2.33333 C 574.8173,451.74146 576,451.31907 576,449.7575 Z m 276,0.5 c 0,-0.55 -1.2375,-0.99311 -2.75,-0.98469 -2.14294,0.0119 -2.41887,0.2293 -1.25,0.98469 1.95653,1.2644 4,1.2644 4,0 z m -184.5,-1 c -0.33992,-0.55 -2.81492,-1 -5.5,-1 -2.68508,0 -5.16008,0.45 -5.5,1 -0.3863,0.62504 1.67595,1 5.5,1 3.82405,0 5.8863,-0.37496 5.5,-1 z m 84,0 c -0.33992,-0.55 -2.81492,-1 -5.5,-1 -2.68508,0 -5.16008,0.45 -5.5,1 -0.3863,0.62504 1.67595,1 5.5,1 3.82405,0 5.8863,-0.37496 5.5,-1 z m 92.19814,0.3648 c -1.09764,-1.09764 -61.53295,-1.4411 -62.20512,-0.35352 -0.39781,0.64368 10.4603,0.98872 31.11463,0.98872 17.44913,0 31.43985,-0.28584 31.09049,-0.6352 z M 716,490.7575 c 0,-1.375 0.45,-2.5 1,-2.5 0.55,0 1,1.125 1,2.5 0,1.375 -0.45,2.5 -1,2.5 -0.55,0 -1,-1.125 -1,-2.5 z m 0.66667,-4.16667 c -1.06919,-1.06919 -0.7673,-11.33333 0.33333,-11.33333 0.55556,0 1,2.66666 1,6 0,6.05386 -0.12256,6.5441 -1.33333,5.33333 z M 528.8125,452.57438 c 0.72187,-0.28887 1.58438,-0.25334 1.91667,0.0789 0.33229,0.33229 -0.25834,0.56864 -1.3125,0.52522 -1.16495,-0.048 -1.4019,-0.28494 -0.60417,-0.60417 z m 360.84769,0.01 c -1.72438,-1.72438 0.0791,-2.10869 9.29833,-1.9814 5.47719,0.0756 9.63969,0.42138 9.25,0.76834 -1.01812,0.90651 -17.75997,2.00142 -18.54833,1.21306 z M 609.26903,450.5645 c 0.97297,-0.25354 2.32297,-0.23686 3,0.0371 0.67703,0.27392 -0.11903,0.48137 -1.76903,0.46099 -1.65,-0.0204 -2.20394,-0.2445 -1.23097,-0.49805 z m -214,-2 c 0.97297,-0.25354 2.32297,-0.23686 3,0.0371 0.67703,0.27392 -0.11903,0.48137 -1.76903,0.46099 -1.65,-0.0204 -2.20394,-0.2445 -1.23097,-0.49805 z"
       id="path1" />
  </g>
</svg>
