<svg width="535" height="158" viewBox="0 0 535 158" fill="none" xmlns="http://www.w3.org/2000/svg">
<path d="M105.295 47.0419C104.752 46.8404 103.928 47.4693 103.928 47.4693C103.928 47.4693 103.532 47.3289 103.245 47.5853C103.245 47.5853 102.617 47.6403 101.824 47.1579C101.025 46.6755 99.6035 45.9612 99.0668 45.7597C98.5239 45.5582 97.9566 44.7644 97.9017 44.5324C97.8468 44.3065 97.6455 43.3662 97.1026 42.9083C96.5597 42.4503 96.3645 41.626 96.3645 41.626C96.3645 41.626 96.3402 41.565 96.3036 41.4673C96.5536 41.4184 96.8037 41.3574 97.0172 41.2841C97.7858 41.0277 98.0115 41.2536 99.0668 40.0568C100.122 38.8601 99.8353 36.2712 98.8106 33.9877C97.7858 31.7102 97.7004 32.7909 97.615 33.5908C97.5296 34.3906 97.0172 35.5569 96.2486 36.7231C95.7607 37.4619 94.6993 38.1335 93.9673 38.5365C93.7538 38.4083 93.5281 38.2923 93.2841 38.2068C93.2841 38.2068 93.7965 36.7841 93.4549 35.6118C93.1134 34.4456 92.0886 32.1376 91.6921 31.7407C91.2956 31.3438 91.1492 31.5698 90.7527 32.4551C90.3563 33.3404 89.9842 33.9083 89.8134 34.5067C89.6426 35.105 88.9899 36.0759 88.9899 36.0759C88.9899 36.0759 86.9709 35.105 85.5191 35.0806C84.0674 35.0501 83.5855 35.0257 82.5058 34.7081C81.4261 34.3968 79.7731 33.5114 78.4921 33.2244C77.2112 32.9375 75.7289 33.0535 74.2833 32.9375C72.8315 32.8215 70.9833 32.1987 69.9036 31.9422C68.824 31.6858 64.8103 31.0569 62.5595 31.0019C60.3087 30.947 52.8547 32.0827 50.5246 32.681C48.1884 33.2794 47.737 32.7116 46.5414 33.0535C45.3458 33.3954 42.1618 34.3357 40.6795 35.9598C39.1973 37.584 36.6414 38.2678 34.9335 40.0324C34.4882 40.4965 32.9145 41.8825 32.3167 43.4761C32.2008 43.7814 32.1154 44.0806 32.0544 44.392C31.9019 44.7705 31.7616 45.1674 31.6579 45.5826C31.0601 48.031 30.4623 49.3438 29.7792 50.6504C29.096 51.9632 28.4128 53.6423 28.6141 55.2359C28.6202 55.2847 28.6263 55.3336 28.6385 55.3763C28.1261 56.1884 27.9614 57.2081 28.303 58.1178C28.4677 58.5574 29.1387 58.3254 28.9923 57.8797C28.8398 57.4157 28.9008 56.9638 29.0838 56.5425C29.2668 57.031 29.5901 57.4401 30.133 57.6477C31.3956 58.13 32.5363 57.0798 32.5973 55.822C32.6278 55.1992 32.2191 54.6497 31.7738 54.2712C31.2492 53.8254 30.5599 53.9109 29.9866 54.1735C29.9744 54.1735 29.9683 54.1857 29.9561 54.1918C29.9805 53.9231 30.0171 53.6606 30.0598 53.4163C30.1696 52.9706 30.3708 52.4577 30.7551 51.8838C31.1821 51.2366 31.8409 50.107 32.3411 49.1789C32.3777 49.4048 32.4204 49.643 32.4631 49.8872C33.0304 53.1904 33.1768 53.8193 33.5732 55.3824C33.9697 56.9516 34.2564 57.2325 34.9091 58.1728C35.5618 59.1131 36.3303 60.1938 36.3303 60.1938C36.3303 60.1938 35.9888 60.6762 36.1901 61.3356C36.1901 61.3356 35.6472 62.7033 35.2507 63.2711C34.8542 63.839 35.1104 64.7793 35.3056 65.2921C35.5069 65.805 35.3361 66.4034 35.6777 67.0018C36.0193 67.6001 36.4157 68.1436 36.4767 68.7663C36.5316 69.3952 36.9342 70.3355 37.1294 71.0194C37.3307 71.7032 37.2148 72.4176 37.2697 73.0404C37.3246 73.6693 37.3856 74.4936 37.6662 74.4936C37.9468 74.4936 37.9773 74.2921 37.9773 74.2921C37.9773 74.2921 38.264 74.9454 38.6605 75.1774C39.057 75.4034 39.856 75.4034 40.3684 75.4339C40.8808 75.4644 40.9662 75.2629 40.8808 75.092C40.8808 75.092 41.5945 75.3789 41.6494 75.092C41.7043 74.805 40.9662 73.6388 40.6795 73.2663C40.3928 72.8939 40.1366 71.6117 39.9658 70.6469C39.795 69.6761 39.9658 68.9373 39.9109 68.5954C39.856 68.2535 39.6852 68.0825 39.6852 68.0825C39.6852 68.0825 39.9963 68.1375 40.0268 67.7711C40.0573 67.3987 39.9963 67.2277 39.9963 67.2277C39.9963 67.2277 40.4782 66.6598 40.7954 66.147C41.1065 65.6341 42.8998 63.9794 42.8998 63.9794C42.8998 63.9794 43.1011 65.5486 43.4122 66.1714C43.7233 66.8003 44.0405 67.4536 44.0649 67.881C44.0954 68.3084 44.2662 68.9617 44.4614 69.3037C44.6627 69.6456 44.8579 70.3294 44.8335 70.9828C44.803 71.6361 44.803 72.3199 44.9189 72.7229C45.0348 73.1198 45.0897 73.4373 45.2605 73.4068C45.4312 73.3762 45.5471 73.2908 45.5471 73.2908C45.5471 73.2908 45.7728 73.6327 46.0046 73.9197C46.2303 74.2066 46.4316 74.1761 47.2002 74.231C47.9688 74.286 49.024 74.3715 49.1948 73.9746C49.3656 73.5777 48.8532 73.2053 48.3713 72.1795C47.8895 71.1537 47.7187 70.5004 47.6028 69.902C47.4869 69.3037 47.4869 67.0262 47.4869 67.0262C47.4869 67.0262 47.7736 66.6843 47.7431 66.3423C47.7126 66.0004 47.9688 65.744 48.0847 65.5425C48.2006 65.341 50.8723 61.8424 50.8723 61.8424C50.8723 61.8424 51.5249 62.2698 52.5497 61.7264C53.5745 61.1829 54.7395 61.073 56.3621 60.841C57.9846 60.6151 60.7722 60.2976 62.8523 60.0717C64.9323 59.8458 66.0669 59.8702 66.0669 59.8702C66.0669 59.8702 66.4938 62.746 66.8354 63.8573C67.177 64.9685 67.6345 65.8783 67.5186 66.7087C67.4027 67.533 67.6345 68.3328 67.8297 69.0167C68.031 69.7005 68.0554 69.7311 67.9456 70.2134C67.8297 70.6958 67.8297 71.3247 68.1469 71.3247H68.6288C68.6288 71.3247 68.4275 72.1795 68.5129 72.7229C68.5983 73.2663 68.9399 73.9502 69.0802 74.0051C69.2205 74.0601 71.1297 74.0357 71.8983 74.0051C72.6668 73.9746 72.7522 73.7487 72.4106 72.8389C72.0691 71.9292 71.758 71.0988 71.758 70.476C71.758 69.8532 71.7031 69.5662 71.5567 69.1083C71.4164 68.6503 71.5872 68.3695 71.5872 67.881C71.5872 67.3925 71.6421 66.8247 71.7885 66.4584C71.9288 66.0859 72.0142 65.4326 72.0142 65.4326C72.0142 65.4326 72.5814 66.9407 72.923 67.4536C73.2646 67.9665 73.4659 68.3389 73.4903 68.8213C73.5208 69.3037 73.8014 70.6164 74.0881 71.0438C74.3748 71.4712 74.4602 71.6117 74.4602 72.0146C74.4602 72.4176 74.3748 73.2969 74.5761 73.3823C74.7774 73.4678 75.0885 73.3274 75.0885 73.3274C75.0885 73.3274 75.2288 74.1272 75.2898 74.4692C75.3447 74.8111 75.43 75.4949 75.8326 75.4644C76.2291 75.4339 77.4247 75.5499 78.1933 75.6354C78.9618 75.7209 79.3339 75.9224 79.0472 75.2385C79.0472 75.2385 79.6145 75.495 79.645 75.208C79.6755 74.921 79.1326 74.1822 78.9313 73.9258C78.73 73.6693 78.364 72.7595 78.2482 72.1856C78.1323 71.6178 77.9066 71.1049 77.8212 70.6469C77.7358 70.189 77.7053 69.0777 77.7053 68.5649C77.7053 68.052 77.9066 68.0825 77.9066 67.5696C77.9066 67.0567 77.7663 66.1714 77.7053 65.689C77.6504 65.2067 77.7053 63.7779 77.8212 63.0941C77.9371 62.4102 77.9066 61.6103 78.2177 61.1829C78.5287 60.7555 79.0167 60.1022 79.0167 60.1022C79.0167 60.1022 79.645 60.2426 79.9012 59.5893C79.9012 59.5893 81.3834 59.3634 82.3472 58.9604C83.3171 58.5635 83.7136 58.3926 83.7136 58.3926C83.7136 58.3926 84.7932 58.991 86.4158 58.5941C88.0383 58.1972 88.9777 57.5133 89.545 57.1958C90.1123 56.8844 90.3441 56.9699 90.6002 56.9394C90.8564 56.9089 91.7958 56.9944 92.906 56.8539C94.0161 56.7135 94.6688 56.5975 95.3825 55.9136C96.0962 55.2298 96.5231 55.0039 96.7488 54.9428C96.9745 54.8878 97.859 54.9428 98.9692 54.6864C100.079 54.4299 100.647 53.801 100.647 53.801C100.647 53.801 101.299 54.1979 101.873 53.5995C102.44 53.0012 102.355 52.7447 102.696 52.6043C103.038 52.4638 103.605 52.7203 104.117 52.0914C104.63 51.4625 105.173 50.3818 105.282 49.24C105.398 48.0982 105.85 47.219 105.313 47.0175L105.295 47.0419ZM30.8771 55.3702C31.1577 55.4374 31.3102 55.6694 31.359 55.9319C31.3956 56.1456 31.3102 56.2922 31.1943 56.4326C30.8832 56.5425 30.4806 56.457 30.1818 56.2494C30.0598 56.0296 29.9927 55.7732 29.95 55.4984C30.2306 55.3458 30.5782 55.2969 30.871 55.3641L30.8771 55.3702Z" fill="#006B67"/>
<path d="M436.171 47.0419C435.628 46.8404 434.805 47.4693 434.805 47.4693C434.805 47.4693 434.408 47.3289 434.122 47.5853C434.122 47.5853 433.493 47.6403 432.7 47.1579C431.901 46.6755 430.48 45.9612 429.943 45.7597C429.4 45.5582 428.833 44.7644 428.778 44.5324C428.723 44.3065 428.522 43.3662 427.979 42.9083C427.436 42.4503 427.241 41.626 427.241 41.626C427.241 41.626 427.217 41.565 427.18 41.4673C427.43 41.4184 427.68 41.3574 427.894 41.2841C428.662 41.0277 428.888 41.2536 429.943 40.0568C430.998 38.8601 430.712 36.2712 429.687 33.9877C428.662 31.7102 428.577 32.7909 428.491 33.5908C428.406 34.3906 427.894 35.5569 427.125 36.7231C426.637 37.4619 425.576 38.1335 424.844 38.5365C424.63 38.4083 424.405 38.2923 424.161 38.2068C424.161 38.2068 424.673 36.7841 424.331 35.6118C423.99 34.4456 422.965 32.1376 422.569 31.7407C422.172 31.3438 422.026 31.5698 421.629 32.4551C421.233 33.3404 420.861 33.9083 420.69 34.5067C420.519 35.105 419.866 36.0759 419.866 36.0759C419.866 36.0759 417.847 35.105 416.396 35.0806C414.944 35.0501 414.462 35.0257 413.382 34.7081C412.303 34.3968 410.65 33.5114 409.369 33.2244C408.088 32.9375 406.605 33.0535 405.16 32.9375C403.708 32.8215 401.86 32.1987 400.78 31.9422C399.7 31.6858 395.687 31.0569 393.436 31.0019C391.185 30.947 383.731 32.0827 381.401 32.681C379.065 33.2794 378.613 32.7116 377.418 33.0535C376.222 33.3954 373.038 34.3357 371.556 35.9598C370.074 37.584 367.518 38.2678 365.81 40.0324C365.365 40.4965 363.791 41.8825 363.193 43.4761C363.077 43.7814 362.992 44.0806 362.931 44.392C362.778 44.7705 362.638 45.1674 362.534 45.5826C361.937 48.031 361.339 49.3438 360.656 50.6504C359.972 51.9632 359.289 53.6423 359.491 55.2359C359.497 55.2847 359.503 55.3336 359.515 55.3763C359.003 56.1884 358.838 57.2081 359.179 58.1178C359.344 58.5574 360.015 58.3254 359.869 57.8797C359.716 57.4157 359.777 56.9638 359.96 56.5425C360.143 57.031 360.467 57.4401 361.009 57.6477C362.272 58.13 363.413 57.0798 363.474 55.822C363.504 55.1992 363.096 54.6497 362.65 54.2712C362.126 53.8254 361.436 53.9109 360.863 54.1735C360.851 54.1735 360.845 54.1857 360.833 54.1918C360.857 53.9231 360.894 53.6606 360.936 53.4163C361.046 52.9706 361.247 52.4577 361.632 51.8838C362.059 51.2366 362.717 50.107 363.218 49.1789C363.254 49.4048 363.297 49.643 363.34 49.8872C363.907 53.1904 364.053 53.8193 364.45 55.3824C364.846 56.9516 365.133 57.2325 365.786 58.1728C366.438 59.1131 367.207 60.1938 367.207 60.1938C367.207 60.1938 366.865 60.6762 367.067 61.3356C367.067 61.3356 366.524 62.7033 366.127 63.2711C365.731 63.839 365.987 64.7793 366.182 65.2921C366.383 65.805 366.213 66.4034 366.554 67.0018C366.896 67.6001 367.292 68.1436 367.353 68.7663C367.408 69.3952 367.811 70.3355 368.006 71.0194C368.207 71.7032 368.091 72.4176 368.146 73.0404C368.201 73.6693 368.262 74.4936 368.543 74.4936C368.823 74.4936 368.854 74.2921 368.854 74.2921C368.854 74.2921 369.14 74.9454 369.537 75.1774C369.933 75.4034 370.732 75.4034 371.245 75.4339C371.757 75.4644 371.843 75.2629 371.757 75.092C371.757 75.092 372.471 75.3789 372.526 75.092C372.581 74.805 371.843 73.6388 371.556 73.2663C371.269 72.8939 371.013 71.6117 370.842 70.6469C370.671 69.6761 370.842 68.9373 370.787 68.5954C370.732 68.2535 370.562 68.0825 370.562 68.0825C370.562 68.0825 370.873 68.1375 370.903 67.7711C370.934 67.3987 370.873 67.2277 370.873 67.2277C370.873 67.2277 371.355 66.6598 371.672 66.147C371.983 65.6341 373.776 63.9794 373.776 63.9794C373.776 63.9794 373.978 65.5486 374.289 66.1714C374.6 66.8003 374.917 67.4536 374.941 67.881C374.972 68.3084 375.143 68.9617 375.338 69.3037C375.539 69.6456 375.734 70.3294 375.71 70.9828C375.679 71.6361 375.679 72.3199 375.795 72.7229C375.911 73.1198 375.966 73.4373 376.137 73.4068C376.308 73.3762 376.424 73.2908 376.424 73.2908C376.424 73.2908 376.649 73.6327 376.881 73.9197C377.107 74.2066 377.308 74.1761 378.077 74.231C378.845 74.286 379.9 74.3715 380.071 73.9746C380.242 73.5777 379.73 73.2053 379.248 72.1795C378.766 71.1537 378.595 70.5004 378.479 69.902C378.363 69.3037 378.363 67.0262 378.363 67.0262C378.363 67.0262 378.65 66.6843 378.62 66.3423C378.589 66.0004 378.845 65.744 378.961 65.5425C379.077 65.341 381.749 61.8424 381.749 61.8424C381.749 61.8424 382.401 62.2698 383.426 61.7264C384.451 61.1829 385.616 61.073 387.239 60.841C388.861 60.6151 391.649 60.2976 393.729 60.0717C395.809 59.8458 396.943 59.8702 396.943 59.8702C396.943 59.8702 397.37 62.746 397.712 63.8573C398.053 64.9685 398.511 65.8783 398.395 66.7087C398.279 67.533 398.511 68.3328 398.706 69.0167C398.907 69.7005 398.932 69.7311 398.822 70.2134C398.706 70.6958 398.706 71.3247 399.023 71.3247H399.505C399.505 71.3247 399.304 72.1795 399.389 72.7229C399.475 73.2663 399.816 73.9502 399.957 74.0051C400.097 74.0601 402.006 74.0357 402.775 74.0051C403.543 73.9746 403.629 73.7487 403.287 72.8389C402.946 71.9292 402.634 71.0988 402.634 70.476C402.634 69.8532 402.58 69.5662 402.433 69.1083C402.293 68.6503 402.464 68.3695 402.464 67.881C402.464 67.3925 402.519 66.8247 402.665 66.4584C402.805 66.0859 402.891 65.4326 402.891 65.4326C402.891 65.4326 403.458 66.9407 403.799 67.4536C404.141 67.9665 404.342 68.3389 404.367 68.8213C404.397 69.3037 404.678 70.6164 404.965 71.0438C405.251 71.4712 405.337 71.6117 405.337 72.0146C405.337 72.4176 405.251 73.2969 405.453 73.3823C405.654 73.4678 405.965 73.3274 405.965 73.3274C405.965 73.3274 406.105 74.1272 406.166 74.4692C406.221 74.8111 406.307 75.4949 406.709 75.4644C407.106 75.4339 408.301 75.5499 409.07 75.6354C409.838 75.7209 410.21 75.9224 409.924 75.2385C409.924 75.2385 410.491 75.495 410.521 75.208C410.552 74.921 410.009 74.1822 409.808 73.9258C409.607 73.6693 409.241 72.7595 409.125 72.1856C409.009 71.6178 408.783 71.1049 408.698 70.6469C408.612 70.189 408.582 69.0777 408.582 68.5649C408.582 68.052 408.783 68.0825 408.783 67.5696C408.783 67.0567 408.643 66.1714 408.582 65.689C408.527 65.2067 408.582 63.7779 408.698 63.0941C408.814 62.4102 408.783 61.6103 409.094 61.1829C409.405 60.7555 409.893 60.1022 409.893 60.1022C409.893 60.1022 410.521 60.2426 410.778 59.5893C410.778 59.5893 412.26 59.3634 413.224 58.9604C414.194 58.5635 414.59 58.3926 414.59 58.3926C414.59 58.3926 415.67 58.991 417.292 58.5941C418.915 58.1972 419.854 57.5133 420.421 57.1958C420.989 56.8844 421.221 56.9699 421.477 56.9394C421.733 56.9089 422.672 56.9944 423.782 56.8539C424.893 56.7135 425.545 56.5975 426.259 55.9136C426.973 55.2298 427.4 55.0039 427.625 54.9428C427.851 54.8878 428.735 54.9428 429.846 54.6864C430.956 54.4299 431.523 53.801 431.523 53.801C431.523 53.801 432.176 54.1979 432.749 53.5995C433.316 53.0012 433.231 52.7447 433.573 52.6043C433.914 52.4638 434.481 52.7203 434.994 52.0914C435.506 51.4625 436.049 50.3818 436.159 49.24C436.275 48.0982 436.726 47.219 436.189 47.0175L436.171 47.0419ZM361.747 55.3702C362.028 55.4374 362.181 55.6694 362.229 55.9319C362.266 56.1456 362.181 56.2922 362.065 56.4326C361.754 56.5425 361.351 56.457 361.052 56.2494C360.93 56.0296 360.863 55.7732 360.82 55.4984C361.101 55.3458 361.449 55.2969 361.741 55.3641L361.747 55.3702Z" fill="#006B67"/>
<path d="M306.171 73.0419C305.628 72.8404 304.805 73.4693 304.805 73.4693C304.805 73.4693 304.408 73.3289 304.122 73.5853C304.122 73.5853 303.493 73.6403 302.7 73.1579C301.901 72.6755 300.48 71.9612 299.943 71.7597C299.4 71.5582 298.833 70.7644 298.778 70.5324C298.723 70.3065 298.522 69.3662 297.979 68.9083C297.436 68.4503 297.241 67.626 297.241 67.626C297.241 67.626 297.217 67.565 297.18 67.4673C297.43 67.4184 297.68 67.3574 297.894 67.2841C298.662 67.0277 298.888 67.2536 299.943 66.0568C300.998 64.8601 300.712 62.2712 299.687 59.9877C298.662 57.7102 298.577 58.7909 298.491 59.5908C298.406 60.3906 297.894 61.5569 297.125 62.7231C296.637 63.4619 295.576 64.1335 294.844 64.5365C294.63 64.4083 294.405 64.2923 294.161 64.2068C294.161 64.2068 294.673 62.7841 294.331 61.6118C293.99 60.4456 292.965 58.1376 292.569 57.7407C292.172 57.3438 292.026 57.5698 291.629 58.4551C291.233 59.3404 290.861 59.9083 290.69 60.5067C290.519 61.105 289.866 62.0758 289.866 62.0758C289.866 62.0758 287.847 61.105 286.396 61.0806C284.944 61.0501 284.462 61.0257 283.382 60.7081C282.303 60.3968 280.65 59.5114 279.369 59.2244C278.088 58.9375 276.605 59.0535 275.16 58.9375C273.708 58.8215 271.86 58.1987 270.78 57.9422C269.7 57.6858 265.687 57.0569 263.436 57.0019C261.185 56.947 253.731 58.0827 251.401 58.681C249.065 59.2794 248.613 58.7116 247.418 59.0535C246.222 59.3954 243.038 60.3357 241.556 61.9598C240.074 63.584 237.518 64.2678 235.81 66.0324C235.365 66.4965 233.791 67.8825 233.193 69.4761C233.077 69.7814 232.992 70.0806 232.931 70.392C232.778 70.7705 232.638 71.1674 232.534 71.5826C231.937 74.031 231.339 75.3438 230.656 76.6504C229.972 77.9632 229.289 79.6423 229.491 81.2359C229.497 81.2847 229.503 81.3336 229.515 81.3763C229.003 82.1884 228.838 83.2081 229.179 84.1178C229.344 84.5574 230.015 84.3254 229.869 83.8797C229.716 83.4157 229.777 82.9638 229.96 82.5425C230.143 83.031 230.467 83.4401 231.009 83.6477C232.272 84.13 233.413 83.0798 233.474 81.822C233.504 81.1992 233.096 80.6497 232.65 80.2712C232.126 79.8254 231.436 79.9109 230.863 80.1735C230.851 80.1735 230.845 80.1857 230.833 80.1918C230.857 79.9231 230.894 79.6606 230.936 79.4163C231.046 78.9706 231.247 78.4577 231.632 77.8838C232.059 77.2366 232.717 76.107 233.218 75.1789C233.254 75.4048 233.297 75.643 233.34 75.8872C233.907 79.1904 234.053 79.8193 234.45 81.3824C234.846 82.9516 235.133 83.2325 235.786 84.1728C236.438 85.1131 237.207 86.1938 237.207 86.1938C237.207 86.1938 236.865 86.6761 237.067 87.3356C237.067 87.3356 236.524 88.7033 236.127 89.2711C235.731 89.839 235.987 90.7793 236.182 91.2921C236.383 91.805 236.213 92.4034 236.554 93.0018C236.896 93.6001 237.292 94.1436 237.353 94.7664C237.408 95.3953 237.811 96.3355 238.006 97.0194C238.207 97.7032 238.091 98.4176 238.146 99.0404C238.201 99.6693 238.262 100.494 238.543 100.494C238.823 100.494 238.854 100.292 238.854 100.292C238.854 100.292 239.14 100.945 239.537 101.177C239.933 101.403 240.733 101.403 241.245 101.434C241.757 101.464 241.843 101.263 241.757 101.092C241.757 101.092 242.471 101.379 242.526 101.092C242.581 100.805 241.843 99.6388 241.556 99.2663C241.269 98.8939 241.013 97.6117 240.842 96.6469C240.672 95.6761 240.842 94.9373 240.787 94.5954C240.733 94.2535 240.562 94.0825 240.562 94.0825C240.562 94.0825 240.873 94.1375 240.903 93.7711C240.934 93.3987 240.873 93.2277 240.873 93.2277C240.873 93.2277 241.355 92.6598 241.672 92.147C241.983 91.6341 243.776 89.9794 243.776 89.9794C243.776 89.9794 243.978 91.5486 244.289 92.1714C244.6 92.8003 244.917 93.4536 244.941 93.881C244.972 94.3084 245.143 94.9617 245.338 95.3037C245.539 95.6456 245.734 96.3294 245.71 96.9828C245.679 97.6361 245.679 98.3199 245.795 98.7229C245.911 99.1198 245.966 99.4373 246.137 99.4068C246.308 99.3762 246.424 99.2908 246.424 99.2908C246.424 99.2908 246.649 99.6327 246.881 99.9196C247.107 100.207 247.308 100.176 248.077 100.231C248.845 100.286 249.9 100.371 250.071 99.9746C250.242 99.5777 249.73 99.2053 249.248 98.1795C248.766 97.1537 248.595 96.5004 248.479 95.902C248.363 95.3037 248.363 93.0262 248.363 93.0262C248.363 93.0262 248.65 92.6843 248.62 92.3423C248.589 92.0004 248.845 91.744 248.961 91.5425C249.077 91.341 251.749 87.8424 251.749 87.8424C251.749 87.8424 252.401 88.2698 253.426 87.7263C254.451 87.1829 255.616 87.073 257.239 86.841C258.861 86.6151 261.649 86.2976 263.729 86.0717C265.809 85.8458 266.943 85.8702 266.943 85.8702C266.943 85.8702 267.37 88.746 267.712 89.8573C268.053 90.9685 268.511 91.8783 268.395 92.7087C268.279 93.533 268.511 94.3328 268.706 95.0167C268.907 95.7005 268.932 95.7311 268.822 96.2134C268.706 96.6958 268.706 97.3247 269.023 97.3247H269.505C269.505 97.3247 269.304 98.1795 269.389 98.7229C269.475 99.2663 269.816 99.9502 269.957 100.005C270.097 100.06 272.006 100.036 272.775 100.005C273.543 99.9746 273.629 99.7487 273.287 98.8389C272.946 97.9292 272.634 97.0988 272.634 96.476C272.634 95.8532 272.58 95.5662 272.433 95.1083C272.293 94.6503 272.464 94.3695 272.464 93.881C272.464 93.3925 272.519 92.8247 272.665 92.4584C272.805 92.0859 272.891 91.4326 272.891 91.4326C272.891 91.4326 273.458 92.9407 273.799 93.4536C274.141 93.9665 274.342 94.3389 274.367 94.8213C274.397 95.3037 274.678 96.6164 274.965 97.0438C275.251 97.4712 275.337 97.6117 275.337 98.0146C275.337 98.4176 275.251 99.2969 275.453 99.3823C275.654 99.4678 275.965 99.3274 275.965 99.3274C275.965 99.3274 276.105 100.127 276.166 100.469C276.221 100.811 276.307 101.495 276.709 101.464C277.106 101.434 278.301 101.55 279.07 101.635C279.838 101.721 280.21 101.922 279.924 101.239C279.924 101.239 280.491 101.495 280.521 101.208C280.552 100.921 280.009 100.182 279.808 99.9258C279.607 99.6693 279.241 98.7595 279.125 98.1856C279.009 97.6178 278.783 97.1049 278.698 96.6469C278.612 96.189 278.582 95.0777 278.582 94.5649C278.582 94.052 278.783 94.0825 278.783 93.5696C278.783 93.0567 278.643 92.1714 278.582 91.689C278.527 91.2067 278.582 89.7779 278.698 89.0941C278.814 88.4102 278.783 87.6103 279.094 87.1829C279.405 86.7555 279.893 86.1022 279.893 86.1022C279.893 86.1022 280.521 86.2426 280.778 85.5893C280.778 85.5893 282.26 85.3634 283.224 84.9604C284.194 84.5635 284.59 84.3926 284.59 84.3926C284.59 84.3926 285.67 84.991 287.292 84.5941C288.915 84.1972 289.854 83.5133 290.421 83.1958C290.989 82.8844 291.221 82.9699 291.477 82.9394C291.733 82.9089 292.672 82.9943 293.782 82.8539C294.893 82.7135 295.545 82.5975 296.259 81.9136C296.973 81.2298 297.4 81.0039 297.625 80.9428C297.851 80.8878 298.735 80.9428 299.846 80.6864C300.956 80.4299 301.523 79.801 301.523 79.801C301.523 79.801 302.176 80.1979 302.749 79.5995C303.316 79.0011 303.231 78.7447 303.573 78.6043C303.914 78.4638 304.481 78.7203 304.994 78.0914C305.506 77.4625 306.049 76.3818 306.159 75.24C306.275 74.0982 306.726 73.2189 306.189 73.0175L306.171 73.0419ZM231.747 81.3702C232.028 81.4374 232.181 81.6694 232.229 81.9319C232.266 82.1456 232.181 82.2922 232.065 82.4326C231.754 82.5425 231.351 82.457 231.052 82.2494C230.93 82.0296 230.863 81.7732 230.82 81.4984C231.101 81.3458 231.449 81.2969 231.741 81.3641L231.747 81.3702Z" fill="#006B67"/>
<path d="M183.171 110.042C182.628 109.84 181.805 110.469 181.805 110.469C181.805 110.469 181.408 110.329 181.122 110.585C181.122 110.585 180.493 110.64 179.7 110.158C178.901 109.676 177.48 108.961 176.943 108.76C176.4 108.558 175.833 107.764 175.778 107.532C175.723 107.306 175.522 106.366 174.979 105.908C174.436 105.45 174.241 104.626 174.241 104.626C174.241 104.626 174.217 104.565 174.18 104.467C174.43 104.418 174.68 104.357 174.894 104.284C175.662 104.028 175.888 104.254 176.943 103.057C177.998 101.86 177.712 99.2712 176.687 96.9877C175.662 94.7102 175.577 95.7909 175.491 96.5908C175.406 97.3906 174.894 98.5569 174.125 99.7231C173.637 100.462 172.576 101.134 171.844 101.536C171.63 101.408 171.405 101.292 171.161 101.207C171.161 101.207 171.673 99.7841 171.331 98.6118C170.99 97.4456 169.965 95.1376 169.569 94.7407C169.172 94.3438 169.026 94.5698 168.629 95.4551C168.233 96.3404 167.861 96.9083 167.69 97.5067C167.519 98.105 166.866 99.0758 166.866 99.0758C166.866 99.0758 164.847 98.105 163.396 98.0806C161.944 98.0501 161.462 98.0256 160.382 97.7081C159.303 97.3967 157.65 96.5114 156.369 96.2244C155.088 95.9375 153.605 96.0535 152.16 95.9375C150.708 95.8215 148.86 95.1987 147.78 94.9422C146.7 94.6858 142.687 94.0569 140.436 94.0019C138.185 93.947 130.731 95.0827 128.401 95.681C126.065 96.2794 125.613 95.7116 124.418 96.0535C123.222 96.3954 120.038 97.3357 118.556 98.9598C117.074 100.584 114.518 101.268 112.81 103.032C112.365 103.496 110.791 104.882 110.193 106.476C110.077 106.781 109.992 107.081 109.931 107.392C109.778 107.771 109.638 108.167 109.534 108.583C108.937 111.031 108.339 112.344 107.656 113.65C106.972 114.963 106.289 116.642 106.491 118.236C106.497 118.285 106.503 118.334 106.515 118.376C106.003 119.188 105.838 120.208 106.179 121.118C106.344 121.557 107.015 121.325 106.869 120.88C106.716 120.416 106.777 119.964 106.96 119.543C107.143 120.031 107.467 120.44 108.009 120.648C109.272 121.13 110.413 120.08 110.474 118.822C110.504 118.199 110.096 117.65 109.65 117.271C109.126 116.825 108.436 116.911 107.863 117.173C107.851 117.173 107.845 117.186 107.833 117.192C107.857 116.923 107.894 116.661 107.936 116.416C108.046 115.971 108.247 115.458 108.632 114.884C109.059 114.237 109.717 113.107 110.218 112.179C110.254 112.405 110.297 112.643 110.34 112.887C110.907 116.19 111.053 116.819 111.45 118.382C111.846 119.952 112.133 120.232 112.786 121.173C113.438 122.113 114.207 123.194 114.207 123.194C114.207 123.194 113.865 123.676 114.067 124.336C114.067 124.336 113.524 125.703 113.127 126.271C112.731 126.839 112.987 127.779 113.182 128.292C113.383 128.805 113.213 129.403 113.554 130.002C113.896 130.6 114.292 131.144 114.353 131.766C114.408 132.395 114.811 133.336 115.006 134.019C115.207 134.703 115.091 135.418 115.146 136.04C115.201 136.669 115.262 137.494 115.543 137.494C115.823 137.494 115.854 137.292 115.854 137.292C115.854 137.292 116.14 137.945 116.537 138.177C116.933 138.403 117.732 138.403 118.245 138.434C118.757 138.464 118.843 138.263 118.757 138.092C118.757 138.092 119.471 138.379 119.526 138.092C119.581 137.805 118.843 136.639 118.556 136.266C118.269 135.894 118.013 134.612 117.842 133.647C117.671 132.676 117.842 131.937 117.787 131.595C117.732 131.253 117.562 131.082 117.562 131.082C117.562 131.082 117.873 131.137 117.903 130.771C117.934 130.399 117.873 130.228 117.873 130.228C117.873 130.228 118.355 129.66 118.672 129.147C118.983 128.634 120.776 126.979 120.776 126.979C120.776 126.979 120.978 128.549 121.289 129.171C121.6 129.8 121.917 130.454 121.941 130.881C121.972 131.308 122.143 131.962 122.338 132.304C122.539 132.646 122.734 133.329 122.71 133.983C122.679 134.636 122.679 135.32 122.795 135.723C122.911 136.12 122.966 136.437 123.137 136.407C123.308 136.376 123.424 136.291 123.424 136.291C123.424 136.291 123.649 136.633 123.881 136.92C124.107 137.207 124.308 137.176 125.077 137.231C125.845 137.286 126.9 137.371 127.071 136.975C127.242 136.578 126.73 136.205 126.248 135.179C125.766 134.154 125.595 133.5 125.479 132.902C125.363 132.304 125.363 130.026 125.363 130.026C125.363 130.026 125.65 129.684 125.62 129.342C125.589 129 125.845 128.744 125.961 128.542C126.077 128.341 128.749 124.842 128.749 124.842C128.749 124.842 129.401 125.27 130.426 124.726C131.451 124.183 132.616 124.073 134.239 123.841C135.861 123.615 138.649 123.298 140.729 123.072C142.809 122.846 143.943 122.87 143.943 122.87C143.943 122.87 144.37 125.746 144.712 126.857C145.053 127.969 145.511 128.878 145.395 129.709C145.279 130.533 145.511 131.333 145.706 132.017C145.907 132.701 145.932 132.731 145.822 133.213C145.706 133.696 145.706 134.325 146.023 134.325H146.505C146.505 134.325 146.304 135.179 146.389 135.723C146.475 136.266 146.816 136.95 146.957 137.005C147.097 137.06 149.006 137.036 149.775 137.005C150.543 136.975 150.629 136.749 150.287 135.839C149.946 134.929 149.634 134.099 149.634 133.476C149.634 132.853 149.58 132.566 149.433 132.108C149.293 131.65 149.464 131.369 149.464 130.881C149.464 130.393 149.519 129.825 149.665 129.458C149.805 129.086 149.891 128.433 149.891 128.433C149.891 128.433 150.458 129.941 150.799 130.454C151.141 130.966 151.342 131.339 151.367 131.821C151.397 132.304 151.678 133.616 151.965 134.044C152.251 134.471 152.337 134.612 152.337 135.015C152.337 135.418 152.251 136.297 152.453 136.382C152.654 136.468 152.965 136.327 152.965 136.327C152.965 136.327 153.105 137.127 153.166 137.469C153.221 137.811 153.307 138.495 153.709 138.464C154.106 138.434 155.301 138.55 156.07 138.635C156.838 138.721 157.21 138.922 156.924 138.239C156.924 138.239 157.491 138.495 157.521 138.208C157.552 137.921 157.009 137.182 156.808 136.926C156.606 136.669 156.241 135.76 156.125 135.186C156.009 134.618 155.783 134.105 155.698 133.647C155.612 133.189 155.582 132.078 155.582 131.565C155.582 131.052 155.783 131.083 155.783 130.57C155.783 130.057 155.643 129.171 155.582 128.689C155.527 128.207 155.582 126.778 155.698 126.094C155.814 125.41 155.783 124.61 156.094 124.183C156.405 123.756 156.893 123.102 156.893 123.102C156.893 123.102 157.521 123.243 157.778 122.589C157.778 122.589 159.26 122.363 160.224 121.96C161.194 121.564 161.59 121.393 161.59 121.393C161.59 121.393 162.67 121.991 164.292 121.594C165.915 121.197 166.854 120.513 167.421 120.196C167.989 119.884 168.221 119.97 168.477 119.939C168.733 119.909 169.672 119.994 170.782 119.854C171.893 119.713 172.545 119.597 173.259 118.914C173.973 118.23 174.4 118.004 174.625 117.943C174.851 117.888 175.735 117.943 176.846 117.686C177.956 117.43 178.523 116.801 178.523 116.801C178.523 116.801 179.176 117.198 179.749 116.6C180.316 116.001 180.231 115.745 180.573 115.604C180.914 115.464 181.481 115.72 181.994 115.091C182.506 114.462 183.049 113.382 183.159 112.24C183.275 111.098 183.726 110.219 183.189 110.017L183.171 110.042ZM108.754 118.37C109.034 118.437 109.187 118.669 109.235 118.932C109.272 119.146 109.187 119.292 109.071 119.433C108.76 119.543 108.357 119.457 108.058 119.249C107.936 119.03 107.869 118.773 107.826 118.498C108.107 118.346 108.455 118.297 108.747 118.364L108.754 118.37Z" fill="#006B67"/>
<path d="M503.171 110.042C502.628 109.84 501.805 110.469 501.805 110.469C501.805 110.469 501.408 110.329 501.122 110.585C501.122 110.585 500.493 110.64 499.7 110.158C498.901 109.676 497.48 108.961 496.943 108.76C496.4 108.558 495.833 107.764 495.778 107.532C495.723 107.306 495.522 106.366 494.979 105.908C494.436 105.45 494.241 104.626 494.241 104.626C494.241 104.626 494.217 104.565 494.18 104.467C494.43 104.418 494.68 104.357 494.894 104.284C495.662 104.028 495.888 104.254 496.943 103.057C497.998 101.86 497.712 99.2712 496.687 96.9877C495.662 94.7102 495.577 95.7909 495.491 96.5908C495.406 97.3906 494.894 98.5569 494.125 99.7231C493.637 100.462 492.576 101.134 491.844 101.536C491.63 101.408 491.405 101.292 491.161 101.207C491.161 101.207 491.673 99.7841 491.331 98.6118C490.99 97.4456 489.965 95.1376 489.569 94.7407C489.172 94.3438 489.026 94.5698 488.629 95.4551C488.233 96.3404 487.861 96.9083 487.69 97.5067C487.519 98.105 486.866 99.0758 486.866 99.0758C486.866 99.0758 484.847 98.105 483.396 98.0806C481.944 98.0501 481.462 98.0256 480.382 97.7081C479.303 97.3967 477.65 96.5114 476.369 96.2244C475.088 95.9375 473.605 96.0535 472.16 95.9375C470.708 95.8215 468.86 95.1987 467.78 94.9422C466.7 94.6858 462.687 94.0569 460.436 94.0019C458.185 93.947 450.731 95.0827 448.401 95.681C446.065 96.2794 445.613 95.7116 444.418 96.0535C443.222 96.3954 440.038 97.3357 438.556 98.9598C437.074 100.584 434.518 101.268 432.81 103.032C432.365 103.496 430.791 104.882 430.193 106.476C430.077 106.781 429.992 107.081 429.931 107.392C429.778 107.771 429.638 108.167 429.534 108.583C428.937 111.031 428.339 112.344 427.656 113.65C426.972 114.963 426.289 116.642 426.491 118.236C426.497 118.285 426.503 118.334 426.515 118.376C426.003 119.188 425.838 120.208 426.179 121.118C426.344 121.557 427.015 121.325 426.869 120.88C426.716 120.416 426.777 119.964 426.96 119.543C427.143 120.031 427.467 120.44 428.009 120.648C429.272 121.13 430.413 120.08 430.474 118.822C430.504 118.199 430.096 117.65 429.65 117.271C429.126 116.825 428.436 116.911 427.863 117.173C427.851 117.173 427.845 117.186 427.833 117.192C427.857 116.923 427.894 116.661 427.936 116.416C428.046 115.971 428.247 115.458 428.632 114.884C429.059 114.237 429.717 113.107 430.218 112.179C430.254 112.405 430.297 112.643 430.34 112.887C430.907 116.19 431.053 116.819 431.45 118.382C431.846 119.952 432.133 120.232 432.786 121.173C433.438 122.113 434.207 123.194 434.207 123.194C434.207 123.194 433.865 123.676 434.067 124.336C434.067 124.336 433.524 125.703 433.127 126.271C432.731 126.839 432.987 127.779 433.182 128.292C433.383 128.805 433.213 129.403 433.554 130.002C433.896 130.6 434.292 131.144 434.353 131.766C434.408 132.395 434.811 133.336 435.006 134.019C435.207 134.703 435.091 135.418 435.146 136.04C435.201 136.669 435.262 137.494 435.543 137.494C435.823 137.494 435.854 137.292 435.854 137.292C435.854 137.292 436.14 137.945 436.537 138.177C436.933 138.403 437.732 138.403 438.245 138.434C438.757 138.464 438.843 138.263 438.757 138.092C438.757 138.092 439.471 138.379 439.526 138.092C439.581 137.805 438.843 136.639 438.556 136.266C438.269 135.894 438.013 134.612 437.842 133.647C437.671 132.676 437.842 131.937 437.787 131.595C437.732 131.253 437.562 131.082 437.562 131.082C437.562 131.082 437.873 131.137 437.903 130.771C437.934 130.399 437.873 130.228 437.873 130.228C437.873 130.228 438.355 129.66 438.672 129.147C438.983 128.634 440.776 126.979 440.776 126.979C440.776 126.979 440.978 128.549 441.289 129.171C441.6 129.8 441.917 130.454 441.941 130.881C441.972 131.308 442.143 131.962 442.338 132.304C442.539 132.646 442.734 133.329 442.71 133.983C442.679 134.636 442.679 135.32 442.795 135.723C442.911 136.12 442.966 136.437 443.137 136.407C443.308 136.376 443.424 136.291 443.424 136.291C443.424 136.291 443.649 136.633 443.881 136.92C444.107 137.207 444.308 137.176 445.077 137.231C445.845 137.286 446.9 137.371 447.071 136.975C447.242 136.578 446.73 136.205 446.248 135.179C445.766 134.154 445.595 133.5 445.479 132.902C445.363 132.304 445.363 130.026 445.363 130.026C445.363 130.026 445.65 129.684 445.62 129.342C445.589 129 445.845 128.744 445.961 128.542C446.077 128.341 448.749 124.842 448.749 124.842C448.749 124.842 449.401 125.27 450.426 124.726C451.451 124.183 452.616 124.073 454.239 123.841C455.861 123.615 458.649 123.298 460.729 123.072C462.809 122.846 463.943 122.87 463.943 122.87C463.943 122.87 464.37 125.746 464.712 126.857C465.053 127.969 465.511 128.878 465.395 129.709C465.279 130.533 465.511 131.333 465.706 132.017C465.907 132.701 465.932 132.731 465.822 133.213C465.706 133.696 465.706 134.325 466.023 134.325H466.505C466.505 134.325 466.304 135.179 466.389 135.723C466.475 136.266 466.816 136.95 466.957 137.005C467.097 137.06 469.006 137.036 469.775 137.005C470.543 136.975 470.629 136.749 470.287 135.839C469.946 134.929 469.634 134.099 469.634 133.476C469.634 132.853 469.58 132.566 469.433 132.108C469.293 131.65 469.464 131.369 469.464 130.881C469.464 130.393 469.519 129.825 469.665 129.458C469.805 129.086 469.891 128.433 469.891 128.433C469.891 128.433 470.458 129.941 470.799 130.454C471.141 130.966 471.342 131.339 471.367 131.821C471.397 132.304 471.678 133.616 471.965 134.044C472.251 134.471 472.337 134.612 472.337 135.015C472.337 135.418 472.251 136.297 472.453 136.382C472.654 136.468 472.965 136.327 472.965 136.327C472.965 136.327 473.105 137.127 473.166 137.469C473.221 137.811 473.306 138.495 473.709 138.464C474.106 138.434 475.301 138.55 476.07 138.635C476.838 138.721 477.21 138.922 476.924 138.239C476.924 138.239 477.491 138.495 477.521 138.208C477.552 137.921 477.009 137.182 476.808 136.926C476.606 136.669 476.241 135.76 476.125 135.186C476.009 134.618 475.783 134.105 475.698 133.647C475.612 133.189 475.582 132.078 475.582 131.565C475.582 131.052 475.783 131.083 475.783 130.57C475.783 130.057 475.643 129.171 475.582 128.689C475.527 128.207 475.582 126.778 475.698 126.094C475.814 125.41 475.783 124.61 476.094 124.183C476.405 123.756 476.893 123.102 476.893 123.102C476.893 123.102 477.521 123.243 477.778 122.589C477.778 122.589 479.26 122.363 480.224 121.96C481.194 121.564 481.59 121.393 481.59 121.393C481.59 121.393 482.67 121.991 484.292 121.594C485.915 121.197 486.854 120.513 487.421 120.196C487.989 119.884 488.22 119.97 488.477 119.939C488.733 119.909 489.672 119.994 490.782 119.854C491.893 119.713 492.545 119.597 493.259 118.914C493.973 118.23 494.4 118.004 494.625 117.943C494.851 117.888 495.735 117.943 496.846 117.686C497.956 117.43 498.523 116.801 498.523 116.801C498.523 116.801 499.176 117.198 499.749 116.6C500.316 116.001 500.231 115.745 500.573 115.604C500.914 115.464 501.481 115.72 501.994 115.091C502.506 114.462 503.049 113.382 503.159 112.24C503.275 111.098 503.726 110.219 503.189 110.017L503.171 110.042ZM428.747 118.37C429.028 118.437 429.181 118.669 429.229 118.932C429.266 119.146 429.181 119.292 429.065 119.433C428.754 119.543 428.351 119.457 428.052 119.249C427.93 119.03 427.863 118.773 427.82 118.498C428.101 118.346 428.449 118.297 428.741 118.364L428.747 118.37Z" fill="#006B67"/>
<path d="M534 1H1V157H534V1Z" stroke="#006B67" stroke-width="2" stroke-miterlimit="10" stroke-linejoin="round"/>
</svg>
