<svg width="257" height="270" viewBox="0 0 257 270" fill="none" xmlns="http://www.w3.org/2000/svg">
<g clip-path="url(#clip0_171_3)">
<path d="M150.243 39.7454L150.742 39.0798L151.646 38.5155L151.949 38.8194L151.595 39.6513L150.626 39.8394L150.25 39.7454H150.243ZM149.057 39.6947L149.556 39.579L149.765 39.1015L151.212 37.6981L151.899 37.6257L153.012 36.461L152.73 35.9835L152.26 36.1282L151.667 36.0559L151.053 36.3163L149.823 37.5751L149.064 39.6875L149.057 39.6947ZM154.698 35.0213L154.531 34.4715L153.721 34.0953L153.605 34.855L153.989 35.4192L154.654 35.6363L154.698 35.0213ZM154.719 33.6902L154.481 32.5255L155.218 31.6936L155.884 31.3608L156.759 30.6952L157.352 30.7893L156.809 31.7153L156.072 31.954L155.435 32.9523L154.726 33.6902H154.719ZM155.197 34.5728L155.79 34.8984L157.402 34.949L157.901 35.2601L158.747 34.855L159.008 34.023L158.27 33.4298L156.419 33.9073L155.45 34.0085L155.189 34.5728H155.197ZM158.863 36.1427L159.861 35.7158L160.143 35.1443L161.047 35.0937L161.785 35.6363L161.315 36.3959L159.847 36.4899L158.87 36.1354L158.863 36.1427ZM154.784 22.4698L154.119 21.4859L153.598 19.8292L153.786 19.3518L154.683 19.9667L155.63 21.6668L155.486 22.5638C155.486 22.5638 154.871 22.4625 154.777 22.4625L154.784 22.4698ZM148.97 9.46243L148.427 8.94155L148.211 7.66108L147.408 6.09846L147.082 6.28655L147.176 7.3283L146.648 8.13131L145.137 9.12241L145.151 9.10071L145.065 9.18029L144.573 9.93989L142.96 11.9366L141.253 14.143L141.232 15.3295L139.973 18.0568L138.91 19.7858L138.1 21.3774L136.965 21.5727L136.278 22.0719L136.018 23.1426L134.853 23.9962L134.072 23.7358L134.029 22.0068L133.551 21.7897L133.385 21.2472L132.647 21.1748L131.729 21.5365L131.02 22.3178L129.892 22.1225L128.995 21.1097L129.01 20.4659L128.655 20.162L128.243 19.0913L128.012 18.4692L127.122 18.2739L125.842 17.0657L124.136 16.9934L122.884 17.5649L120.158 17.6806L118.69 17.3044L117.41 18.1581L117.193 19.3445L118.401 20.531L118.712 21.2906L119.326 22.7157L119.088 23.2149L117.974 23.2655L116.311 22.8025L115.906 22.4915H115.363L115.248 22.4481L115.284 22.4698H113.15L111.971 22.6579L111.451 22.0936L109.513 22.1949L108.139 22.7591L107.379 24.8354L104.682 24.7414L103.308 25.1682L103.12 25.7831L102.223 26.8682L100.711 27.0129L100.523 26.5861L99.6266 26.8248L98.8166 27.8593L97.7752 27.4325L95.179 25.2116L94.2316 24.0251L94.181 23.0775L92.7635 21.6595L91.5847 20.4297L91.4401 19.1058L91.7221 18.2087L91.3967 17.5432L91.5847 16.3568L92.0548 15.4091L91.9536 13.9911L93.2336 11.7702L93.6603 9.97606L94.8391 8.50749L94.7885 7.79853L93.559 7.89257L92.9443 6.94488L92.5177 6.00441L91.1508 6.09846L90.0154 5.53418L90.5795 4.73117L91.3895 3.45069V1.69998L90.2975 0.325455L88.8366 0.180769L88.1279 0.658235L87.6072 0.0867222L86.9563 -0.00732422L87.0865 1.3672L86.4718 2.92982L83.0656 5.34609L80.9322 5.53418L78.0032 6.76402L76.9112 6.24314L75.0671 6.43124L72.9337 8.32663L70.8509 9.0356L70.1422 8.55813L67.2132 8.94155L64.9424 9.07901L62.9103 7.94321L60.8781 7.61044L58.9906 7.04616L59.8367 8.65218L61.2108 9.17305L62.6354 10.5042L63.1128 11.734L61.2686 14.5771L61.9701 15.901L61.5434 18.0785L64.5736 19.0696L66.6564 18.8309L68.7392 19.2577L68.8332 20.5888L67.3217 21.2978L64.2409 21.9127L63.1561 23.0992L62.5414 24.8065L59.1858 26.5572L58.101 27.8376L55.8375 29.3135L54.3043 31.1654L51.6285 31.3101L50.1098 31.0931L47.4991 29.0747L44.9752 27.3529L43.2612 27.5555L43.3046 25.7469L43.0515 24.3001L41.9594 22.9689L41.6051 21.9634L39.8043 22.4336L38.5243 23.8515L37.6782 23.9962L36.9694 23.3307H35.6966L34.8867 24.2277L27.4595 24.2711L27.0328 26.398L27.6475 27.9606L30.157 28.6262L31.1044 30.3769L30.3956 31.1799L31.155 31.9829L30.8223 33.0681L29.2675 32.0263L24.8705 33.5383L25.0585 37.141L26.1939 38.6096L28.6528 40.4977L30.2655 43.3408L30.1642 45.5618L30.1136 46.5529L26.4253 60.2547L25.3333 63.8791L25.478 64.5375L24.9066 65.4779L23.4892 65.1017L23.6266 64.6749L22.1657 63.7272L21.645 63.8719H20.365L19.8009 63.6332L19.3308 64.6749L14.8398 66.1435L11.4842 66.8524L10.6309 67.6989L9.87152 67.9376L8.49745 69.3121L6.9426 70.0211L5.75656 70.7735L5.94459 72.4808L5.28649 73.4791L5.56854 74.5136L3.77502 76.3077L4.3825 78.5793L4.99722 79.7657L3.91243 80.8075L2.96505 80.6122L1.12815 81.7986L1.0269 83.1225L0.3688 83.8314L0.795482 84.7357L0.55683 86.1971L0.0361328 87.4269L0.506206 88.512L0.180771 89.5104L1.98151 91.3045L5.19971 96.506L3.53637 98.5822L7.60793 98.2567L9.54608 98.5822L10.9635 100.666L11.3902 102.51L14.2107 102.619L17.5518 102.836L20.3216 100.297L22.672 98.944L23.3373 99.6529L23.0263 101.107L22.5563 101.606L22.5056 103.957L22.86 107.828L22.9323 109.369L23.7351 110.128L25.0368 109.918L26.2952 109.557L27.7126 109.463L28.4286 109.369L29.0794 109.68L29.2675 109.759H33.4403L35.335 109.846L37.2298 108.804H38.264L39.6886 107.661H41.2941L43.1889 107.097L44.3243 104.16L47.4485 102.17L49.6325 101.787L51.7153 100.745H53.1327L54.4634 101.693L55.9749 100.745L56.7342 101.411L56.5462 102.93L57.2983 105.296L56.2641 107.191L57.1103 110.23L56.5462 111.561L57.6816 114.028L59.2003 114.686L59.6631 116.675L61.1818 117.435L63.2646 118.759L64.6893 120.083L65.2606 119.424L68.0088 118.759L70.2868 121.03L71.9863 120.56L74.3511 123.121L75.3997 123.02L78.2419 123.968L80.0426 124.633L80.4259 126.528L81.7566 126.912L83.4561 127.86L87.2456 127.476L89.8997 128.995L90.471 130.131L90.095 133.162L90.6591 135.629L89.8997 137.141L92.3658 141.308L92.1705 144.339L103.727 144.528L104.298 148.702L104.103 151.357L107.509 152.109L110.923 158.179L111.118 161.398L107.893 167.844L108.081 168.792L107.198 170.007L107.791 170.687L107.408 172.112L109.021 173.342L109.115 175.339L110.446 177.328L109.78 181.307L110.163 182.913L109.693 184.331L110.163 185.756L112.63 185.568L113.671 186.045L116.708 185.85L118.603 186.516L121.633 185.279L123.246 186.422L124.475 186.798L124.953 188.317L126.609 195.45L127.744 197.96L128.923 198.293L131.527 196.875L132.995 197.44L133.985 198.344L134.933 198.539L134.296 199.603L134.13 205.773L133.855 206.497L133.682 206.728V207.553L133.523 208.233L133.457 209.029L134.6 208.284L137.623 208.711L137.717 210.034L138.946 212.827L138.852 215.048L139.142 217.609L139.38 219.974L138.997 220.922L137.674 220.872L136.068 221.725L135.837 222.246L134.889 223.049L134.463 222.81L131.765 224.604L131.244 225.458L130.21 225.74L127.751 227.773L126.949 228.062L126.847 229.668L125.951 229.951L125.148 229.806L123.072 232.367L122.689 233.358L122.74 234.827L121.792 235.109L121.272 235.912L119.948 238.328L119.008 239.326L117.916 241.12V241.735L116.687 242.589L116.513 243.175L117.489 243.204L118.198 243.587L121.51 242.589L122.884 243.493L124.396 245.577L125.719 246.148L126.522 247.942L128.084 250.503H128.843L130.116 249.129L130.782 249.223L132.293 251.683L134.094 252.486L135.656 252.818L137.167 254.338L137.269 256.132L138.541 255.85L141.102 256.985L142.613 258.881L144.218 261.29L145.687 262.332L145.405 264.176L144.168 265.876L144.783 267.859L145.021 268.35L145.195 268.669L145.961 269.689L146.337 269.993L148.818 267.938L149.671 265.949L150.756 261.355L151.747 258.23L152.174 257.615L151.609 256.906L150.662 255.343L151.132 254.019L152.08 253.549L152.123 252.695L153.208 251.466V250.518L153.873 251.039L154.77 251.176L155.855 249.896L155.999 248.572L156.426 248.145L156.52 246.626L156.99 246.011H157.655L158.125 244.73L157.793 243.79L157.084 243.03L157.178 241.041L156.614 240.52L157.279 240.708L158.039 242.271L159.601 243.971H160.208L160.874 243.587L161.3 244.014L161.438 245.15L160.917 245.295L160.302 247.566L158.784 250.163L157.409 250.207L157.221 251.863L156.751 252.76L156.325 252.616L154.951 253.375L153.96 254.229L153.866 254.938L152.774 255.126L152.253 255.647L152.297 256.356L153.569 256.732L157.735 253.469L159.861 251.053L162.935 245.801L164.113 243.153L165.299 239.746L168.279 234.067L171.208 230.573L171.685 229.531L171.403 229.155L171.541 228.258L172.155 228.07L172.625 226.601L173.479 226.08L173.189 224.901L173.479 224.047L173.189 223.664L172.669 223.237L172.763 221.913L171.483 220.112V219.309L171.721 218.506L171.483 217.652L171.056 215.764L170.391 213.775L170.911 213.304L172.568 212.972L172.141 211.886L171.338 211.416L172.893 211.033L172.936 209.76L171.331 209.051L172.654 208.674L173.508 207.445L174.166 207.965L176.249 206.027L177.478 205.224L177.435 204.565L179.185 203.046L181.217 201.722L183.914 198.648L186.279 198.358L187.559 197.136L188.977 196H190.3L191.154 196.709L192.144 196.948L192.195 196.007L193.186 194.256L195.977 192.506L197.069 192.173V191.659L196.411 191.232L195.507 191.044L195.08 190.241L196.078 190.003L197.778 188.961L198.776 189.243L199.89 189.149L200.692 188.505L201.806 188.577L201.734 189.098L200.15 190.003L198.494 190.335L198.161 190.712L198.704 191.138L201.242 190.191L204.294 188.975L204.034 188.476L204.844 187.789L205.603 187.905L205.343 188.643C205.343 188.643 205.415 189.735 205.531 189.778C205.646 189.829 207.454 190.068 207.454 190.068L208.517 189.475H210.318L212.502 189.706L213.826 188.802L213.854 188.136L213.522 187.803L213.71 187.138L216.668 185.119L219.155 184.237L220.435 183.448L220.819 182.645L220.457 182.146L219.365 179.65L220.168 177.943L221.101 176.822L221.151 175.548L221.766 175.028L222.851 174.275L223.09 172.944L222.757 172.756L224.601 169.775L227.111 166.845L227.154 165.514L226.633 161.355L226.207 160.552L227.009 158.041L227.667 157.05L227.805 156.197L229.75 154.634L230.032 153.874L229.512 151.444L230.553 148.506L230.271 146.235L230.647 144.528L230.553 143.58L231.124 141.113L230.459 132.207L230.444 130.558L230.965 129.321L230.98 128.135L230.415 128.749L229.374 127.99V127.23L230.322 125.769L230.083 124.3L230.322 123.309L231.175 123.07L231.363 121.508L230.459 120.047L228.709 119.244L229.179 119.055L229.41 118.491L229.743 119.2L230.777 119.815L231.725 120.148L232.101 118.73L232.997 118.781L233.373 119.584L234.039 119.916L233.33 120.907L232.383 121.616L232.151 122.419L232.816 122.463L234.097 121.284L235.847 120.379L238.074 116.972L239.065 114.462L239.398 112.942L240.251 112.183L241.104 109.911L242.052 107.972L245.508 105.6L245.935 104.471L246.977 104.138L247.729 102.908L250.665 100.261L253.268 96.7592L253.934 95.8115L255.539 92.2667L255.966 90.7041L256.769 89.5755V88.4397L255.915 87.1665L256.248 85.8426L257 85.1336L256.805 81.8926L256.045 81.4224L255.763 79.8091L253.492 74.7885V73.0812L253.116 70.9977L248.85 69.1023L246.384 69.1964L244.583 69.956L243.353 68.2559L241.929 67.9665L240.504 66.3605L238.609 65.4128L237.286 65.2247L234.35 62.0922L231.985 58.7789L230.849 58.4968L229.237 56.9776L227.812 57.0716L223.834 54.2285H222.034L220.045 53.3749L218.816 54.0404H216.921L215.778 53.4689L214.549 54.0404L213.985 54.8941L213.225 54.1417L211.432 52.8106L211.15 53.3749L210.39 52.7165L210.101 53.5702V54.2285L209.06 53.3749L208.872 52.7165L208.083 52.4923L208.322 53.1578L207.946 53.4183L206.001 52.6587L205.357 52.7817L203.723 52.4706L200.121 50.7633L198.747 50.8573L198.675 51.2624L198.964 52.0003L198.653 52.3548L197.901 51.9569L197.568 52.145L197.351 52.6876L196.1 53.2808L195.652 53.9464L195.464 55.4801L194.806 54.3443L194.422 53.3459L193.757 53.6353L193.851 54.8651L192.766 56.9414V58.6921L192.39 57.0354L192.817 55.3788L192.571 53.9102L193.236 51.7833L193.8 51.2624L193.33 50.8356L192.289 50.7922L193.663 49.2296L191.862 47.2908L190.821 45.6414L189.83 45.7354L188.362 45.4967L187.509 46.5818L186.655 47.0086L186.229 46.0175L185.614 45.6414L185.332 44.6937L184.58 44.0787L183.538 44.1728L183.01 43.5145L182.114 43.1817L181.593 43.8472V43.2757L180.884 42.8489L180.414 41.9084L179.611 42.2412L178.143 41.8144L176.205 40.6858L175.641 40.5845L175.308 41.1488L174.13 40.3386L173.276 40.4399L173.088 41.2501L172.524 41.2935L172.191 40.3965L170.68 40.3458L169.407 41.0548L168.698 42.3353L168.792 43.0876L167.375 44.5056L165.531 45.5979L163.166 46.9725L162.038 48.3904L161.329 50.2352L161.047 52.0365L160.432 52.9842L159.362 54.1128L159.434 54.8941L159.651 56.2469L159.413 58.721L158.986 57.2235L158.089 55.755L158.133 54.6626L159.037 53.5268L160.107 52.6442L159.941 50.8356L160.483 49.3164L160.375 48.5134L159.586 48.4917L158.046 49.0415L156.361 48.5423L154.886 48.6364L153.7 48.9475L152.868 48.2313L153.815 48.3542L154.929 47.5223L156.086 47.2546L158.053 47.6163L159.167 47.3559L160.215 46.0537L160.693 46.032L161.307 46.5022L161.966 46.2852L163.101 45.6197L165.017 44.9613V43.4421L166.724 41.4527V40.0275L167.39 39.0798L167.491 37.944L165.69 37.5606L164.265 36.4248H162.935L161.04 37.5606L159.434 37.6619L157.156 36.7142L154.698 36.5261L152.897 38.4215L152.998 39.1811L153.584 39.6152L153.967 40.259L153.107 40.3531L152.586 40.6424L152.116 41.7782L151.783 40.7871L151.168 40.5484L149.744 41.1127L148.232 43.2396L146.2 45.5545L147.712 43.4204L147.661 42.0459L147.994 41.2863L148.131 40.3386H147.466L146.142 41.431L145.484 42.9429L144.819 44.6502L143.727 45.3592L144.768 43.377L144.956 41.8144L147.278 38.9279L147.842 36.9891L148.695 35.8027L149.968 35.0937L151.342 34.0953L152.333 33.6685L153.562 31.8238L156.636 28.6985L156.824 27.9462L157.438 27.4687L156.78 26.6223L157.019 25.7252L157.446 25.3418L157.489 24.0613L156.26 23.1643L154.893 23.2655L154.466 23.7358L153.851 22.7013L152.998 20.2344L151.537 16.5955L150.214 14.7001L149.266 12.197L149.317 10.8225L148.984 9.44796L148.97 9.46243Z" fill="#F9F9F9"/>
</g>
<path d="M133.105 112.816C133.105 115.077 131.558 116.301 129.399 116.301L124.333 116.301V104.197H129.195C131.558 104.197 132.935 105.523 132.935 107.597C132.935 108.94 132.051 109.807 131.439 110.096C132.17 110.436 133.105 111.201 133.105 112.816ZM130.742 112.697C130.742 111.881 130.232 111.218 129.161 111.218H126.696V114.193L129.161 114.193C130.232 114.193 130.742 113.513 130.742 112.697ZM130.572 107.699C130.572 106.866 130.011 106.305 129.008 106.305H126.696V109.093H129.008C130.011 109.093 130.572 108.532 130.572 107.699ZM144.686 116.301H141.949L139.586 111.473H137.886V116.301H135.523V104.197H140.266C142.731 104.197 144.193 105.88 144.193 107.903C144.193 109.603 143.156 110.657 141.983 111.082L144.686 116.301ZM141.83 107.903C141.83 106.968 141.15 106.305 140.113 106.305H137.886V109.501H140.113C141.15 109.501 141.83 108.838 141.83 107.903ZM155.996 116.301H153.531L152.817 114.159H148.516L147.785 116.301H145.32L149.723 104.197H151.576L155.996 116.301ZM152.188 112.17L150.709 107.767L149.179 112.17H152.188ZM165.307 112.731C165.307 115.077 163.369 116.403 160.819 116.403C158.983 116.403 157.589 116.012 156.399 114.805L157.929 113.275C158.694 114.04 159.731 114.295 160.836 114.295C162.247 114.295 162.995 113.751 162.995 112.782C162.995 112.374 162.876 112.034 162.621 111.779C162.383 111.558 162.145 111.456 161.533 111.371L160.088 111.15C159.017 110.997 158.286 110.674 157.742 110.147C157.164 109.586 156.875 108.787 156.875 107.767C156.875 105.608 158.473 104.095 161.091 104.095C162.757 104.095 163.964 104.503 165.001 105.506L163.505 106.985C162.757 106.254 161.822 106.152 161.023 106.152C159.765 106.152 159.17 106.849 159.17 107.682C159.17 108.005 159.255 108.311 159.51 108.549C159.748 108.77 160.105 108.94 160.615 109.008L162.06 109.229C163.165 109.382 163.845 109.671 164.372 110.181C165.018 110.776 165.307 111.643 165.307 112.731ZM169.894 116.301H167.531V104.197H169.894V116.301ZM180.564 116.301H172.71V104.197H175.073V114.193H180.564V116.301ZM143.962 129.221C143.962 130.581 143.775 131.533 142.891 132.417C142.347 132.961 141.48 133.403 140.222 133.403C138.964 133.403 138.046 132.961 137.519 132.434C136.771 131.686 136.601 130.802 136.533 129.918H138.743C138.862 130.87 139.304 131.414 140.222 131.414C140.647 131.414 141.004 131.295 141.276 131.023C141.667 130.632 141.752 129.986 141.752 129.221C141.752 127.827 141.344 127.045 140.273 127.045C139.372 127.045 138.964 127.555 138.811 128.031H136.788V121.197H143.69V123.186H138.794V125.787C139.117 125.481 139.797 125.175 140.613 125.175C141.616 125.175 142.381 125.498 142.874 125.991C143.826 126.943 143.962 128.082 143.962 129.221ZM153.159 133.301H145.798V131.312L150.32 126.059C150.762 125.532 150.949 125.158 150.949 124.597C150.949 123.696 150.422 123.084 149.487 123.084C148.756 123.084 148.008 123.458 148.008 124.631H145.798C145.798 122.421 147.413 121.095 149.487 121.095C151.629 121.095 153.159 122.438 153.159 124.614C153.159 125.787 152.7 126.416 151.867 127.385L148.484 131.312H153.159V133.301ZM158.241 125.039V123.492C158.241 122.829 157.935 122.523 157.391 122.523C156.83 122.523 156.524 122.829 156.524 123.492V125.039C156.524 125.702 156.83 126.008 157.391 126.008C157.935 126.008 158.241 125.702 158.241 125.039ZM159.839 125.107C159.839 126.637 158.717 127.436 157.391 127.436C156.048 127.436 154.909 126.637 154.909 125.107V123.424C154.909 121.894 156.048 121.095 157.391 121.095C158.717 121.095 159.839 121.894 159.839 123.424V125.107ZM165.959 131.023V129.459C165.959 128.813 165.653 128.49 165.092 128.49C164.531 128.49 164.225 128.813 164.225 129.459V131.023C164.225 131.669 164.531 131.975 165.092 131.975C165.653 131.975 165.959 131.669 165.959 131.023ZM167.557 131.074C167.557 132.621 166.435 133.403 165.092 133.403C163.749 133.403 162.627 132.621 162.627 131.074V129.391C162.627 127.861 163.749 127.062 165.092 127.062C166.435 127.062 167.557 127.861 167.557 129.391V131.074ZM164.973 121.197L159.244 133.301H157.51L163.239 121.197H164.973Z" fill="#FF8B70"/>
<defs>
<clipPath id="clip0_171_3">
<rect width="257" height="270" fill="white"/>
</clipPath>
</defs>
</svg>
