<svg width="562" height="77" viewBox="0 0 562 77" fill="none" xmlns="http://www.w3.org/2000/svg">
<path d="M33.8168 39.3108C35.0855 33.1414 31.1035 27.1135 24.9226 25.8471C18.7418 24.5808 12.7027 28.5554 11.434 34.7248C10.1652 40.8942 14.1473 46.9221 20.3281 48.1885C26.5089 49.4549 32.548 45.4802 33.8168 39.3108Z" stroke="#006B67" stroke-width="2.5" stroke-linejoin="round"/>
<path d="M44.0232 75.4222V65.7125C44.0232 59.8583 39.2714 55.1152 33.4063 55.1152H11.8669C6.00182 55.1152 1.25 59.8583 1.25 65.7125V75.4222H44.03H44.0232Z" stroke="#006B67" stroke-width="2.5" stroke-linejoin="round"/>
<path d="M119.819 39.3074C121.088 33.138 117.106 27.1101 110.925 25.8437C104.744 24.5773 98.7052 28.552 97.4364 34.7214C96.1677 40.8908 100.15 46.9187 106.331 48.1851C112.511 49.4515 118.55 45.4768 119.819 39.3074Z" stroke="#006B67" stroke-width="2.5" stroke-linejoin="round"/>
<path d="M130.023 75.4222V65.7125C130.023 59.8583 125.271 55.1152 119.406 55.1152H97.8669C92.0018 55.1152 87.25 59.8583 87.25 65.7125V75.4222H130.03H130.023Z" stroke="#006B67" stroke-width="2.5" stroke-linejoin="round"/>
<path d="M205.815 39.3104C207.084 33.141 203.102 27.1131 196.921 25.8467C190.74 24.5803 184.701 28.5549 183.433 34.7243C182.164 40.8937 186.146 46.9216 192.327 48.188C198.507 49.4544 204.547 45.4798 205.815 39.3104Z" stroke="#006B67" stroke-width="2.5" stroke-linejoin="round"/>
<path d="M216.023 75.4222V65.7125C216.023 59.8583 211.271 55.1152 205.406 55.1152H183.867C178.002 55.1152 173.25 59.8583 173.25 65.7125V75.4222H216.03H216.023Z" stroke="#006B67" stroke-width="2.5" stroke-linejoin="round"/>
<path d="M291.818 39.3064C293.086 33.137 289.104 27.1092 282.924 25.8428C276.743 24.5764 270.704 28.551 269.435 34.7204C268.166 40.8898 272.148 46.9177 278.329 48.1841C284.51 49.4505 290.549 45.4758 291.818 39.3064Z" stroke="#006B67" stroke-width="2.5" stroke-linejoin="round"/>
<path d="M302.023 75.4222V65.7125C302.023 59.8583 297.271 55.1152 291.406 55.1152H269.867C264.002 55.1152 259.25 59.8583 259.25 65.7125V75.4222H302.03H302.023Z" stroke="#006B67" stroke-width="2.5" stroke-linejoin="round"/>
<path d="M377.82 39.3094C379.089 33.14 375.107 27.1121 368.926 25.8457C362.745 24.5793 356.706 28.554 355.437 34.7234C354.169 40.8928 358.151 46.9207 364.332 48.1871C370.512 49.4535 376.551 45.4788 377.82 39.3094Z" stroke="#006B67" stroke-width="2.5" stroke-linejoin="round"/>
<path d="M388.023 75.4222V65.7125C388.023 59.8583 383.271 55.1152 377.406 55.1152H355.867C350.002 55.1152 345.25 59.8583 345.25 65.7125V75.4222H388.03H388.023Z" stroke="#006B67" stroke-width="2.5" stroke-linejoin="round"/>
<path d="M463.823 39.306C465.092 33.1366 461.11 27.1086 454.929 25.8422C448.748 24.5759 442.709 28.5505 441.44 34.7199C440.172 40.8893 444.154 46.9172 450.334 48.1836C456.515 49.45 462.554 45.4754 463.823 39.306Z" stroke="#006B67" stroke-width="2.5" stroke-linejoin="round"/>
<path d="M474.023 75.4222V65.7125C474.023 59.8583 469.271 55.1152 463.406 55.1152H441.867C436.002 55.1152 431.25 59.8583 431.25 65.7125V75.4222H474.03H474.023Z" stroke="#006B67" stroke-width="2.5" stroke-linejoin="round"/>
<path d="M549.819 39.3089C551.087 33.1395 547.105 27.1116 540.925 25.8452C534.744 24.5788 528.705 28.5535 527.436 34.7229C526.167 40.8923 530.149 46.9202 536.33 48.1866C542.511 49.453 548.55 45.4783 549.819 39.3089Z" stroke="#006B67" stroke-width="2.5" stroke-linejoin="round"/>
<path d="M560.023 75.4222V65.7125C560.023 59.8583 555.271 55.1152 549.406 55.1152H527.867C522.002 55.1152 517.25 59.8583 517.25 65.7125V75.4222H560.03H560.023Z" stroke="#006B67" stroke-width="2.5" stroke-linejoin="round"/>
<path d="M22.25 17.1064C22.25 17.1064 24.811 14.6655 30.25 11.1064" stroke="#006B67" stroke-width="2.5" stroke-linejoin="round"/>
<path d="M36.3481 7.1035C43.195 3.95064 52.7597 1.25 65.4256 1.25C82.2292 1.25 93.5622 6.00159 100.348 10.25" stroke="#006B67" stroke-width="2.5" stroke-linejoin="round" stroke-dasharray="8 7"/>
<path d="M105.348 14.25C107.388 16.0295 108.348 17.25 108.348 17.25C108.348 17.25 109.309 16.0295 111.348 14.25" stroke="#006B67" stroke-width="2.5" stroke-linejoin="round"/>
<path d="M122.348 7.1035C129.302 3.95064 139.016 1.25 151.88 1.25C168.946 1.25 180.456 6.00159 187.348 10.25" stroke="#006B67" stroke-width="2.5" stroke-linejoin="round" stroke-dasharray="8 7"/>
<path d="M191.348 14.25C193.388 16.0295 194.348 17.25 194.348 17.25C194.348 17.25 195.309 16.0295 197.348 14.25" stroke="#006B67" stroke-width="2.5" stroke-linejoin="round"/>
<path d="M208.348 7.1035C215.195 3.95064 224.76 1.25 237.426 1.25C254.229 1.25 265.562 6.00159 272.348 10.25" stroke="#006B67" stroke-width="2.5" stroke-linejoin="round" stroke-dasharray="8 7"/>
<path d="M277.348 14.25C279.388 16.0295 280.348 17.25 280.348 17.25C280.348 17.25 281.309 16.0295 283.348 14.25" stroke="#006B67" stroke-width="2.5" stroke-linejoin="round"/>
<path d="M293.348 7.1035C300.302 3.95064 310.016 1.25 322.88 1.25C339.946 1.25 351.456 6.00159 358.348 10.25" stroke="#006B67" stroke-width="2.5" stroke-linejoin="round" stroke-dasharray="8 7"/>
<path d="M363.348 14.25C365.388 16.0295 366.348 17.25 366.348 17.25C366.348 17.25 367.309 16.0295 369.348 14.25" stroke="#006B67" stroke-width="2.5" stroke-linejoin="round"/>
<path d="M379.348 7.1035C386.302 3.95064 396.016 1.25 408.88 1.25C425.946 1.25 437.456 6.00159 444.348 10.25" stroke="#006B67" stroke-width="2.5" stroke-linejoin="round" stroke-dasharray="8 7"/>
<path d="M449.348 14.25C451.388 16.0295 452.348 17.25 452.348 17.25C452.348 17.25 453.309 16.0295 455.348 14.25" stroke="#006B67" stroke-width="2.5" stroke-linejoin="round"/>
<path d="M465.348 7.1035C472.302 3.95064 482.016 1.25 494.88 1.25C511.946 1.25 523.456 6.00159 530.348 10.25" stroke="#006B67" stroke-width="2.5" stroke-linejoin="round" stroke-dasharray="8 7"/>
<path d="M535.348 14.25C537.388 16.0295 538.348 17.25 538.348 17.25" stroke="#006B67" stroke-width="2.5" stroke-linejoin="round"/>
</svg>
