<svg width="130" height="130" viewBox="0 0 130 130" fill="none" xmlns="http://www.w3.org/2000/svg">
<g clip-path="url(#clip0_130_949)">
<path d="M38.0507 48.1572C38.0507 49.8075 38.1199 51.1115 38.0392 52.404C37.9123 54.4235 37.0588 55.993 35.0865 56.8008C33.1257 57.5971 31.3841 57.1701 29.8962 55.7506C27.7509 53.708 25.7324 51.5269 23.4948 49.5997C22.6067 48.8381 21.3033 48.3303 20.1269 48.1918C17.3356 47.8687 14.4983 47.9841 11.707 47.6725C6.53978 47.1071 3.65627 44.1874 3.03343 39.0059C2.74508 36.6401 2.50287 34.2628 2.52594 31.8856C2.59514 24.4537 2.59514 17.0103 3.03343 9.58997C3.36792 3.85451 6.65512 0.888682 12.3645 0.392455C14.9596 0.173192 17.5548 0.0231696 20.1499 0.0231696C41.8916 8.9291e-05 63.6217 8.9291e-05 85.3633 0.0231696C87.6009 0.0231696 89.8385 0.196272 92.0646 0.369375C97.9815 0.830981 101.511 3.81989 101.73 9.72845C102.076 19.3183 102.076 28.9313 101.73 38.5212C101.522 44.222 98.2814 47.1417 92.6413 47.6956C88.985 48.0534 85.2941 48.1226 81.6148 48.1341C67.97 48.1803 54.3137 48.1572 40.669 48.1572C39.8962 48.1572 39.1119 48.1572 38.0623 48.1572H38.0507ZM33.1603 52.1847C33.1603 50.1075 33.1603 48.6881 33.1603 47.2686C33.1603 43.8643 33.6678 43.345 37.0242 43.345C53.2064 43.345 69.3887 43.345 85.5709 43.3103C87.6586 43.3103 89.7578 43.2296 91.8339 42.9641C95.594 42.4794 96.8051 41.487 96.9319 37.7595C97.2203 29.6814 97.1972 21.5917 97.2433 13.5021C97.2433 12.0711 96.9665 10.6286 96.7589 9.1976C96.459 7.10883 95.3518 5.70093 93.1718 5.45859C90.4498 5.17008 87.7162 4.82388 84.9827 4.81234C64.256 4.75464 43.5179 4.75464 22.7912 4.77772C19.6194 4.77772 16.436 4.89312 13.2756 5.147C9.28488 5.47013 7.94693 6.45104 7.80852 10.4439C7.48557 19.0991 7.57784 27.7657 7.5317 36.4209C7.5317 37.2056 7.77392 37.9903 7.88926 38.7751C8.25835 41.2677 9.71163 42.6756 12.1915 42.8603C15.2826 43.0911 18.3852 43.2988 21.4763 43.2757C23.3679 43.2757 24.7635 43.8412 26.0554 45.2029C28.1776 47.4302 30.4383 49.5305 33.1488 52.1732L33.1603 52.1847Z" fill="#F9F9F9"/>
<path d="M97.1743 59.6279C99.6425 57.2276 101.869 54.8619 104.325 52.7846C105.329 51.9307 106.794 51.3652 108.109 51.2267C111.257 50.892 114.464 51.0421 117.601 50.6959C120.704 50.3612 121.511 49.4034 122.134 46.3568C122.272 45.6528 122.457 44.9258 122.457 44.2218C122.399 35.5552 122.491 26.8885 122.157 18.2334C122.007 14.3097 120.623 13.3173 116.632 12.9826C114.049 12.7633 111.442 12.6825 108.847 12.6248C107.174 12.5902 105.917 12.0825 105.929 10.2245C105.929 8.51654 107.151 7.77797 108.685 7.84721C112.284 7.99723 115.917 8.06647 119.47 8.57424C123.368 9.12817 125.732 11.6439 126.621 15.4753C126.909 16.7331 127.232 18.0372 127.22 19.3181C127.163 28.5618 127.255 37.8055 126.817 47.0376C126.574 52.1268 123.356 54.9196 118.247 55.4966C115.456 55.8082 112.618 55.7043 109.827 56.0274C108.651 56.1659 107.347 56.6737 106.459 57.4353C104.268 59.3048 102.284 61.4282 100.208 63.4362C98.6737 64.9249 96.9205 65.4557 94.8559 64.6133C92.7798 63.7593 91.9839 62.0975 91.9032 59.9972C91.8571 58.774 91.9032 57.5507 91.9032 55.9928C89.4926 55.9928 87.2088 55.9697 84.9251 55.9928C83.2873 56.0159 81.9493 55.5196 81.8917 53.6848C81.8225 51.7114 83.195 51.1575 84.9366 51.169C87.8317 51.1921 90.7152 51.1575 93.6102 51.1805C96.0785 51.2036 96.7475 51.9191 96.7936 54.481C96.8167 55.9236 96.8167 57.3661 96.8513 58.8201C96.8513 58.9471 96.9436 59.074 97.1743 59.6395V59.6279Z" fill="#F9F9F9"/>
<path d="M49.9424 78.1964C50.6921 74.7921 50.8997 71.1569 52.2953 68.0411C55.0058 61.9825 61.6725 59.1551 68.2353 60.5746C74.4983 61.9363 79.1811 67.4756 79.3311 74.065C79.4118 77.8733 79.5387 81.7739 78.8121 85.4667C77.451 92.3677 70.819 96.8107 63.6448 96.2452C56.7821 95.6913 51.1189 89.9905 50.6344 83.0894C50.5191 81.5084 50.6229 79.9159 50.6229 78.3234C50.3922 78.2772 50.1731 78.231 49.9424 78.1849V78.1964ZM55.0404 78.231C55.1558 78.2426 55.2711 78.2657 55.3864 78.2772C55.3864 79.5697 55.3518 80.8737 55.3864 82.1662C55.5595 87.3247 59.7694 91.4445 64.8789 91.4676C70.1269 91.5022 74.383 87.417 74.5329 82.1201C74.6137 79.5235 74.6137 76.927 74.5329 74.3305C74.4061 69.7029 71.2111 66.0908 66.5514 65.156C62.3645 64.3251 57.7971 66.6332 56.263 70.8453C55.4326 73.1418 55.4095 75.7384 55.0289 78.208L55.0404 78.231Z" fill="#F9F9F9"/>
<path d="M64.9829 100.896C75.352 100.711 83.7372 104.415 89.6081 113.174C92.3301 117.237 93.5527 121.807 93.8872 126.642C94.0025 128.35 93.472 129.815 91.6035 129.954C89.7003 130.081 89.0198 128.731 88.9968 126.976C88.8699 117.502 82.0994 108.547 72.5838 106.654C65.6634 105.281 58.6046 105.004 52.1225 108.639C45.4904 112.355 41.8341 118.137 41.0498 125.719C40.9921 126.226 40.9691 126.723 40.946 127.23C40.8999 128.938 40.0925 130.104 38.3278 129.965C36.5746 129.827 36.0441 128.488 36.0671 126.838C36.2401 114.398 45.9749 103.25 58.3163 101.473C60.5193 101.15 62.7684 101.092 64.9945 100.919L64.9829 100.896Z" fill="#F9F9F9"/>
<path d="M39.6077 83.9895C38.9849 86.84 38.8003 89.8866 37.6469 92.5062C35.2478 97.9416 29.8153 100.527 23.7253 99.7188C18.4889 99.0264 13.6907 94.7911 13.0448 89.2634C12.5604 85.1205 12.5835 80.7006 13.4716 76.65C14.8326 70.4991 21.0495 66.8293 27.3816 67.5333C33.6792 68.2372 38.5581 73.2572 39.0195 79.5466C39.1233 80.9776 39.031 82.4316 39.031 83.8741C39.2271 83.9088 39.4116 83.9434 39.6077 83.978V83.9895ZM34.2675 83.8164C34.2675 82.6624 34.3136 81.4969 34.2675 80.3428C34.0829 75.8999 30.5766 72.4032 26.2052 72.2878C21.6492 72.1609 17.9122 75.3921 17.5777 79.9505C17.4047 82.397 17.4047 84.8666 17.5662 87.3131C17.8776 91.8715 21.6146 95.1604 26.136 95.0566C30.6227 94.9412 34.1175 91.4329 34.279 86.8515C34.3136 85.836 34.279 84.832 34.279 83.8164H34.2675Z" fill="#F9F9F9"/>
<path d="M117.359 83.6545C117.543 87.1627 117.243 90.567 115.305 93.6598C112.203 98.6105 106.436 100.919 100.657 99.476C95.2939 98.1258 91.1763 93.2328 90.9456 87.5781C90.8187 84.3469 90.6457 81.0233 91.234 77.8729C92.4796 71.2373 98.5696 66.9097 105.156 67.4982C111.88 68.0983 116.955 73.3606 117.347 80.204C117.416 81.358 117.347 82.512 117.347 83.666L117.359 83.6545ZM112.434 83.6429C112.434 83.6429 112.399 83.6429 112.376 83.6429C112.376 82.2812 112.514 80.8964 112.353 79.5462C111.822 75.1725 108.062 72.1028 103.622 72.299C99.3424 72.4951 95.8937 75.911 95.7092 80.227C95.6169 82.4543 95.6284 84.6931 95.7092 86.9319C95.8591 91.4672 99.4116 94.9638 103.887 95.0562C108.397 95.1485 112.053 91.8711 112.422 87.3243C112.526 86.1125 112.434 84.8777 112.434 83.6545V83.6429Z" fill="#F9F9F9"/>
<path d="M26.0667 108.281C18.4081 108.2 12.272 110.809 7.93518 117.202C5.98593 120.087 5.10935 123.341 4.821 126.78C4.62492 129.065 3.7368 130.231 2.20277 129.965C0.161249 129.607 -0.0809656 128.073 0.0228406 126.342C0.784086 113.717 10.6572 104.023 23.3792 103.861C27.5776 103.804 31.8337 104.485 35.9975 105.223C38.3389 105.639 39.1232 107.196 38.4196 108.743C37.5776 110.601 36.0897 110.151 34.5211 109.805C31.7299 109.193 28.8925 108.777 26.0667 108.27V108.281Z" fill="#F9F9F9"/>
<path d="M104.025 103.296C114.475 103.538 122.595 107.485 127.324 116.925C128.801 119.868 129.216 123.364 129.908 126.653C130.265 128.303 129.573 129.827 127.67 129.942C125.744 130.058 125.26 128.684 125.133 126.919C124.371 116.059 116.505 108.616 105.652 108.731C102.099 108.766 98.5353 109.447 94.9943 109.943C93.5526 110.151 92.3415 110.047 91.7879 108.547C91.2112 106.943 91.9493 105.731 93.4834 105.373C96.9666 104.565 100.496 103.977 104.014 103.296H104.025Z" fill="#F9F9F9"/>
</g>
<defs>
<clipPath id="clip0_130_949">
<rect width="130" height="130" fill="white"/>
</clipPath>
</defs>
</svg>
