<svg width="173" height="114" viewBox="0 0 173 114" fill="none" xmlns="http://www.w3.org/2000/svg">
<path d="M66.5576 113.312V93.3878C66.5576 86.5941 72.0425 81.0884 78.8103 81.0884H105.59C112.358 81.0884 117.842 86.5941 117.842 93.3878V113.312" stroke="#F9F9F9" stroke-width="3" stroke-linejoin="round"/>
<path d="M79.4009 113.312V98.5596" stroke="#F9F9F9" stroke-width="3" stroke-linejoin="round"/>
<path d="M105.006 98.5596V113.312" stroke="#F9F9F9" stroke-width="3" stroke-linejoin="round"/>
<path d="M103.269 62.0429C103.269 68.1756 98.3133 73.1499 92.2039 73.1499C86.0945 73.1499 81.1392 68.1756 81.1392 62.0429C81.1392 55.9103 86.0945 50.936 92.2039 50.936C98.3133 50.936 103.269 55.9103 103.269 62.0429Z" stroke="#F9F9F9" stroke-width="3" stroke-linejoin="round"/>
<path d="M1.5 113.312V93.3878C1.5 86.5941 6.98486 81.0884 13.7527 81.0884H40.5321C47.3 81.0884 52.7848 86.5941 52.7848 93.3878V113.312" stroke="#F9F9F9" stroke-width="3" stroke-linejoin="round"/>
<path d="M14.3433 113.312V98.5596" stroke="#F9F9F9" stroke-width="3" stroke-linejoin="round"/>
<path d="M39.9482 98.5596V113.312" stroke="#F9F9F9" stroke-width="3" stroke-linejoin="round"/>
<path d="M38.2106 62.0429C38.2106 68.1756 33.2552 73.1499 27.1458 73.1499C21.0364 73.1499 16.0811 68.1756 16.0811 62.0429C16.0811 55.9103 21.0364 50.936 27.1458 50.936C33.2552 50.936 38.2106 55.9103 38.2106 62.0429Z" stroke="#F9F9F9" stroke-width="3" stroke-linejoin="round"/>
<path d="M45.8267 1.5H102.318V33.6623H73.3867L58.3984 47.3381V33.6623H45.8267V1.5Z" stroke="#F9F9F9" stroke-width="3" stroke-linejoin="round"/>
<path d="M114.116 1.5H170.607V33.6623H141.676L126.694 47.3381V33.6623H114.116V1.5Z" stroke="#F9F9F9" stroke-width="3" stroke-linejoin="round"/>
</svg>
