<svg width="142" height="132" viewBox="0 0 142 132" fill="none" xmlns="http://www.w3.org/2000/svg">
<g clip-path="url(#clip0_130_936)">
<path d="M11.3355 59.2868C12.1983 58.6606 12.8972 57.8145 13.7381 57.6387C14.7318 57.419 16.1843 57.386 16.8504 57.9574C17.8879 58.8473 17.6695 60.2757 16.5119 61.1986C14.5134 62.7808 12.515 64.3629 10.4073 65.7803C8.58356 67.0108 6.68338 66.7252 5.24187 65.0221C3.59287 63.0774 2.07491 61.0228 0.54603 58.9902C-0.294853 57.8695 -0.109204 56.7488 0.93917 55.8698C2.02031 54.9689 3.1342 55.1337 4.06245 56.1225C4.80505 56.9136 5.44936 57.8145 6.2684 58.8254C6.98916 55.0458 7.42598 51.442 8.37607 47.97C14.1967 26.6769 27.3778 11.9321 47.7447 3.71366C49.4592 3.02147 51.272 2.58198 53.0084 1.94473C54.6356 1.34043 55.9897 1.60412 56.5139 3.30714C57.0599 5.07607 55.9133 5.94406 54.3189 6.39453C43.4857 9.49292 34.236 15.1953 26.6025 23.5345C17.8988 33.0385 12.9299 44.2893 11.2373 57.0454C11.1717 57.5289 11.1717 58.0123 11.1608 58.4958C11.1608 58.6825 11.2373 58.8693 11.3246 59.2758L11.3355 59.2868Z" fill="#006B67"/>
<path d="M97.597 10.1961C98.0885 11.5585 98.4816 12.5034 98.7765 13.4812C99.1696 14.7887 98.7765 15.8545 97.4769 16.3599C96.1992 16.8543 95.0962 16.4148 94.572 15.1513C93.5455 12.6682 92.5299 10.1631 91.7218 7.60308C91.1321 5.73526 91.8638 4.08719 93.622 3.25216C96.0354 2.09851 98.5362 1.13163 101.048 0.186736C102.315 -0.285713 103.418 0.186736 103.898 1.49421C104.368 2.76872 103.909 3.82349 102.675 4.42779C101.823 4.8453 100.917 5.1859 99.661 5.71329C100.971 6.29561 101.987 6.7351 103.003 7.20754C125.608 17.7223 138.571 35.3457 141.629 60.2646C141.858 62.1105 141.891 63.9893 141.989 65.8461C142.076 67.5272 141.465 68.8017 139.619 68.7797C137.883 68.7577 137.381 67.5052 137.37 65.923C137.271 56.7158 135.251 47.959 131.09 39.7626C124.079 25.9407 113.334 16.206 98.973 10.5367C98.6782 10.4158 98.3396 10.3719 97.597 10.1961Z" fill="#006B67"/>
<path d="M42.044 121.881C41.8256 120.793 41.3997 119.925 41.5854 119.222C41.8475 118.222 42.3389 116.959 43.1361 116.486C44.3046 115.794 45.5059 116.64 45.8662 117.893C46.6416 120.606 47.3187 123.353 47.821 126.133C48.1377 127.902 47.1767 129.297 45.5168 129.858C42.9177 130.726 40.2749 131.539 37.5885 131.989C36.8131 132.121 35.2624 131.077 35.0658 130.319C34.8802 129.594 35.7975 128.231 36.5947 127.693C37.5448 127.045 38.8771 126.979 40.3732 126.572C37.512 124.792 34.8474 123.276 32.3357 121.54C23.4463 115.398 16.5882 107.433 11.6085 97.8189C11.39 97.3904 11.2153 96.94 11.0078 96.5005C10.3744 95.1381 10.713 94.0064 12.0234 93.3691C13.3448 92.7209 14.3495 93.2812 15.1249 94.5228C17.5602 98.4342 19.8207 102.488 22.5836 106.158C27.2467 112.344 33.2202 117.09 39.9473 120.881C40.5261 121.211 41.1595 121.463 42.055 121.881H42.044Z" fill="#006B67"/>
<path d="M128.601 99.8184C127.225 100.159 126.253 100.39 125.303 100.653C123.785 101.071 122.638 100.555 122.212 99.0823C121.775 97.555 122.605 96.5662 124.09 96.1706C126.416 95.5554 128.732 94.9071 131.069 94.4017C133.351 93.8963 134.978 94.8192 135.732 97.0826C136.507 99.4338 137.14 101.84 137.763 104.246C138.123 105.642 137.621 106.773 136.201 107.18C134.661 107.619 133.711 106.817 133.275 105.345C133.045 104.576 132.838 103.807 132.587 102.906C130.239 106.191 128.164 109.41 125.783 112.388C119.657 120.046 112.089 125.891 103.232 130.066C101.692 130.791 100.349 131.154 99.3771 129.352C98.6454 128.001 99.3225 126.814 101.255 125.891C112.362 120.595 121.087 112.651 127.421 102.038C127.771 101.455 128.054 100.84 128.59 99.8294L128.601 99.8184Z" fill="#006B67"/>
<path d="M84.5361 99.7524C84.5798 106.015 81.6421 109.97 76.1709 110.992C73.3098 111.531 70.7653 110.707 68.4173 109.059C63.0554 105.323 63.2519 94.0281 68.1225 90.4353C71.2458 88.128 74.5547 87.3808 78.1803 88.8201C81.9588 90.3144 84.0337 93.226 84.5361 97.2693C84.6344 98.0823 84.547 98.9284 84.547 99.7524H84.5361ZM79.9822 99.3019C79.9822 99.1701 80.0259 98.6207 79.9822 98.0714C79.6983 94.8631 77.4923 92.7536 74.4782 92.7975C71.5297 92.8415 69.4111 94.8741 69.1818 98.0274C69.0835 99.3898 69.0944 100.807 69.3347 102.148C69.979 105.872 73.9977 107.674 77.263 105.773C79.6 104.411 80.0805 102.203 79.9931 99.3019H79.9822Z" fill="#006B67"/>
<path d="M41.6621 56.9355C41.6621 64.3629 37.3485 68.9555 30.7088 68.4061C29.2564 68.2853 27.7275 67.7689 26.4498 67.0327C21.5028 64.1761 20.5854 58.3309 22.0379 52.6835C23.261 47.948 27.5746 45.2232 32.598 45.5748C38.0146 45.9593 41.6512 50.508 41.6621 56.9245V56.9355ZM26.1768 57.1772C25.9911 59.6933 26.6136 62.1325 29.4311 63.407C32.2267 64.6705 35.5794 63.396 36.584 60.4954C37.687 57.353 37.5997 52.1231 33.6901 50.563C29.6167 48.9259 26.1768 51.7825 26.1658 57.1772H26.1768Z" fill="#006B67"/>
<path d="M84.6781 14.4592C85.1259 22.326 78.6391 26.8967 72.9495 25.7101C71.2677 25.3585 69.5204 24.5784 68.1881 23.5017C63.8635 20.0517 63.9182 15.1734 64.9228 10.4159C65.7856 6.29573 68.7232 3.84559 72.8949 3.02155C77.9948 2.0327 83.2803 5.58156 84.3178 10.7565C84.558 11.9651 84.5689 13.2177 84.6891 14.4482L84.6781 14.4592ZM80.1133 14.4702C79.9605 13.3825 79.9277 12.2618 79.6328 11.218C78.8356 8.40527 75.6468 6.81213 72.9058 7.76801C70.5469 8.59205 69.2692 10.339 69.1491 13.1188C69.0181 16.0633 68.9525 19.0299 72.1086 20.667C72.5891 20.9087 73.1351 21.0515 73.6702 21.1284C77.547 21.6778 79.9823 19.1068 80.1133 14.4592V14.4702Z" fill="#006B67"/>
<path d="M127.53 57.1333C127.552 64.3959 123.085 68.9445 116.435 68.4501C112.176 68.1315 108.135 64.6595 107.775 60.3855C107.524 57.43 107.534 54.2217 108.452 51.4639C109.937 46.9922 114.84 44.8057 119.547 45.7176C123.959 46.5746 127.333 50.6179 127.519 55.2765C127.541 55.8918 127.519 56.518 127.519 57.1443L127.53 57.1333ZM123.107 57.0235C122.911 53.4636 121.993 51.6397 119.7 50.6179C117.669 49.717 115.375 50.1015 113.781 51.6178C111.99 53.3318 111.335 57.5728 112.438 60.3965C113.235 62.4511 115.179 63.8465 117.363 63.8685C119.634 63.8904 121.404 62.8686 122.321 60.814C122.834 59.6604 122.867 58.287 123.118 57.0235H123.107Z" fill="#006B67"/>
<path d="M74.7621 113.421C81.9806 113.388 87.8231 115.981 91.1757 122.705C92.1585 124.683 92.4643 127.034 92.8356 129.253C93.0868 130.77 92.1476 131.813 90.5751 131.835C89.1226 131.857 88.4456 130.912 88.2599 129.451C87.3426 122.09 82.9088 118.09 75.5593 118.123C73.3206 118.123 70.9617 118.167 68.865 118.849C64.06 120.42 61.2861 123.903 60.8602 129.067C60.7183 130.748 60.1176 132 58.283 131.813C56.4483 131.638 56.0989 130.198 56.1971 128.594C56.6995 120.31 63.6777 113.882 72.6981 113.421C73.3861 113.388 74.0741 113.421 74.7621 113.421Z" fill="#006B67"/>
<path d="M74.6419 28.2478C81.9914 28.039 87.8448 30.7309 91.2083 37.532C92.213 39.5646 92.5516 42.0038 92.7591 44.3001C92.8246 45.0033 91.5469 46.2778 90.6732 46.5195C89.4501 46.8601 88.3799 45.9262 88.3253 44.5308C87.954 35.4224 80.2004 31.6648 71.3766 32.9833C65.1628 33.9062 61.4935 37.7627 60.8601 43.9045C60.6963 45.5087 60.0957 46.6843 58.4139 46.5854C56.6011 46.4755 56.1315 45.1241 56.208 43.4651C56.5683 35.5213 63.4265 28.7972 71.7698 28.2588C72.7308 28.1929 73.6918 28.2588 74.6528 28.2588L74.6419 28.2478Z" fill="#006B67"/>
<path d="M49.8962 85.6779C49.9727 87.6995 49.6341 89.1059 47.7339 89.2048C45.9648 89.3037 45.5062 88.0621 45.3205 86.5129C44.4905 79.7228 39.9257 75.6246 33.1332 75.4928C31.9647 75.4708 30.7962 75.4598 29.6277 75.4928C23.2173 75.6796 18.4778 80.0854 17.8553 86.5239C17.7024 88.1171 17.1782 89.3147 15.4419 89.1938C13.5744 89.0729 13.2031 87.6666 13.2905 86.0515C13.7273 78.4373 19.8428 71.845 27.6074 70.988C32.467 70.4497 37.3703 70.4277 41.815 73.1196C46.6856 76.0641 49.3939 80.3711 49.8853 85.6669L49.8962 85.6779Z" fill="#006B67"/>
<path d="M135.808 86.3264C135.797 87.8866 135.339 89.0952 133.701 89.216C131.964 89.3369 131.364 88.2272 131.211 86.6121C130.632 80.1736 125.947 75.7128 119.515 75.537C116.435 75.4491 113.334 75.2184 110.44 76.7236C106.77 78.6244 104.423 81.4481 103.898 85.6452C103.844 86.1286 103.778 86.6011 103.713 87.0845C103.516 88.414 102.817 89.282 101.408 89.238C99.9014 89.1941 99.1807 88.2162 99.1807 86.7879C99.1807 83.3599 100.251 80.2615 102.326 77.5476C105.482 73.4384 109.675 71.197 114.83 70.8894C119.318 70.6257 123.763 70.7136 127.793 73.1967C132.707 76.2292 135.393 80.6241 135.808 86.3264Z" fill="#006B67"/>
</g>
<defs>
<clipPath id="clip0_130_936">
<rect width="142" height="132" fill="white"/>
</clipPath>
</defs>
</svg>
