<svg width="135" height="78" viewBox="0 0 135 78" fill="none" xmlns="http://www.w3.org/2000/svg">
<g clip-path="url(#clip0_130_689)">
<path d="M134.553 27.9671C133.613 27.616 132.173 28.7141 132.173 28.7141C132.173 28.7141 131.479 28.4676 130.979 28.9157C130.979 28.9157 129.89 29.0128 128.502 28.1688C127.115 27.3247 124.631 26.0847 123.691 25.7336C122.751 25.3825 121.758 23.9931 121.654 23.5972C121.557 23.2013 121.206 21.558 120.266 20.7662C119.326 19.9743 118.976 18.5327 118.976 18.5327C118.976 18.5327 118.938 18.4281 118.864 18.2563C119.304 18.1666 119.737 18.0621 120.11 17.9351C121.452 17.4869 121.848 17.8828 123.683 15.7987C125.518 13.7146 125.018 9.19538 123.235 5.22143C121.452 1.24748 121.303 3.13735 121.154 4.52673C121.005 5.91612 120.11 7.95539 118.774 9.98718C117.924 11.2795 116.074 12.4522 114.798 13.1469C114.425 12.9228 114.037 12.7211 113.612 12.5717C113.612 12.5717 114.507 10.0918 113.91 8.0525C113.313 6.01323 111.53 1.99446 110.837 1.29977C110.143 0.605071 109.897 1.00097 109.203 2.53976C108.509 4.07854 107.867 5.07203 107.569 6.11781C107.271 7.16359 106.129 8.85177 106.129 8.85177C106.129 8.85177 102.608 7.16359 100.079 7.1113C97.5499 7.05901 96.7069 7.01419 94.8195 6.46889C92.9321 5.92359 90.0599 4.38481 87.8218 3.88433C85.5912 3.39132 83.01 3.58554 80.481 3.39132C77.952 3.18963 74.7292 2.09904 72.8417 1.65085C70.9543 1.19519 63.9641 0.104593 60.04 1.49438e-05C56.1234 -0.0970929 43.1202 1.88988 39.0544 2.92819C34.9886 3.97397 34.1904 2.98048 32.109 3.5706C30.0276 4.16818 24.4697 5.80408 21.8885 8.63514C19.3072 11.4662 14.846 12.6614 11.8694 15.739C11.0861 16.5457 8.34819 18.9659 7.30376 21.7522C7.10234 22.2825 6.95313 22.8129 6.84869 23.3507C6.58012 24.0081 6.3414 24.7028 6.16235 25.4273C5.11792 29.7001 4.08095 31.9858 2.88732 34.2716C1.69368 36.5574 0.507511 39.4856 0.850681 42.2718C0.865601 42.3614 0.873061 42.4436 0.887982 42.5183C0.000216505 43.9301 -0.298192 45.7154 0.298625 47.299C0.589573 48.0684 1.76083 47.665 1.49972 46.8882C1.23861 46.0814 1.34305 45.2896 1.65638 44.5576C1.97717 45.4091 2.54415 46.1262 3.47668 46.4848C5.66998 47.3214 7.66931 45.4913 7.77376 43.3026C7.82598 42.2195 7.11726 41.2559 6.3414 40.5911C5.43125 39.8142 4.2227 39.9636 3.23049 40.4193C3.21557 40.4268 3.19319 40.4342 3.17827 40.4492C3.22303 39.9786 3.29017 39.5154 3.35731 39.0897C3.55128 38.3128 3.90191 37.4239 4.57333 36.4155C5.31935 35.295 6.46822 33.3155 7.34107 31.702C7.40821 32.0979 7.47535 32.5087 7.54995 32.942C8.54216 38.7012 8.78835 39.7993 9.48215 42.5258C10.1759 45.2597 10.6758 45.7527 11.8172 47.3961C12.9586 49.032 14.294 50.9219 14.294 50.9219C14.294 50.9219 13.6972 51.766 14.0478 52.9088C14.0478 52.9088 13.1078 55.2917 12.414 56.2852C11.7202 57.2787 12.1678 58.9146 12.511 59.811C12.8616 60.7073 12.5632 61.7457 13.1526 62.7914C13.7494 63.8372 14.4432 64.7784 14.5402 65.869C14.6372 66.9596 15.331 68.603 15.6816 69.7907C16.0322 70.9858 15.8308 72.2258 15.9278 73.3164C16.0248 74.407 16.1292 75.8487 16.6216 75.8487C17.1139 75.8487 17.1662 75.4976 17.1662 75.4976C17.1662 75.4976 17.666 76.6405 18.3598 77.0364C19.0536 77.4323 20.4412 77.4323 21.3364 77.4846C22.2316 77.5369 22.3809 77.1858 22.2316 76.887C22.2316 76.887 23.47 77.38 23.5745 76.887C23.6715 76.394 22.3809 74.3547 21.8885 73.7049C21.3886 73.0625 20.9485 70.8215 20.6501 69.1333C20.3517 67.4451 20.6501 66.1529 20.5531 65.5553C20.4561 64.9577 20.1577 64.6589 20.1577 64.6589C20.1577 64.6589 20.7023 64.756 20.7545 64.1136C20.8067 63.4712 20.7023 63.1724 20.7023 63.1724C20.7023 63.1724 21.5453 62.1789 22.0899 61.2825C22.6345 60.3861 25.7603 57.5103 25.7603 57.5103C25.7603 57.5103 26.111 60.2442 26.6556 61.3348C27.2001 62.4254 27.7447 63.5683 27.797 64.3153C27.8492 65.0623 28.1476 66.2051 28.4908 66.7953C28.8414 67.3929 29.1846 68.5806 29.1323 69.7234C29.0801 70.8663 29.0801 72.0615 29.2815 72.7562C29.483 73.4509 29.58 73.9962 29.8784 73.9514C30.1768 73.8991 30.3707 73.7497 30.3707 73.7497C30.3707 73.7497 30.7661 74.3473 31.1615 74.8403C31.5569 75.3333 31.9075 75.2885 33.2429 75.3856C34.5858 75.4827 36.421 75.6321 36.7119 74.9374C37.0029 74.2427 36.1151 73.5928 35.2721 71.8075C34.4291 70.0222 34.1307 68.8793 33.9293 67.8336C33.7278 66.7878 33.7278 62.8138 33.7278 62.8138C33.7278 62.8138 34.2202 62.2163 34.1754 61.6187C34.1232 61.0211 34.5708 60.5729 34.7723 60.2293C34.9737 59.8782 39.6363 53.7753 39.6363 53.7753C39.6363 53.7753 40.7777 54.5223 42.5607 53.5737C44.3437 52.6325 46.3804 52.4308 49.2078 52.0349C52.0352 51.639 56.8993 51.0937 60.5175 50.6903C64.1357 50.2944 66.1201 50.3392 66.1201 50.3392C66.1201 50.3392 66.8661 55.3589 67.4629 57.2936C68.0597 59.2283 68.8505 60.8194 68.6565 62.2611C68.4551 63.7028 68.858 65.0921 69.2011 66.2873C69.5518 67.4825 69.5965 67.5273 69.4026 68.3714C69.2011 69.2155 69.2011 70.3061 69.7532 70.3061H70.5962C70.5962 70.3061 70.2456 71.7926 70.3948 72.7412C70.544 73.6824 71.1408 74.8776 71.387 74.9747C71.6332 75.0718 74.9604 75.027 76.2958 74.9747C77.6386 74.9224 77.7804 74.5265 77.191 72.9355C76.5942 71.3444 76.0496 69.9027 76.0496 68.8121C76.0496 67.7215 75.9526 67.221 75.699 66.4292C75.4528 65.6374 75.7512 65.137 75.7512 64.2929C75.7512 63.4488 75.8482 62.4553 76.1018 61.8129C76.348 61.1705 76.4972 60.0276 76.4972 60.0276C76.4972 60.0276 77.4894 62.657 78.0863 63.5534C78.6831 64.4497 79.0262 65.0921 79.0785 65.9362C79.1307 66.7803 79.6231 69.0661 80.1229 69.8131C80.6153 70.5601 80.7645 70.8066 80.7645 71.5013C80.7645 72.196 80.6153 73.7347 80.9659 73.8841C81.3165 74.0335 81.8611 73.787 81.8611 73.787C81.8611 73.787 82.1073 75.1764 82.2118 75.774C82.3087 76.3716 82.4579 77.5593 83.1517 77.5145C83.8455 77.4622 85.9269 77.6639 87.2698 77.8133C88.6126 77.9627 89.2542 78.3137 88.7544 77.1186C88.7544 77.1186 89.7466 77.5668 89.7988 77.0663C89.851 76.5658 88.9036 75.281 88.5604 74.8328C88.2098 74.3846 87.5682 72.7935 87.3668 71.8001C87.1653 70.8066 86.7699 69.9102 86.6207 69.1184C86.4715 68.3266 86.4193 66.3844 86.4193 65.4955C86.4193 64.6066 86.7699 64.6514 86.7699 63.755C86.7699 62.8587 86.5238 61.3199 86.4193 60.4758C86.3223 59.6317 86.4193 57.1442 86.6207 55.9565C86.8222 54.7614 86.7699 53.372 87.3145 52.625C87.8591 51.878 88.7021 50.7351 88.7021 50.7351C88.7021 50.7351 89.7913 50.9816 90.2389 49.8387C90.2389 49.8387 92.8202 49.4428 94.5062 48.7481C96.1922 48.0535 96.886 47.7547 96.886 47.7547C96.886 47.7547 98.7734 48.8004 101.601 48.0983C104.428 47.4036 106.07 46.2084 107.054 45.6631C108.046 45.1178 108.442 45.2672 108.889 45.2149C109.337 45.1626 110.971 45.312 112.911 45.0655C114.843 44.819 115.984 44.6173 117.23 43.4296C118.468 42.2345 119.214 41.8386 119.61 41.7414C120.005 41.6443 121.542 41.7414 123.482 41.2933C125.414 40.8451 126.406 39.7545 126.406 39.7545C126.406 39.7545 127.547 40.4492 128.54 39.4034C129.532 38.3576 129.383 37.9169 129.979 37.6629C130.576 37.4164 131.569 37.8646 132.456 36.7665C133.352 35.6759 134.291 33.7861 134.493 31.7991C134.694 29.8121 135.485 28.2733 134.545 27.9223L134.553 27.9671ZM4.81205 42.4884C5.30443 42.6005 5.57299 43.0038 5.65506 43.4744C5.7222 43.8405 5.56553 44.1019 5.36411 44.3484C4.81951 44.5426 4.11825 44.3932 3.6035 44.0347C3.39461 43.6537 3.26779 43.2055 3.20065 42.7275C3.69302 42.466 4.2973 42.3764 4.81205 42.4959V42.4884Z" fill="#006B67"/>
</g>
<defs>
<clipPath id="clip0_130_689">
<rect width="135" height="78" fill="white"/>
</clipPath>
</defs>
</svg>
