<svg width="139" height="77" viewBox="0 0 139 77" fill="none" xmlns="http://www.w3.org/2000/svg">
<g clip-path="url(#clip0_171_2)">
<path d="M20.3265 4.67617e-06L79.9378 5.97953L80.3715 6.03039L80.8991 6.01586L81.4124 6.44452L81.4557 6.61163L81.7593 6.93858L81.8533 7.01123L82.3159 7.17107L82.3882 7.28732L82.8725 7.41084L83.0965 7.70872L83.2772 7.65787L83.7109 7.54162L84.0651 7.65787L84.4988 7.61427L85.0409 8.03567H85.3301L85.5614 8.55152L86.3492 8.80582L86.8046 8.92933L87.1154 9.27808L87.4624 9.43792L88.2069 9.42339L88.5755 9.19089L88.8141 9.40886L88.9948 9.78666L90.0862 9.85205L90.3248 10.0773L90.8669 10.2008L91.2211 10.4551L100.386 14.7781L100.986 15.5119L102.389 16.6381L103.885 23.7147L103.69 26.8025L103.466 27.362L103.213 27.8633L102.859 28.3501L101.984 28.7787L101.536 29.3382L101.926 30.0284L109.805 27.8996L110.802 27.5727L110.99 26.4392L115.313 25.175L117.228 23.7292L117.655 23.4095L118.284 23.2933L119.31 22.327L119.758 21.9491L120.322 21.7094L120.712 21.3243L121.515 21.2008L128.215 21.317L128.728 20.823L128.916 20.7794L129.126 20.6196L129.415 20.605L129.827 20.7067L130.095 20.5251L130.217 20.1836L130.955 19.3844L131.244 19.2827L131.837 18.5561L132.032 18.0403L132.104 17.5244L132.682 17.2193L132.661 16.827L133.058 16.3111L133.875 15.3956L134.048 15.0251L134.439 14.64L134.583 14.5964L134.858 14.7853L135.183 15.0905L135.66 14.9597L136.289 15.1268L136.484 14.9452L137.381 15.8098L137.41 16.5581L136.918 19.4643L136.802 19.7986L137.005 19.8494L137.149 20.1182L137.345 20.3653L137.33 20.7503L137.279 20.9828L137.33 21.2008L137.214 21.397L137.323 21.5495H137.345H137.33L138.19 22.0509L138.038 22.5667L138.364 22.9155L138.559 22.5958L139 22.8573L138.689 23.2424L138.284 23.3005L138.125 23.0244L137.569 23.3441L137.222 23.3078L136.81 23.5912L136.564 23.7219L136.217 23.5694L135.841 24.0852H135.523L135.393 23.5694H134.88L134.482 23.998L134.048 24.0634L133.933 23.7001L134.063 23.2497L133.47 23.998L133.036 24.71L132.769 24.8917L132.639 24.6737L132.371 25.1896H132.111L132.046 24.71L131.8 25.175L131.584 25.4584L131.273 25.3567L131.244 25.0588L130.976 25.4729H130.731L130.449 26.0905L129.603 26.7517L129.307 27.5654L129.025 27.9141L128.924 28.2484L128.692 28.43L128.642 28.7133H128.938L128.967 29.0621L128.157 29.7959V30.0139L128.736 30.3481L128.981 31.0964L129.046 31.4815L129.711 31.467L129.892 30.9511L129.842 30.5515L130.058 30.4861L130.275 31.2635L129.993 31.7431L128.916 32.2735L128.634 32.1717L128.649 31.8593L128.432 31.4307L128.006 32.2299L127.594 32.6585L127.297 32.6077L127.348 32.2952V31.8448L126.885 31.3435V31.8738L126.82 32.4914L127.001 32.7094L126.741 32.8111L125.801 32.8765L125.223 33.0073L124.789 32.891L123.878 32.9564L123.698 32.8038L123.437 32.8184L122.707 33.3342L122.209 33.3488L121.5 33.7338L121.095 33.8646L120.727 34.177L120.712 34.4894L120.098 34.8382L120.279 35.1433L120.568 35.3831L120.633 35.6665L120.373 35.9934L120.387 36.1605L120.192 36.5964L120.257 36.8071L120.083 37.0978L119.903 37.5845H119.7L119.476 37.8461L119.281 38.5363L118.956 38.6381L118.782 38.9069H118.594L118.544 39.1902L118.182 39.648L118.139 39.5244L117.799 39.7715L118.045 39.1539L117.857 38.9432L117.525 39.0231L116.997 38.4927L116.809 38.1585L116.939 37.817L117.684 37.0106L117.185 37.2649L116.773 37.6427L116.556 38.0786L116.614 38.5509L116.824 38.7761L116.881 39.4009L117.105 39.6407L117.402 40.4108L117.387 40.9921L117.004 41.8567L116.491 42.1546L116.122 43.0845L115.855 43.535V43.8184L115.725 44L115.696 43.8184L115.645 43.6513L115.183 44.4795L115.132 44.6975L115.016 44.8791L114.966 44.4287L115.089 43.9273L115.349 43.4842L115.284 43.1935L115.566 42.823L115.494 42.714L115.891 42.496H115.349L115.19 42.1764L115.327 41.9584L115.313 41.8567L115.11 41.8712L115.053 41.6823L114.901 41.8639L114.525 41.3917V40.9557L114.843 40.4835L114.951 39.8223L114.59 39.212L114.85 38.718L115.233 38.4855L115.118 38.3329L115.226 37.897L115.103 37.7226L115.118 37.8534L114.995 38.2893L114.539 38.6598L114.243 38.8778L114.048 38.856L114.265 39.183L114.178 39.4518L114.106 40.1202L114.207 40.389L114.142 40.7015L114.171 41.1519L114.12 42.0456L113.983 42.0819L113.441 41.4353L112.993 41.3699L112.711 40.854L112.494 40.8395L112.414 40.607L112.617 40.1275L112.284 40.5779V40.9776L112.617 41.1301L112.877 41.5588L113.39 41.755L113.903 42.3871L114.236 42.5832L114.301 42.9828L114.171 43.4624L113.838 43.426L113.694 43.0264L113.477 42.9247L113.672 43.4914L114.171 43.8038L114.301 44.1163L114.149 44.247L114.12 44.465L113.643 44.3633L114.221 44.8573L114.041 45.1698L113.759 45.039L113.527 44.6248L112.964 44.6103L112.581 44.4287L112.891 44.8137L113.26 44.9445H113.535L113.715 45.5112L114.113 45.6129L114.431 45.533L114.641 45.7219L114.763 46.1506L114.583 46.5938L114.344 46.4776L114.33 46.7028L114.525 46.8989L114.604 47.4003L114.46 47.64H114.164L114.055 47.7635L113.441 47.9307L113.209 48.1486L112.92 48.0469L112.696 47.5601L112.537 47.6618L112.523 48.3521L112.443 48.6209L112.899 48.4756L113.824 48.3302L114.005 48.4102L114.07 49.0931L114.294 49.1949L114.323 48.9042L114.561 48.4465L114.677 48.4102L114.85 48.8025L114.742 49.2966H114.597L114.113 49.7107L113.947 50.0522L113.752 50.212L113.441 50.0159L113.123 50.0667L112.942 49.5654L112.891 49.8851L112.581 50.0159L112.262 49.8633L111.952 49.8487L112.197 50.1466L112.74 50.2484L112.891 50.4809L112.66 50.677L112.761 50.8441L112.147 51.1129L111.735 50.9458L112.082 51.2801L112.66 51.3309L113.072 50.9458L113.173 51.1129L113.34 51.1783L112.913 51.6797L112.515 51.6942L112.465 51.5416L112.183 51.5779L112.031 51.6942L111.467 51.745L110.39 52.3917L109.234 53.3362L108.851 54.0482L108.656 54.0845L108.424 53.932L107.759 54.0192L107.311 54.4188L106.451 55.5667V55.8355L106.082 56.148L105.851 56.1334L105.822 56.4313L105.425 56.8818L105.157 56.7655L104.911 56.8309L104.796 57.0489L104.319 56.998L104.073 57.3322L103.379 57.4122L103.263 57.6592L102.815 57.6229L102.736 57.9062H102.186L102.049 58.0225L102.215 58.1387L102.165 58.5238L101.854 58.9742L101.651 59.0106L101.456 59.2939L101.073 59.3956L100.676 60.0423L100.343 60.7034V61.4809L100.227 62.9122L100.293 63.5588L100.155 64.5542L100.401 65.1863L100.502 66.1816L100.697 66.5958L100.929 67.7074L101.225 68.107L101.391 68.5211L101.189 69.0515L101.124 69.749L101.29 69.9815L101.536 71.4637L101.998 71.7616L102.143 72.4445L101.876 72.7061L101.991 72.8732L101.912 73.6869L101.796 73.9049L101.847 74.3045L101.449 75.1182L101.232 75.6631L100.95 76.0773L100.885 76.6585L100.509 76.7893L100.076 76.9346L99.6492 76.8184L99.4324 76.535L98.9553 76.4042L99.2227 76.288L98.6662 75.8375L98.724 75.4452L98.5577 75.14L98.1674 75.1255L97.9939 74.9657L98.0156 74.3554L97.9506 73.8904L97.3868 73.4544L97.3434 73.1783L97.5241 72.9604L97.6036 72.5753L97.9434 72.2411L97.5097 72.3573L97.3289 72.2266V72.4155L97.1844 72.6262L97.0687 72.1975L96.888 72.2484L96.7941 72.0231L96.5122 71.6889L96.4832 71.2457L96.3459 70.9624L96.9097 70.1559L96.8952 69.7345L96.5628 69.5892L96.3893 69.7345L96.4688 69.9234L96.2013 70.3012L96.0785 70.4174L95.8038 69.9524L95.8182 69.611L96.2664 68.7682L96.5772 67.6929L96.6206 67.1625L96.3242 66.5885L95.9845 66.5304L95.7749 66.1962L95.7893 66.0291H95.5869L95.2544 65.7893L95.1966 65.317L95.0376 65.2662L94.7991 65.0264L94.5678 64.2272L94.0473 64.0456L93.7437 63.8785L93.2884 63.9511L92.9775 64.1909V64.2999L92.9053 64.3725L92.7173 64.2926L92.1318 64.8811L91.7126 64.932L91.0476 65.0337L90.9392 64.8666L90.997 64.6922L91.0621 64.8448L91.1705 64.8012L91.0548 64.5832L90.8307 64.2563L90.267 63.8639L90.3392 63.8421L90.6356 63.9802L90.7151 63.8276L90.2814 63.5225L90.2019 63.2827L89.9995 63.2609L89.9417 63.4716L90.1658 63.7768L89.8188 63.5733L89.4646 63.2536H88.8791L88.2864 63.1737L88.3731 63.0575L88.908 63.0938L89.1827 63.0066L89.0743 62.8686L88.5755 62.8322L88.0696 63.1882L87.8672 63.0793L87.1805 63.1737L86.913 62.9848L86.5805 63.1229L85.9372 63.0865L85.5758 63.2391L85.1277 62.854L85.1132 62.5852L85.1783 62.2873L84.8964 62.2365L84.7012 62.6361L84.4844 62.9993L84.1519 62.934L83.87 63.0357L83.3568 62.9557L81.9978 63.2028L81.6147 63.537L80.8558 63.8494L80.4438 64.2781V64.5905L80.7401 64.4742L81.0003 64.2054L81.1521 64.2417L81.3184 64.4597L81.7159 64.6268L81.5641 64.7939L80.8413 65.0773L80.8558 65.4769L80.9931 65.8111L81.7232 66.0581L82.2653 66.4723L82.2291 66.6248L81.8822 66.7266L81.7376 67.0099L81.7232 66.5594L81.4919 66.4141L81.2316 66.4505L81.0003 66.138L80.6678 66.0073L80.3353 65.506L79.9233 65.5423L80.1257 65.9273L80.1113 66.4941L79.7643 66.6902L79.5908 66.3996L79.2077 66.1235L78.868 66.3778L78.6367 66.6466L78.0657 66.4723L77.7549 66.2834L77.3718 66.3487L77.1332 66.2398L77.3139 66.0073L77.6175 65.7675L77.4585 65.5132L76.9959 65.5641L76.8513 65.3897V65.0482L76.6995 64.8811L76.3887 64.9974L76.143 64.9174L76.3164 64.6486L76.0707 64.5396L75.6081 64.714L75.5792 64.9465L75.6514 65.2299L75.2467 65.288L73.9239 65.1572L73.7432 64.9392L72.6662 64.6704H72.0735L71.3 64.8375L70.982 65.0555L70.6495 65.0918L70.2736 65.6367L69.7604 65.7021L69.8472 65.288L69.7315 64.9392L69.9917 64.576L69.8255 64.0964L69.7966 64.3798L69.3484 64.7649H69.1171L68.8713 64.4306L69.1316 65.1136L69.1171 65.5786L69.2183 66.0436L68.9219 66.2906H68.6256L67.8955 66.9518L66.9197 67.4313L66.6234 67.4168L66.1969 67.7801L65.8789 67.8164L66.2764 67.4676L65.9295 67.2206L65.7126 67.3369L65.5464 67.2206L65.1127 67.4676L65.3584 67.7001L64.8814 67.8818L64.6356 67.6783L64.6717 68.2596L64.2597 68.4557L64.0284 68.3032L63.6164 68.819L63.8839 69.1169L63.4212 69.4802L63.0887 69.6255L63.2333 70.5046L62.9225 70.9551L62.7273 71.6162L62.4599 72.183L62.6551 72.5317L62.6045 73.5271L62.7201 73.8395L62.5683 74.3408L62.337 75.0238L62.1346 74.9221L61.9973 74.6387L61.578 74.537L61.1443 74.319L60.3926 74.0647L60.024 73.6942L59.7348 73.5343L59.4457 73.5779L59.171 73.4762L59.1132 73.4181L58.918 73.1856L58.947 72.5826L58.4844 71.2312L58.441 71.0931V70.9769L58.4844 70.5482L58.5277 70.1413L58.1446 69.7417L57.9278 69.3567L57.8194 68.9062L57.4652 68.71L57.364 68.4194L57.176 68.2959L56.8797 67.4531L56.764 67.1334L56.5183 67.0099L56.4821 66.465L56.4243 66.1162L56.3014 65.9128L56.1279 65.426L55.7738 64.8738L55.3256 64.496L55.1305 64.1546L54.8269 64.002L54.5305 64.0528L54.4293 63.9221L54.2558 63.8349L53.8221 63.8712L53.4246 63.8131H53.0126L52.8825 64.0892L52.7018 64.1255L52.6584 64.0528L52.4921 64.0092L52.2247 64.1037L51.9862 64.3435L51.6537 64.9683L51.4513 65.2226L51.4946 65.3461L51.444 65.5423L51.2127 65.6004L50.8875 65.862L50.8441 66.0073L50.6273 66.0945L50.4321 66.0581L50.2948 65.8983L49.8321 65.6585L49.4491 65.535L49.384 65.3752L48.9142 65.1354H48.6539L48.5022 64.9756L48.4732 64.8303L48.3937 64.6631L48.1769 64.576H48.0323L47.8444 64.3943H47.707L47.7287 64.2708L47.6275 63.9439L47.3167 63.5661L46.9192 63.0938V62.9267L47.1866 62.8613L47.3167 62.7596L47.3023 62.4108L47.0348 62.1638L46.9625 61.9894L46.8324 61.9676L46.6734 61.7787L46.6228 61.2701L46.4204 60.9359L46.1096 60.7252L45.8277 60.6453L45.9434 60.4709L45.965 60.2602L45.6181 59.9696L45.2639 59.8388L45.3362 59.6136L45.1266 59.3085H44.888L44.8447 59.0905L44.6423 58.8507L44.2809 58.3276L43.8472 58.0588L40.1391 57.9425L40.0957 58.7853L33.5325 58.5892L25.726 55L25.8055 54.8184L25.6898 54.6222L20.1891 54.7166L20.1457 54.3461L20.2614 53.7794L20.1674 53.0819L19.3723 51.8686L18.8591 51.3382L18.5628 51.4036L18.3315 51.4181L18.1869 51.3382L18.2013 50.9386L18.1002 50.6915L17.5363 50.5244L17.1533 50.5099L16.5389 50.1757V49.7761L16.2569 49.4637H15.6425L15.3028 49.3983L14.9414 49.1731L14.4788 49.0423H13.6909L13.4596 48.8824L13.3367 48.4974L13.4379 48.432L13.5536 48.0542L13.7198 47.3567L13.5825 46.8844L13.2139 46.463L13.1777 46.3395L13.2717 46.1797L13.0765 46.0271L12.7296 45.5476L12.2525 44.5159L12.1513 43.7166L11.7899 43.4478L11.7248 43.1645L11.7538 42.7358L11.6381 42.2563L11.6526 42.0601L11.8549 42.0964L12.1513 41.7622L12.1368 41.3989L11.8911 41.1519L11.5441 40.934L11.4429 40.4835L11.2333 40.3672L11.1827 40.004L11.2984 39.5898L11.2478 39.3719L11.4646 39.1539L11.414 38.8705L11.5803 38.6381L11.7754 38.7688L11.9778 39.183L12.3609 39.3791L12.2091 39.183L12.0573 38.8342L11.9923 38.2384L11.8116 38.1077L11.8405 37.7952H12.0429L12.2091 37.9406L12.6067 37.8243L13.0187 37.7226L12.4404 37.6572L12.3248 37.4901L11.9634 37.4756L11.9128 37.2939L11.7971 37.3956L11.5008 37.214L11.4863 37.7299V38.2312L11.3707 38.1658L11.1899 38.1803L11.1104 37.9478L10.5755 37.4465L10.4599 37.1123L10.59 36.8289L10.525 36.3785L9.56359 34.8963L9.4624 34.6275L9.54191 34.3296L9.7443 33.9809L9.6937 33.5159L9.49854 33.1163V32.8983L9.76599 32.4842L9.85272 31.9683L9.81658 31.0383L9.45517 30.1882L9.05762 29.6361V29.1202L9.30338 28.5898L9.98283 28.1248L10.2141 27.5073L10.0696 27.4056L10.0045 27.1077L10.2503 26.8606L10.496 26.3448L10.5972 25.4003L10.431 24.8336L10.4454 24.4703L10.6406 24.2015L10.3298 23.7001L10.3659 23.1044L10.5972 22.2252L10.5322 21.3461L10.6984 20.9465L11.2984 20.1764L11.4285 19.7114L11.667 19.4789L11.9272 18.716L12.3609 18.2147L12.6573 17.6189L12.8235 16.391L13.3873 15.2939L13.4813 14.2622L14.1102 12.8672L14.3415 12.3659L14.7029 11.7338L14.6523 11.3996V11.0509L15.1149 10.4551L15.1004 10.0918L15.245 9.97557L15.5124 10.1717L16.2859 10.2081L16.6184 10.4406L16.9003 10.3897L17.3123 10.6367L17.5291 11.1526L17.4496 10.5859L17.2183 10.288L16.7412 10.2081L16.3654 9.89565L15.7365 9.84479L15.1077 9.67768L15.0571 9.43065L15.2233 9.24901L15.3679 9.3144L15.6281 9.00199L15.6425 8.55152L15.7799 8.20278L15.4112 8.05747L15.245 7.8613L15.3606 7.49802H15.592L15.7727 7.2292L15.7365 7.06209L15.4402 6.98217L15.404 6.68429L15.5052 6.10304L15.3896 5.50727L15.6209 4.33026L15.3751 3.48019L15.3606 3.06605L15.7221 2.21599L15.7871 1.751L15.9534 1.70014L17.0087 2.63012L17.5725 2.9934L18.5989 3.05879L18.9603 3.24043L19.1772 3.65456L19.3868 3.55284L19.6036 3.56738L19.7554 3.85073L19.6253 4.11956L19.1482 4.30119L18.7146 4.72986L18.7001 4.96236H19.0615L19.2278 4.679L19.7048 4.2794L19.9361 4.22854L19.9867 4.59181L19.6398 4.8897L19.3723 5.43462L19.3579 6.00133L19.2133 6.16843L19.1482 5.81969L18.8519 6.06672L18.7507 5.88508L18.4182 6.29921L18.5483 6.53171L18.9314 6.72788L19.4229 6.39366L19.5675 5.99406L19.8132 5.7107L19.8277 5.19485L20.0951 4.96236L20.2253 4.38111L20.6011 4.13409L20.9842 3.66909L20.7674 3.40027L20.7385 3.08059L20.5867 2.94981L20.8541 2.58653L21.0059 2.40489L20.6734 2.1724L20.6084 1.78732L21.0059 1.48944L21.0565 1.16975L20.5578 0.806478L20.377 -0.0145264L20.3265 4.67617e-06ZM128.244 32.7966L128.338 32.9709L128.591 32.9491L128.786 32.753H129.104L128.902 32.535H128.519L128.425 32.6585L128.244 32.7893V32.7966ZM121.283 34.6929L121.095 34.8672L121.428 34.7655L121.58 34.6202L122.086 34.5912L122.548 34.4458L123.3 34.4313L123.647 34.2279L124.298 34.2569L124.464 34.1044L124.659 34.1407L125.273 33.9445L125.519 33.712L125.136 33.8501L124.89 33.7411L124.442 33.93L124.608 33.6902L124.782 33.4868L124.767 33.3705L124.124 33.7266H123.401L122.816 33.9082L122.339 33.7919L121.681 34.068L121.175 34.1407L120.915 34.4676L120.98 34.6711L121.269 34.6856L121.283 34.6929ZM20.3409 2.31044L19.9 2.68825V3.32035L20.2108 4.01057L20.3915 3.858L20.1313 3.00067L20.2108 2.61559L20.471 2.50661L20.3337 2.30318L20.3409 2.31044ZM63.8839 69.6182L64.0718 69.4874L64.5489 68.8917L64.8814 68.4485L64.4043 68.7972L63.8766 69.6182H63.8839ZM63.3562 70.817L63.5152 70.7081L63.7321 70.1413L63.7176 69.9161L63.3634 70.817H63.3562ZM63.1538 73.9557L62.937 73.1783L63.002 72.1466L63.2839 71.0495L62.8719 72.0812L62.8213 73.1275C62.8213 73.1275 63.1683 73.9557 63.1538 73.9557Z" fill="#F9F9F9"/>
</g>
<path d="M47.7356 32L39.7626 32V19.896H47.7356V22.004H42.1256V24.843H46.9026V26.951H42.1256V29.892L47.7356 29.892V32ZM58.0285 32L50.0555 32V19.896L58.0285 19.896V22.004L52.4185 22.004V24.843L57.1955 24.843V26.951L52.4185 26.951V29.892H58.0285V32ZM69.0695 27.852C69.0695 30.419 67.0975 32.102 64.6155 32.102C62.1335 32.102 60.1615 30.419 60.1615 27.852V19.896H62.5245V27.767C62.5245 29.161 63.3405 29.994 64.6155 29.994C65.8905 29.994 66.7235 29.161 66.7235 27.767V19.896H69.0695V27.852ZM80.425 27.852C80.425 30.419 78.453 32.102 75.971 32.102C73.489 32.102 71.517 30.419 71.517 27.852V19.896H73.88V27.767C73.88 29.161 74.696 29.994 75.971 29.994C77.246 29.994 78.079 29.161 78.079 27.767V19.896H80.425V27.852ZM51.9285 49H44.5675V47.011L49.0895 41.758C49.5315 41.231 49.7185 40.857 49.7185 40.296C49.7185 39.395 49.1915 38.783 48.2565 38.783C47.5255 38.783 46.7775 39.157 46.7775 40.33H44.5675C44.5675 38.12 46.1825 36.794 48.2565 36.794C50.3985 36.794 51.9285 38.137 51.9285 40.313C51.9285 41.486 51.4695 42.115 50.6365 43.084L47.2535 47.011H51.9285V49ZM61.1589 49H53.7979V47.011L58.3199 41.758C58.7619 41.231 58.9489 40.857 58.9489 40.296C58.9489 39.395 58.4219 38.783 57.4869 38.783C56.7559 38.783 56.0079 39.157 56.0079 40.33H53.7979C53.7979 38.12 55.4129 36.794 57.4869 36.794C59.6289 36.794 61.1589 38.137 61.1589 40.313C61.1589 41.486 60.6999 42.115 59.8669 43.084L56.4839 47.011H61.1589V49ZM66.2414 40.738V39.191C66.2414 38.528 65.9354 38.222 65.3914 38.222C64.8304 38.222 64.5244 38.528 64.5244 39.191V40.738C64.5244 41.401 64.8304 41.707 65.3914 41.707C65.9354 41.707 66.2414 41.401 66.2414 40.738ZM67.8394 40.806C67.8394 42.336 66.7174 43.135 65.3914 43.135C64.0484 43.135 62.9094 42.336 62.9094 40.806V39.123C62.9094 37.593 64.0484 36.794 65.3914 36.794C66.7174 36.794 67.8394 37.593 67.8394 39.123V40.806ZM73.9594 46.722V45.158C73.9594 44.512 73.6534 44.189 73.0924 44.189C72.5314 44.189 72.2254 44.512 72.2254 45.158V46.722C72.2254 47.368 72.5314 47.674 73.0924 47.674C73.6534 47.674 73.9594 47.368 73.9594 46.722ZM75.5574 46.773C75.5574 48.32 74.4354 49.102 73.0924 49.102C71.7494 49.102 70.6274 48.32 70.6274 46.773V45.09C70.6274 43.56 71.7494 42.761 73.0924 42.761C74.4354 42.761 75.5574 43.56 75.5574 45.09V46.773ZM72.9734 36.896L67.2444 49H65.5104L71.2394 36.896H72.9734Z" fill="#FF8B70"/>
<defs>
<clipPath id="clip0_171_2">
<rect width="130" height="77" fill="white" transform="translate(9)"/>
</clipPath>
</defs>
</svg>
