<svg width="545" height="77" viewBox="0 0 545 77" fill="none" xmlns="http://www.w3.org/2000/svg">
<path d="M52.9599 28.2298C52.7699 28.2298 52.5799 28.2498 52.3899 28.2598C50.8099 23.2298 46.1199 19.5898 40.5699 19.5898C35.6899 19.5898 31.4899 22.4198 29.4699 26.5198C27.6499 25.4698 25.5499 24.8598 23.2999 24.8598C16.4599 24.8598 10.9199 30.3998 10.9199 37.2398C10.9199 44.0798 16.4599 49.6198 23.2999 49.6198C24.5499 49.6198 25.7499 49.4298 26.8799 49.0898C28.7499 53.5498 33.1599 56.6798 38.2999 56.6798C42.2399 56.6798 45.7399 54.8298 48.0099 51.9698C49.5199 52.6298 51.1899 52.9998 52.9499 52.9998C59.7899 52.9998 65.3299 47.4598 65.3299 40.6198C65.3299 33.7798 59.7899 28.2398 52.9499 28.2398L52.9599 28.2298Z" fill="#BFBFBF"/>
<path d="M38.13 75.26C58.6363 75.26 75.26 58.6363 75.26 38.13C75.26 17.6237 58.6363 1 38.13 1C17.6237 1 1 17.6237 1 38.13C1 58.6363 17.6237 75.26 38.13 75.26Z" stroke="#006B67" stroke-width="2" stroke-miterlimit="10" stroke-linecap="round" stroke-dasharray="6 7"/>
<path d="M208.96 24.8598C207.61 24.8598 206.31 25.0798 205.1 25.4798C202.88 23.3698 199.89 22.0698 196.58 22.0698C191.7 22.0698 187.5 24.8998 185.48 28.9998C183.66 27.9498 181.56 27.3398 179.31 27.3398C172.47 27.3398 166.93 32.8798 166.93 39.7198C166.93 46.5598 172.47 52.0998 179.31 52.0998C180.56 52.0998 181.76 51.9098 182.89 51.5698C184.76 56.0298 189.17 59.1598 194.31 59.1598C200.26 59.1598 205.23 54.9598 206.42 49.3598C207.24 49.5298 208.09 49.6198 208.96 49.6198C215.8 49.6198 221.34 44.0798 221.34 37.2398C221.34 30.3998 215.8 24.8598 208.96 24.8598Z" fill="#BFBFBF"/>
<path d="M194.13 75.26C214.636 75.26 231.26 58.6363 231.26 38.13C231.26 17.6237 214.636 1 194.13 1C173.624 1 157 17.6237 157 38.13C157 58.6363 173.624 75.26 194.13 75.26Z" stroke="#006B67" stroke-width="2" stroke-miterlimit="10" stroke-linecap="round" stroke-dasharray="6 7"/>
<path d="M364.95 24.86C361.65 24.86 358.65 26.16 356.43 28.27C354.3 24.54 350.29 22.02 345.68 22.02C341.46 22.02 337.74 24.13 335.51 27.35C335.44 27.35 335.37 27.34 335.3 27.34C328.46 27.34 322.92 32.88 322.92 39.72C322.92 46.56 328.46 52.1 335.3 52.1C336.55 52.1 337.75 51.91 338.88 51.57C340.75 56.03 345.16 59.16 350.3 59.16C356.25 59.16 361.22 54.96 362.41 49.36C363.23 49.53 364.08 49.62 364.95 49.62C371.79 49.62 377.33 44.08 377.33 37.24C377.33 30.4 371.79 24.86 364.95 24.86Z" fill="#BFBFBF"/>
<path d="M350.13 75.26C370.636 75.26 387.26 58.6363 387.26 38.13C387.26 17.6237 370.636 1 350.13 1C329.624 1 313 17.6237 313 38.13C313 58.6363 329.624 75.26 350.13 75.26Z" stroke="#006B67" stroke-width="2" stroke-miterlimit="10" stroke-linecap="round" stroke-dasharray="6 7"/>
<path d="M520.95 24.86C517.65 24.86 514.65 26.16 512.43 28.27C510.3 24.54 506.29 22.02 501.68 22.02C497.46 22.02 493.74 24.13 491.51 27.35C491.44 27.35 491.37 27.34 491.3 27.34C484.46 27.34 478.92 32.88 478.92 39.72C478.92 46.56 484.46 52.1 491.3 52.1C493.15 52.1 494.9 51.68 496.48 50.95C498.74 53.43 501.99 54.99 505.61 54.99C510.22 54.99 514.23 52.46 516.37 48.73C517.79 49.3 519.33 49.62 520.95 49.62C527.79 49.62 533.33 44.08 533.33 37.24C533.33 30.4 527.79 24.86 520.95 24.86Z" fill="#BFBFBF"/>
<path d="M506.13 75.26C526.636 75.26 543.26 58.6363 543.26 38.13C543.26 17.6237 526.636 1 506.13 1C485.624 1 469 17.6237 469 38.13C469 58.6363 485.624 75.26 506.13 75.26Z" stroke="#006B67" stroke-width="2" stroke-miterlimit="10" stroke-linecap="round" stroke-dasharray="6 7"/>
</svg>
