<svg width="105" height="105" viewBox="0 0 105 105" fill="none" xmlns="http://www.w3.org/2000/svg">
<g clip-path="url(#clip0_130_737)">
<path d="M52.4998 52.4946L102.151 39.1895C109.496 66.6123 93.2236 94.8045 65.8036 102.15C38.3835 109.496 10.1943 93.2226 2.84907 65.7997C-4.50158 38.3714 11.7706 10.1847 39.1961 2.83332C43.5837 1.65774 47.9605 1.0835 52.4998 1.0835V52.4946Z" fill="#F9F9F9" stroke="#FFA28D" stroke-width="4" stroke-miterlimit="10"/>
<path d="M52.5 52.4946V1.0835C76.3449 1.0835 95.981 16.1493 102.151 39.1895L52.5 52.4946Z" fill="#FF5424" stroke="#FFA28D" stroke-width="4" stroke-miterlimit="10"/>
<path d="M52.4999 81.6944C68.6219 81.6944 81.6913 68.6236 81.6913 52.5C81.6913 36.3764 68.6219 23.3057 52.4999 23.3057C36.378 23.3057 23.3086 36.3764 23.3086 52.5C23.3086 68.6236 36.378 81.6944 52.4999 81.6944Z" fill="#FFA28D"/>
</g>
<defs>
<clipPath id="clip0_130_737">
<rect width="105" height="105" fill="white"/>
</clipPath>
</defs>
</svg>
