<svg width="696" height="194" viewBox="0 0 696 194" fill="none" xmlns="http://www.w3.org/2000/svg">
<path d="M641.4 132.223C641.4 135.975 638.359 139.025 634.606 139.025C630.854 139.025 627.812 135.982 627.812 132.223C627.812 128.463 630.854 125.428 634.606 125.428C638.359 125.428 641.4 128.47 641.4 132.223Z" stroke="black" stroke-width="2" stroke-linecap="round" stroke-linejoin="round"/>
<path d="M634.351 131.96L613.369 124.641L608.472 113.983C608.162 113.307 607.486 112.879 606.748 112.879H603.83" stroke="black" stroke-width="2" stroke-linecap="round" stroke-linejoin="round"/>
<path d="M613.362 124.634L613.824 137.714C613.873 139.094 615.597 139.687 616.48 138.631L625.178 128.711" stroke="black" stroke-width="2" stroke-linecap="round" stroke-linejoin="round"/>
<path d="M615.797 122.282L627.033 126.207L633.434 122.613C636.897 120.668 639.497 117.48 640.711 113.693C640.842 113.286 640.538 112.865 640.111 112.865H612.721C612.266 112.865 611.962 113.328 612.142 113.748L615.797 122.282Z" fill="#006B67" stroke="black" stroke-width="2" stroke-linecap="round" stroke-linejoin="round"/>
<path d="M638.924 111.355C637.807 108.581 633.178 103.338 629.702 101.455C629.143 101.793 628.516 102.221 627.854 102.711C626.688 101.8 625.536 101.021 624.55 100.489C620.922 102.711 615.466 108.581 614.424 111.355" stroke="black" stroke-width="2" stroke-linecap="round" stroke-linejoin="round"/>
<ellipse cx="621.729" cy="107.312" rx="0.689744" ry="0.689852" fill="black"/>
<ellipse cx="624.509" cy="107.312" rx="0.689744" ry="0.689852" fill="black"/>
<ellipse cx="627.288" cy="107.312" rx="0.689744" ry="0.689852" fill="black"/>
<ellipse cx="623.122" cy="105.091" rx="0.689744" ry="0.689852" fill="black"/>
<ellipse cx="625.902" cy="105.091" rx="0.689744" ry="0.689852" fill="black"/>
<path d="M254.888 139.169V124.82" stroke="black" stroke-width="2" stroke-linecap="round" stroke-linejoin="round"/>
<path d="M240.334 94.7912C240.334 71.0465 254.888 38.651 254.888 38.651C254.888 38.651 269.449 71.0465 269.449 94.7912C269.449 118.536 262.91 124.82 254.888 124.82C246.866 124.82 240.334 118.591 240.334 94.7912Z" fill="#006B67" stroke="black" stroke-width="2" stroke-linecap="round" stroke-linejoin="round"/>
<path d="M303.398 139.169V124.821" stroke="black" stroke-width="2" stroke-linecap="round" stroke-linejoin="round"/>
<path d="M287.341 85.2299C287.341 53.9106 303.419 11.3053 303.419 11.3053C303.419 11.3053 319.448 53.9106 319.448 85.2299C319.448 116.549 312.268 124.821 303.419 124.821C294.569 124.821 287.341 116.625 287.341 85.2299Z" fill="#006B67" stroke="black" stroke-width="2" stroke-linecap="round" stroke-linejoin="round"/>
<path d="M50.9722 139.169H678.481" stroke="black" stroke-width="2" stroke-linecap="round" stroke-linejoin="round"/>
<path d="M26.9414 165.922H327.939" stroke="black" stroke-width="2" stroke-linecap="round" stroke-linejoin="round"/>
<path d="M1 192.619H269.228" stroke="black" stroke-width="2" stroke-linecap="round" stroke-linejoin="round"/>
<path d="M385.767 139.169L269.228 192.619" stroke="black" stroke-width="2" stroke-linecap="round" stroke-linejoin="round"/>
<path d="M422.813 139.121L345.389 192.619" stroke="black" stroke-width="2" stroke-linecap="round" stroke-linejoin="round"/>
<path d="M454.534 139.169L408.301 192.619" stroke="black" stroke-width="2" stroke-linecap="round" stroke-linejoin="round"/>
<path d="M595.014 192.619L548.781 139.169" stroke="black" stroke-width="2" stroke-linecap="round" stroke-linejoin="round"/>
<path d="M640.662 192.619L582.44 139.169" stroke="black" stroke-width="2" stroke-linecap="round" stroke-linejoin="round"/>
<path d="M694.621 192.619L616.155 139.169" stroke="black" stroke-width="2" stroke-linecap="round" stroke-linejoin="round"/>
<path d="M481.117 139.169L460.156 192.619" stroke="black" stroke-width="2" stroke-linecap="round" stroke-linejoin="round"/>
<path d="M545.456 192.619L524.495 139.169" stroke="black" stroke-width="2" stroke-linecap="round" stroke-linejoin="round"/>
<path d="M502.706 139.169V192.619" stroke="black" stroke-width="2" stroke-linecap="round" stroke-linejoin="round"/>
<path d="M503.569 83.5949L479.945 43.1006L422.007 11.2156L364.04 43.1006L340.451 83.5949H350.673V139.169H493.333V83.5949H503.569Z" stroke="black" stroke-width="2" stroke-linecap="round" stroke-linejoin="round"/>
<path d="M430.691 60.2296C430.691 65.0448 426.78 68.9356 422.007 68.9356C417.234 68.9356 413.316 65.0448 413.316 60.2296C413.316 55.4144 417.227 51.5375 422.007 51.5375C426.787 51.5375 430.691 55.4558 430.691 60.2296Z" fill="#363A3A" stroke="black" stroke-width="2" stroke-miterlimit="10"/>
<path d="M422.034 100.469H395.775V139.169H422.034H448.244V100.469H422.034Z" stroke="black" stroke-width="2" stroke-linecap="round" stroke-linejoin="round"/>
<path d="M526.93 139.169H586.924" stroke="black" stroke-width="2" stroke-linecap="round" stroke-linejoin="round"/>
<path d="M539.822 139.162L552.016 139.135C553.941 139.066 555.624 138.521 557.093 137.672C553.527 135.575 551.065 131.464 551.065 126.669C551.065 121.875 553.52 117.77 557.079 115.673C556.576 115.383 556.031 115.128 555.472 114.921C554.12 115.563 552.63 115.921 551.065 115.921C549.002 115.921 547.105 115.259 545.443 114.19L539.822 114.176" stroke="black" stroke-width="2" stroke-linecap="round" stroke-linejoin="round"/>
<path d="M551.057 126.662C551.057 133.561 546.022 139.156 539.822 139.156C533.621 139.156 528.565 133.561 528.565 126.662C528.565 119.764 533.6 114.169 539.822 114.169C546.043 114.169 551.057 119.764 551.057 126.662Z" stroke="black" stroke-width="2" stroke-linecap="round" stroke-linejoin="round"/>
<path d="M540.221 139.149C536.718 139.018 533.338 137.252 531.269 134.099C528.551 129.96 529.703 124.4 533.841 121.682C537.145 119.502 541.594 120.426 543.767 123.737C545.519 126.386 544.774 129.946 542.132 131.684C540.008 133.078 537.159 132.492 535.773 130.367C534.662 128.677 535.124 126.393 536.828 125.276C538.187 124.386 540.008 124.758 540.897 126.117" stroke="black" stroke-width="2" stroke-linecap="round" stroke-linejoin="round"/>
<path d="M568.832 114.19C572.143 112.024 574.053 108.016 574.053 103.421C574.053 96.6744 569.949 91.1901 563.259 90.9556L551.064 90.928" stroke="black" stroke-width="2" stroke-linecap="round" stroke-linejoin="round"/>
<path d="M562.314 103.421C562.314 110.32 557.272 115.914 551.064 115.914C544.856 115.914 539.821 110.32 539.821 103.421C539.821 96.5227 544.85 90.928 551.064 90.928C557.279 90.928 562.314 96.5158 562.314 103.421Z" stroke="black" stroke-width="2" stroke-linecap="round" stroke-linejoin="round"/>
<path d="M565.7 110.051C565.08 112.037 564.217 113.355 563.321 114.224" stroke="black" stroke-width="2" stroke-linecap="round" stroke-linejoin="round"/>
<path d="M567.528 95.619C565.424 90.4727 561.969 90.9418 561.969 90.9418" stroke="black" stroke-width="2" stroke-linecap="round" stroke-linejoin="round"/>
<path d="M558.044 114.073C552.871 117.474 545.925 116.032 542.525 110.858C539.8 106.726 540.952 101.159 545.098 98.4405C548.401 96.2675 552.843 97.185 555.03 100.496C556.775 103.145 556.03 106.705 553.381 108.443C551.257 109.837 548.415 109.244 547.022 107.126C545.918 105.429 546.381 103.152 548.084 102.042C549.436 101.145 551.257 101.524 552.147 102.883" stroke="black" stroke-width="2" stroke-linecap="round" stroke-linejoin="round"/>
<path d="M562.314 139.162L574.516 139.135C581.2 138.893 585.304 133.409 585.304 126.662C585.304 119.922 581.193 114.438 574.509 114.197L562.314 114.169" stroke="black" stroke-width="2" stroke-linecap="round" stroke-linejoin="round"/>
<path d="M573.557 126.662C573.557 133.561 568.515 139.156 562.314 139.156C556.113 139.156 551.058 133.561 551.058 126.662C551.058 119.764 556.093 114.169 562.314 114.169C568.536 114.169 573.557 119.764 573.557 126.662Z" stroke="black" stroke-width="2" stroke-linecap="round" stroke-linejoin="round"/>
<path d="M575.999 134.478C573.888 139.631 570.439 139.162 570.439 139.162" stroke="black" stroke-width="2" stroke-linecap="round" stroke-linejoin="round"/>
<path d="M578.772 118.86C576.661 113.714 573.212 114.19 573.212 114.19" stroke="black" stroke-width="2" stroke-linecap="round" stroke-linejoin="round"/>
<path d="M563.073 139.162C559.445 139.135 555.9 137.362 553.762 134.106C551.044 129.967 552.196 124.406 556.327 121.688C559.645 119.508 564.087 120.433 566.267 123.744C568.012 126.393 567.274 129.953 564.625 131.691C562.501 133.085 559.659 132.498 558.273 130.374C557.155 128.684 557.624 126.4 559.321 125.283C560.673 124.393 562.501 124.765 563.39 126.124" stroke="black" stroke-width="2" stroke-linecap="round" stroke-linejoin="round"/>
<path d="M106.835 94.8602L89.9082 139.169H173.781L156.848 94.8671" stroke="black" stroke-width="2" stroke-linecap="round" stroke-linejoin="round"/>
<path d="M131.838 89.4034C129.934 89.4034 128.403 90.9349 128.403 92.8527V100.303H135.259V92.8527C135.259 90.9349 133.728 89.4034 131.838 89.4034Z" fill="#363A3A" stroke="black" stroke-width="2" stroke-miterlimit="10"/>
<path d="M131.838 123.337C129.355 123.337 127.327 125.352 127.327 127.849V137.631H136.342V127.849C136.342 125.352 134.321 123.337 131.838 123.337Z" fill="#363A3A" stroke="black" stroke-width="2" stroke-miterlimit="10"/>
<path d="M127.782 49.6748C125.54 51.9168 125.54 55.5316 127.782 57.7736C130.003 59.9881 133.617 59.9881 135.879 57.7736C138.128 55.5316 138.128 51.9168 135.879 49.661C133.617 47.4396 130.01 47.4396 127.782 49.6817V49.6748Z" stroke="black" stroke-width="2" stroke-linecap="round" stroke-linejoin="round"/>
<path d="M181.065 84.4365L147.088 60.4296C148.971 56.1594 148.971 51.2822 147.081 47.0051L181.065 22.9913C185.279 20.0181 185.72 14.6441 182.072 10.981L178.326 7.2282L174.56 3.47541C170.905 -0.173913 165.539 0.288288 162.538 4.50329L138.528 38.4923C134.245 36.6159 129.368 36.609 125.113 38.4923L101.11 4.48949C98.1368 0.274491 92.7499 -0.18771 89.0942 3.46161L85.3489 7.22131L81.5829 10.9741C77.9342 14.6303 78.4032 20.0043 82.6106 22.9844L116.587 47.0051C114.698 51.2822 114.698 56.1732 116.587 60.4503L82.6106 84.4503C78.4032 87.396 77.9342 92.7837 81.5829 96.4606L85.3489 100.2L89.0942 103.966C92.7499 107.622 98.1368 107.146 101.11 102.931L125.126 68.9493C129.389 70.805 134.272 70.7912 138.556 68.9079L162.566 102.931C165.539 107.146 170.912 107.616 174.581 103.966L178.347 100.193L182.079 96.433C185.741 92.7699 185.286 87.396 181.072 84.4296L181.065 84.4365Z" stroke="black" stroke-width="2" stroke-linecap="round" stroke-linejoin="round"/>
</svg>
