<svg width="573" height="129" viewBox="0 0 573 129" fill="none" xmlns="http://www.w3.org/2000/svg">
<path d="M115.661 58.6019C114.853 58.3005 113.616 59.2431 113.616 59.2431C113.616 59.2431 113.019 59.0315 112.59 59.4163C112.59 59.4163 111.654 59.4997 110.461 58.775C109.268 58.0504 107.133 56.9858 106.325 56.6844C105.517 56.383 104.664 55.1902 104.575 54.8504C104.491 54.5105 104.19 53.0997 103.382 52.4199C102.574 51.7402 102.273 50.5025 102.273 50.5025C102.273 50.5025 102.241 50.4127 102.176 50.2652C102.555 50.1883 102.927 50.0985 103.247 49.9895C104.401 49.6047 104.741 49.9446 106.319 48.1554C107.896 46.3662 107.466 42.4865 105.934 39.0749C104.401 35.6632 104.273 37.2857 104.145 38.4785C104.017 39.6712 103.247 41.4219 102.099 43.1662C101.368 44.2756 99.7782 45.2825 98.6817 45.8788C98.3611 45.6865 98.0277 45.5133 97.6622 45.3851C97.6622 45.3851 98.4317 43.256 97.9187 41.5053C97.4057 39.7546 95.8732 36.3045 95.2769 35.7081C94.6805 35.1117 94.4689 35.4516 93.8726 36.7727C93.2762 38.0937 92.7248 38.9466 92.4683 39.8444C92.2118 40.7422 91.2307 42.1915 91.2307 42.1915C91.2307 42.1915 88.2042 40.7422 86.0304 40.6973C83.8567 40.6524 83.1321 40.6139 81.5098 40.1458C79.8876 39.6777 77.4189 38.3566 75.4952 37.927C73.5779 37.5037 71.3593 37.6705 69.1856 37.5037C67.0118 37.3306 64.2418 36.3943 62.6195 36.0095C60.9972 35.6184 54.989 34.6821 51.6161 34.5923C48.2497 34.5089 37.0732 36.2147 33.5786 37.1061C30.0839 38.0039 29.3978 37.151 27.6088 37.6576C25.8198 38.1707 21.0427 39.5751 18.8241 42.0055C16.6055 44.436 12.771 45.462 10.2125 48.1041C9.53922 48.7967 7.18594 50.8744 6.28823 53.2664C6.1151 53.7217 5.98686 54.177 5.89709 54.6387C5.66625 55.2031 5.46106 55.7995 5.30716 56.4215C4.40945 60.0896 3.51816 62.052 2.4922 64.0143C1.46625 65.9766 0.446708 68.4904 0.74167 70.8824C0.754494 70.9594 0.760907 71.0299 0.773731 71.094C0.0106783 72.306 -0.24581 73.8387 0.267167 75.1982C0.517243 75.8587 1.52396 75.5124 1.29953 74.8455C1.0751 74.1529 1.16488 73.4732 1.43419 72.8447C1.70991 73.5758 2.19724 74.1914 2.99877 74.4992C4.88396 75.2175 6.60243 73.6463 6.6922 71.7674C6.73708 70.8375 6.12792 70.0103 5.46106 69.4395C4.67877 68.7726 3.63999 68.9008 2.78716 69.292C2.77434 69.2984 2.7551 69.3048 2.74228 69.3177C2.78075 68.9137 2.83846 68.5161 2.89617 68.1505C3.06289 67.4836 3.36426 66.7205 3.94136 65.8548C4.58258 64.8928 5.57006 63.1934 6.32029 61.8083C6.378 62.1481 6.43571 62.5009 6.49983 62.8728C7.35266 67.8171 7.56426 68.7598 8.16059 71.1004C8.75693 73.4475 9.18655 73.8708 10.1676 75.2816C11.1487 76.686 12.2965 78.3084 12.2965 78.3084C12.2965 78.3084 11.7835 79.0331 12.0849 80.0142C12.0849 80.0142 11.2769 82.0599 10.6806 82.9128C10.0843 83.7657 10.469 85.1701 10.764 85.9397C11.0653 86.7092 10.8088 87.6006 11.3154 88.4984C11.8284 89.3962 12.4247 90.2042 12.5081 91.1405C12.5914 92.0767 13.1878 93.4875 13.4891 94.5072C13.7905 95.5332 13.6174 96.5978 13.7007 97.534C13.7841 98.4703 13.8739 99.708 14.2971 99.708C14.7203 99.708 14.7652 99.4066 14.7652 99.4066C14.7652 99.4066 15.1948 100.388 15.7911 100.728C16.3875 101.067 17.5801 101.067 18.3496 101.112C19.1191 101.157 19.2473 100.856 19.1191 100.599C19.1191 100.599 20.1835 101.023 20.2733 100.599C20.3566 100.176 19.2473 98.4254 18.8241 97.8675C18.3945 97.316 18.0162 95.3922 17.7597 93.9429C17.5032 92.4936 17.7597 91.3841 17.6763 90.8711C17.593 90.3581 17.3365 90.1016 17.3365 90.1016C17.3365 90.1016 17.8046 90.185 17.8494 89.6334C17.8943 89.082 17.8046 88.8254 17.8046 88.8254C17.8046 88.8254 18.5291 87.9725 18.9972 87.203C19.4653 86.4335 22.152 83.9645 22.152 83.9645C22.152 83.9645 22.4534 86.3116 22.9215 87.2479C23.3896 88.1842 23.8577 89.1653 23.9026 89.8066C23.9474 90.4479 24.2039 91.429 24.4989 91.9356C24.8003 92.4487 25.0952 93.4683 25.0503 94.4495C25.0055 95.4306 25.0055 96.4567 25.1786 97.0531C25.3517 97.6495 25.4351 98.1176 25.6916 98.0791C25.9481 98.0342 26.1148 97.906 26.1148 97.906C26.1148 97.906 26.4546 98.419 26.7945 98.8422C27.1343 99.2655 27.4357 99.227 28.5835 99.3104C29.7377 99.3937 31.3151 99.522 31.5652 98.9256C31.8152 98.3292 31.0522 97.7713 30.3276 96.2386C29.603 94.706 29.3465 93.7248 29.1734 92.827C29.0003 91.9292 29.0003 88.5176 29.0003 88.5176C29.0003 88.5176 29.4235 88.0046 29.385 87.4916C29.3401 86.9785 29.7248 86.5938 29.898 86.2988C30.0711 85.9974 34.0787 80.7581 34.0787 80.7581C34.0787 80.7581 35.0598 81.3994 36.5923 80.585C38.1248 79.777 39.8754 79.6038 42.3056 79.2639C44.7358 78.9241 48.9166 78.4559 52.0265 78.1096C55.1364 77.7698 56.8421 77.8082 56.8421 77.8082C56.8421 77.8082 57.4833 82.1176 57.9963 83.7786C58.5093 85.4395 59.1889 86.8054 59.0222 88.0431C58.8491 89.2807 59.1954 90.4735 59.4903 91.4996C59.7917 92.5256 59.8302 92.5641 59.6635 93.2887C59.4903 94.0134 59.4903 94.9497 59.9648 94.9497H60.6894C60.6894 94.9497 60.388 96.2258 60.5163 97.0402C60.6445 97.8483 61.1575 98.8743 61.3691 98.9577C61.5807 99.041 64.4405 99.0026 65.5883 98.9577C66.7425 98.9128 66.8644 98.5729 66.3578 97.207C65.8448 95.841 65.3767 94.6034 65.3767 93.6671C65.3767 92.7308 65.2934 92.3012 65.0754 91.6214C64.8638 90.9417 65.1202 90.512 65.1202 89.7874C65.1202 89.0627 65.2036 88.2098 65.4216 87.6583C65.6332 87.1068 65.7615 86.1256 65.7615 86.1256C65.7615 86.1256 66.6143 88.383 67.1273 89.1525C67.6402 89.922 67.9352 90.4735 67.9801 91.1982C68.025 91.9228 68.4482 93.8851 68.8778 94.5264C69.301 95.1677 69.4292 95.3793 69.4292 95.9757C69.4292 96.5721 69.301 97.8932 69.6024 98.0214C69.9037 98.1497 70.3718 97.938 70.3718 97.938C70.3718 97.938 70.5834 99.1308 70.6732 99.6438C70.7566 100.157 70.8848 101.177 71.4811 101.138C72.0775 101.093 73.8665 101.266 75.0207 101.395C76.1749 101.523 76.7263 101.824 76.2967 100.798C76.2967 100.798 77.1495 101.183 77.1944 100.753C77.2393 100.324 76.425 99.2206 76.13 98.8358C75.8286 98.4511 75.2772 97.0851 75.104 96.2322C74.9309 95.3793 74.5911 94.6098 74.4628 93.93C74.3346 93.2503 74.2897 91.5829 74.2897 90.8198C74.2897 90.0567 74.5911 90.0952 74.5911 89.3256C74.5911 88.5561 74.3795 87.2351 74.2897 86.5104C74.2063 85.7858 74.2897 83.6503 74.4628 82.6307C74.636 81.6046 74.5911 80.4118 75.0592 79.7705C75.5273 79.1293 76.2518 78.1481 76.2518 78.1481C76.2518 78.1481 77.188 78.3597 77.5727 77.3786C77.5727 77.3786 79.7914 77.0387 81.2405 76.4423C82.6897 75.8459 83.286 75.5894 83.286 75.5894C83.286 75.5894 84.9083 76.4872 87.3385 75.8844C89.7688 75.288 91.1795 74.2619 92.0259 73.7938C92.8787 73.3257 93.2185 73.4539 93.6033 73.409C93.988 73.3642 95.3923 73.4924 97.0594 73.2808C98.7202 73.0692 99.7013 72.896 100.772 71.8764C101.837 70.8503 102.478 70.5105 102.818 70.4271C103.157 70.3437 104.478 70.4271 106.146 70.0423C107.806 69.6575 108.659 68.7213 108.659 68.7213C108.659 68.7213 109.64 69.3177 110.493 68.4199C111.346 67.5221 111.218 67.1437 111.731 66.9257C112.244 66.7141 113.096 67.0988 113.859 66.1562C114.629 65.2199 115.437 63.5974 115.61 61.8916C115.783 60.1858 116.463 58.8648 115.655 58.5634L115.661 58.6019ZM4.14655 71.0684C4.56976 71.1646 4.8006 71.5109 4.87113 71.9149C4.92884 72.2291 4.79419 72.4535 4.62106 72.6652C4.15296 72.8319 3.55022 72.7036 3.10777 72.3958C2.92823 72.0688 2.81923 71.684 2.76152 71.2736C3.18472 71.0491 3.70411 70.9722 4.14655 71.0748V71.0684Z" fill="#006B67"/>
<path d="M186.735 74.063H179.801L176.129 67.6763L172.438 74.063H165.68L172.946 63.2817L165.993 52.813H172.809L176.364 58.9849L179.84 52.813H186.462L179.469 63.1841L186.735 74.063Z" fill="#006B67"/>
<path d="M345.132 87.9548C346.546 81.0433 342.11 74.2903 335.225 72.8716C328.339 71.4529 321.612 75.9056 320.199 82.8171C318.785 89.7287 323.221 96.4817 330.107 97.9004C336.992 99.3191 343.719 94.8663 345.132 87.9548Z" fill="#006B67"/>
<path d="M356.487 128.398V117.521C356.487 110.965 351.189 105.647 344.658 105.647H320.669C314.138 105.647 308.84 110.965 308.84 117.521V128.398H356.482H356.487Z" fill="#006B67"/>
<path d="M417.199 87.947C418.613 81.0355 414.177 74.2825 407.292 72.8638C400.406 71.445 393.679 75.8978 392.266 82.8093C390.852 89.7208 395.288 96.4738 402.173 97.8926C409.059 99.3113 415.786 94.8585 417.199 87.947Z" fill="#006B67"/>
<path d="M428.559 128.397V117.52C428.559 110.964 423.261 105.646 416.73 105.646H392.741C386.21 105.646 380.912 110.964 380.912 117.52V128.397H428.554H428.559Z" fill="#006B67"/>
<path d="M489.27 87.949C490.683 81.0375 486.247 74.2845 479.362 72.8657C472.477 71.447 465.749 75.8998 464.336 82.8113C462.923 89.7228 467.358 96.4758 474.244 97.8945C481.129 99.3132 487.856 94.8605 489.27 87.949Z" fill="#006B67"/>
<path d="M500.626 128.397V117.52C500.626 110.964 495.329 105.646 488.797 105.646H464.808C458.277 105.646 452.979 110.964 452.979 117.52V128.397H500.621H500.626Z" fill="#006B67"/>
<path d="M561.334 87.9514C562.747 81.0399 558.312 74.2869 551.426 72.8682C544.541 71.4494 537.814 75.9022 536.4 82.8137C534.987 89.7252 539.423 96.4782 546.308 97.897C553.193 99.3157 559.921 94.8629 561.334 87.9514Z" fill="#006B67"/>
<path d="M572.692 128.397V117.52C572.692 110.964 567.395 105.646 560.864 105.646H536.875C530.343 105.646 525.046 110.964 525.046 117.52V128.397H572.687H572.692Z" fill="#006B67"/>
<path d="M273.062 87.9529C274.476 81.0414 270.04 74.2884 263.154 72.8696C256.269 71.4509 249.542 75.9037 248.128 82.8152C246.715 89.7267 251.151 96.4797 258.036 97.8984C264.921 99.3172 271.649 94.8644 273.062 87.9529Z" fill="#006B67"/>
<path d="M284.42 128.398V117.521C284.42 110.965 279.123 105.647 272.591 105.647H248.608C242.076 105.647 236.779 110.965 236.779 117.521V128.398H284.42Z" fill="#006B67"/>
<path d="M345.132 17.6604C346.546 10.7489 342.11 3.99588 335.225 2.57715C328.339 1.15842 321.612 5.61119 320.199 12.5227C318.785 19.4342 323.221 26.1872 330.107 27.6059C336.992 29.0247 343.719 24.5719 345.132 17.6604Z" fill="#006B67"/>
<path d="M356.487 58.1029V47.226C356.487 40.6697 351.189 35.3521 344.658 35.3521H320.669C314.138 35.3521 308.84 40.6697 308.84 47.226V58.1029H356.482H356.487Z" fill="#006B67"/>
<path d="M417.199 17.6521C418.613 10.7406 414.177 3.98757 407.292 2.56884C400.406 1.15011 393.679 5.6029 392.266 12.5144C390.852 19.4259 395.288 26.1789 402.173 27.5976C409.059 29.0164 415.786 24.5636 417.199 17.6521Z" fill="#006B67"/>
<path d="M428.559 58.1024V47.2255C428.559 40.6692 423.261 35.3516 416.73 35.3516H392.741C386.21 35.3516 380.912 40.6692 380.912 47.2255V58.1024H428.554H428.559Z" fill="#006B67"/>
<path d="M489.27 17.6545C490.683 10.743 486.247 3.99003 479.362 2.5713C472.477 1.15257 465.749 5.60534 464.336 12.5169C462.923 19.4284 467.358 26.1814 474.244 27.6001C481.129 29.0188 487.856 24.566 489.27 17.6545Z" fill="#006B67"/>
<path d="M500.626 58.1024V47.2255C500.626 40.6692 495.329 35.3516 488.797 35.3516H464.808C458.277 35.3516 452.979 40.6692 452.979 47.2255V58.1024H500.621H500.626Z" fill="#006B67"/>
<path d="M561.334 17.6565C562.747 10.745 558.312 3.99198 551.426 2.57325C544.541 1.15452 537.814 5.6073 536.4 12.5188C534.987 19.4303 539.423 26.1833 546.308 27.602C553.193 29.0208 559.921 24.568 561.334 17.6565Z" fill="#006B67"/>
<path d="M572.692 58.1024V47.2255C572.692 40.6692 567.395 35.3516 560.864 35.3516H536.875C530.343 35.3516 525.046 40.6692 525.046 47.2255V58.1024H572.687H572.692Z" fill="#006B67"/>
<path d="M273.062 17.6579C274.476 10.7464 270.04 3.99344 263.154 2.57471C256.269 1.15598 249.542 5.60876 248.128 12.5203C246.715 19.4318 251.151 26.1848 258.036 27.6035C264.921 29.0222 271.649 24.5695 273.062 17.6579Z" fill="#006B67"/>
<path d="M284.42 58.1029V47.226C284.42 40.6697 279.123 35.3521 272.591 35.3521H248.608C242.076 35.3521 236.779 40.6697 236.779 47.226V58.1029H284.42Z" fill="#006B67"/>
</svg>
