<svg width="564" height="61" viewBox="0 0 564 61" fill="none" xmlns="http://www.w3.org/2000/svg">
<path d="M37.2614 17.8762C38.7129 10.8777 34.1574 4.03976 27.0865 2.60318C20.0156 1.1666 13.1069 5.6754 11.6554 12.6739C10.204 19.6723 14.7594 26.5103 21.8303 27.9469C28.9012 29.3834 35.81 24.8746 37.2614 17.8762Z" fill="#FF5424"/>
<path d="M48.926 58.8286V47.8148C48.926 41.176 43.4858 35.7915 36.7782 35.7915H12.1478C5.44023 35.7915 0 41.176 0 47.8148V58.8286H48.926Z" fill="#FF5424"/>
<g opacity="0.8">
<path d="M139.92 17.8767C141.371 10.8782 136.816 4.04025 129.745 2.60367C122.674 1.16709 115.765 5.67589 114.314 12.6744C112.862 19.6728 117.418 26.5108 124.489 27.9473C131.559 29.3839 138.468 24.8751 139.92 17.8767Z" stroke="#FFD3C6" stroke-width="3" stroke-miterlimit="10" stroke-linecap="round" stroke-dasharray="4 8"/>
<path d="M151.584 58.8291V47.8153C151.584 41.1765 146.144 35.792 139.436 35.792H114.801C108.093 35.792 102.653 41.1765 102.653 47.8153V58.8291H151.579H151.584Z" stroke="#FFD3C6" stroke-width="3" stroke-miterlimit="10" stroke-linecap="round" stroke-dasharray="4 8"/>
</g>
<g opacity="0.8">
<path d="M242.573 17.8752C244.025 10.8767 239.469 4.03878 232.399 2.6022C225.328 1.16563 218.419 5.67442 216.967 12.6729C215.516 19.6714 220.071 26.5093 227.142 27.9459C234.213 29.3825 241.122 24.8737 242.573 17.8752Z" stroke="#FFD3C6" stroke-width="3" stroke-miterlimit="10" stroke-linecap="round" stroke-dasharray="4 8"/>
<path d="M254.237 58.8286V47.8148C254.237 41.176 248.797 35.7915 242.089 35.7915H217.453C210.746 35.7915 205.306 41.176 205.306 47.8148V58.8286H254.232H254.237Z" stroke="#FFD3C6" stroke-width="3" stroke-miterlimit="10" stroke-linecap="round" stroke-dasharray="4 8"/>
</g>
<g opacity="0.8">
<path d="M345.226 17.8742C346.678 10.8758 342.122 4.03781 335.051 2.60123C327.98 1.16465 321.072 5.67345 319.62 12.6719C318.169 19.6704 322.724 26.5083 329.795 27.9449C336.866 29.3815 343.775 24.8727 345.226 17.8742Z" stroke="#FFD3C6" stroke-width="3" stroke-miterlimit="10" stroke-linecap="round" stroke-dasharray="4 8"/>
<path d="M356.888 58.8286V47.8148C356.888 41.176 351.448 35.7915 344.74 35.7915H320.105C313.397 35.7915 307.957 41.176 307.957 47.8148V58.8286H356.883H356.888Z" stroke="#FFD3C6" stroke-width="3" stroke-miterlimit="10" stroke-linecap="round" stroke-dasharray="4 8"/>
</g>
<g opacity="0.8">
<path d="M447.879 17.8742C449.331 10.8758 444.775 4.03781 437.704 2.60123C430.633 1.16465 423.725 5.67345 422.273 12.6719C420.822 19.6704 425.377 26.5083 432.448 27.9449C439.519 29.3815 446.428 24.8727 447.879 17.8742Z" stroke="#FFD3C6" stroke-width="3" stroke-miterlimit="10" stroke-linecap="round" stroke-dasharray="4 8"/>
<path d="M459.542 58.8286V47.8148C459.542 41.176 454.101 35.7915 447.394 35.7915H422.758C416.051 35.7915 410.61 41.176 410.61 47.8148V58.8286H459.536H459.542Z" stroke="#FFD3C6" stroke-width="3" stroke-miterlimit="10" stroke-linecap="round" stroke-dasharray="4 8"/>
</g>
<g opacity="0.8">
<path d="M550.532 17.8742C551.983 10.8758 547.428 4.03781 540.357 2.60123C533.286 1.16465 526.377 5.67345 524.926 12.6719C523.474 19.6704 528.03 26.5083 535.101 27.9449C542.172 29.3815 549.08 24.8727 550.532 17.8742Z" stroke="#FFD3C6" stroke-width="3" stroke-miterlimit="10" stroke-linecap="round" stroke-dasharray="4 8"/>
<path d="M562.194 58.8286V47.8148C562.194 41.176 556.754 35.7915 550.047 35.7915H525.411C518.703 35.7915 513.263 41.176 513.263 47.8148V58.8286H562.189H562.194Z" stroke="#FFD3C6" stroke-width="3" stroke-miterlimit="10" stroke-linecap="round" stroke-dasharray="4 8"/>
</g>
</svg>
