<svg width="528" height="134" viewBox="0 0 528 134" fill="none" xmlns="http://www.w3.org/2000/svg">
<path d="M1.25 131.044V117.65C1.25 107.758 7.34818 98.8973 16.568 95.3864L44.6395 84.7089" stroke="black" stroke-width="2.5" stroke-miterlimit="10" stroke-linecap="round"/>
<path d="M77.2749 84.7089L105.346 96.142C114.566 99.6452 120.664 107.758 120.664 117.65V131.044" stroke="black" stroke-width="2.5" stroke-miterlimit="10" stroke-linecap="round"/>
<path d="M76.1375 73.0086L77.2748 84.7089C72.1688 100.744 49.7375 100.744 44.6392 84.7089L45.784 72.9017" stroke="black" stroke-width="2.5" stroke-miterlimit="10" stroke-linecap="round"/>
<path d="M33.4199 46.5017C34.2747 58.7286 41.7544 73.207 52.9356 77.2216C55.5764 78.1756 58.2859 78.7099 60.9419 78.7099C63.9948 78.7099 67.0935 78.0077 70.1082 76.7866C80.7171 72.482 87.7006 58.3012 88.5173 46.5017" stroke="black" stroke-width="2.5" stroke-miterlimit="10" stroke-linecap="round"/>
<path d="M33.3359 44.2502V18.1784C33.3359 8.82885 40.9148 1.25 50.2567 1.25H71.6957C81.0453 1.25 88.6241 8.83648 88.6165 18.186L88.6012 44.2502" stroke="black" stroke-width="2.5" stroke-miterlimit="10" stroke-linecap="round"/>
<path d="M10.6831 44.2502H111.292" stroke="black" stroke-width="2.5" stroke-miterlimit="10" stroke-linecap="round"/>
<path d="M33.3359 32.6797H88.6394" stroke="black" stroke-width="2.5" stroke-miterlimit="10" stroke-linecap="round"/>
<path d="M24.7954 131.8V92.2495" stroke="black" stroke-width="2.5" stroke-miterlimit="10" stroke-linecap="round"/>
<path d="M97.1265 131.044V92.7838" stroke="black" stroke-width="2.5" stroke-miterlimit="10" stroke-linecap="round"/>
<path d="M83.6251 87.2963V121.741H38.2817V87.1207" stroke="black" stroke-width="2.5" stroke-miterlimit="10" stroke-linecap="round"/>
<path d="M407.25 131.044V117.65C407.25 107.758 413.348 98.8973 422.568 95.3864L450.639 84.7089" stroke="black" stroke-width="2.5" stroke-miterlimit="10" stroke-linecap="round"/>
<path d="M483.275 84.7089L511.347 96.142C520.567 99.6452 526.665 107.758 526.665 117.65V131.044" stroke="black" stroke-width="2.5" stroke-miterlimit="10" stroke-linecap="round"/>
<path d="M482.138 73.0086L483.275 84.7089C478.169 100.744 455.738 100.744 450.64 84.7089L451.784 72.9017" stroke="black" stroke-width="2.5" stroke-miterlimit="10" stroke-linecap="round"/>
<path d="M439.42 46.5017C440.275 58.7286 447.755 73.207 458.936 77.2216C461.577 78.1756 464.286 78.7099 466.942 78.7099C469.995 78.7099 473.094 78.0077 476.109 76.7866C486.718 72.482 493.701 58.3012 494.518 46.5017" stroke="black" stroke-width="2.5" stroke-miterlimit="10" stroke-linecap="round"/>
<path d="M439.336 44.2502V18.1784C439.336 8.82885 446.915 1.25 456.257 1.25H477.696C487.046 1.25 494.625 8.83648 494.617 18.186L494.602 44.2502" stroke="black" stroke-width="2.5" stroke-miterlimit="10" stroke-linecap="round"/>
<path d="M416.684 44.2502H517.292" stroke="black" stroke-width="2.5" stroke-miterlimit="10" stroke-linecap="round"/>
<path d="M439.336 32.6797H494.64" stroke="black" stroke-width="2.5" stroke-miterlimit="10" stroke-linecap="round"/>
<path d="M430.796 131.8V92.2495" stroke="black" stroke-width="2.5" stroke-miterlimit="10" stroke-linecap="round"/>
<path d="M503.127 131.044V92.7838" stroke="black" stroke-width="2.5" stroke-miterlimit="10" stroke-linecap="round"/>
<path d="M489.626 87.2963V121.741H444.29V87.1207" stroke="black" stroke-width="2.5" stroke-miterlimit="10" stroke-linecap="round"/>
<path d="M146.25 61.1133C145.56 61.1133 145 61.6729 145 62.3633C145 63.0536 145.56 63.6133 146.25 63.6133V62.3633V61.1133ZM381.25 62.3633L368.75 55.1464V69.5802L381.25 62.3633ZM146.25 62.3633V63.6133H370V62.3633V61.1133H146.25V62.3633Z" fill="#006B67"/>
<path d="M146.25 87.3633L158.75 94.5802V80.1464L146.25 87.3633ZM381.25 88.6133C381.94 88.6133 382.5 88.0536 382.5 87.3633C382.5 86.6729 381.94 86.1133 381.25 86.1133V87.3633V88.6133ZM157.5 87.3633V88.6133H381.25V87.3633V86.1133H157.5V87.3633Z" fill="#006B67"/>
</svg>
