<svg width="594" height="379" viewBox="0 0 594 379" fill="none" xmlns="http://www.w3.org/2000/svg">
<path d="M591.337 366.92L571.337 355.373V378.467L591.337 366.92ZM2 2V4H576.132V2V0H2V2ZM576.132 2V4C583.425 4 589.337 9.91145 589.337 17.205H591.337H593.337C593.337 7.70233 585.634 0 576.132 0V2ZM591.337 17.205H589.337C589.337 24.4986 583.425 30.41 576.132 30.41V32.41V34.41C585.634 34.41 593.337 26.7077 593.337 17.205H591.337ZM576.132 32.41V30.41H17.205V32.41V34.41H576.132V32.41ZM17.205 32.41V30.41C7.70232 30.41 0 38.1123 0 47.615H2H4C4 40.3215 9.91146 34.41 17.205 34.41V32.41ZM2 47.615H0C0 57.1177 7.70232 64.82 17.205 64.82V62.82V60.82C9.91146 60.82 4 54.9086 4 47.615H2ZM17.205 62.82V64.82H576.132V62.82V60.82H17.205V62.82ZM576.132 62.82V64.82C583.425 64.82 589.337 70.7315 589.337 78.025H591.337H593.337C593.337 68.5224 585.634 60.82 576.132 60.82V62.82ZM591.337 78.025H589.337C589.337 85.3186 583.425 91.23 576.132 91.23V93.23V95.23C585.634 95.23 593.337 87.5277 593.337 78.025H591.337ZM576.132 93.23V91.23H17.205V93.23V95.23H576.132V93.23ZM17.205 93.23V91.23C7.70232 91.23 0 98.9324 0 108.435H2H4C4 101.142 9.91146 95.23 17.205 95.23V93.23ZM2 108.435H0C0 117.938 7.70232 125.64 17.205 125.64V123.64V121.64C9.91146 121.64 4 115.729 4 108.435H2ZM17.205 123.64V125.64H576.132V123.64V121.64H17.205V123.64ZM576.132 123.64V125.64C583.425 125.64 589.337 131.551 589.337 138.845H591.337H593.337C593.337 129.342 585.634 121.64 576.132 121.64V123.64ZM591.337 138.845H589.337C589.337 146.139 583.425 152.05 576.132 152.05V154.05V156.05C585.634 156.05 593.337 148.348 593.337 138.845H591.337ZM576.132 154.05V152.05H17.205V154.05V156.05H576.132V154.05ZM17.205 154.05V152.05C7.70232 152.05 0 159.752 0 169.255H2H4C4 161.962 9.91146 156.05 17.205 156.05V154.05ZM2 169.255H0C0 178.758 7.70232 186.46 17.205 186.46V184.46V182.46C9.91146 182.46 4 176.549 4 169.255H2ZM17.205 184.46V186.46H576.132V184.46V182.46H17.205V184.46ZM576.132 184.46V186.46C583.425 186.46 589.337 192.372 589.337 199.665H591.337H593.337C593.337 190.162 585.634 182.46 576.132 182.46V184.46ZM591.337 199.665H589.337C589.337 206.959 583.425 212.87 576.132 212.87V214.87V216.87C585.634 216.87 593.337 209.168 593.337 199.665H591.337ZM576.132 214.87V212.87H17.205V214.87V216.87H576.132V214.87ZM17.205 214.87V212.87C7.70233 212.87 0 220.572 0 230.075H2H4C4 222.782 9.91146 216.87 17.205 216.87V214.87ZM2 230.075H0C0 239.578 7.70232 247.28 17.205 247.28V245.28V243.28C9.91146 243.28 4 237.369 4 230.075H2ZM17.205 245.28V247.28H576.132V245.28V243.28H17.205V245.28ZM576.132 245.28V247.28C583.425 247.28 589.337 253.192 589.337 260.485H591.337H593.337C593.337 250.982 585.634 243.28 576.132 243.28V245.28ZM591.337 260.485H589.337C589.337 267.779 583.425 273.69 576.132 273.69V275.69V277.69C585.634 277.69 593.337 269.988 593.337 260.485H591.337ZM576.132 275.69V273.69H17.205V275.69V277.69H576.132V275.69ZM17.205 275.69V273.69C7.70232 273.69 0 281.392 0 290.895H2H4C4 283.602 9.91146 277.69 17.205 277.69V275.69ZM2 290.895H0C0 300.398 7.70232 308.1 17.205 308.1V306.1V304.1C9.91146 304.1 4 298.189 4 290.895H2ZM17.205 306.1V308.1H576.132V306.1V304.1H17.205V306.1ZM576.132 306.1V308.1C583.425 308.1 589.337 314.012 589.337 321.305H591.337H593.337C593.337 311.802 585.634 304.1 576.132 304.1V306.1ZM591.337 321.305H589.337C589.337 328.599 583.425 334.51 576.132 334.51V336.51V338.51C585.634 338.51 593.337 330.808 593.337 321.305H591.337ZM576.132 336.51V334.51H17.205V336.51V338.51H576.132V336.51ZM17.205 336.51V334.51C7.70232 334.51 0 342.212 0 351.715H2H4C4 344.422 9.91146 338.51 17.205 338.51V336.51ZM2 351.715H0C0 361.218 7.70233 368.92 17.205 368.92V366.92V364.92C9.91146 364.92 4 359.009 4 351.715H2ZM17.205 366.92V368.92H573.337V366.92V364.92H17.205V366.92Z" fill="#F9F9F9"/>
</svg>
