<svg width="535" height="114" viewBox="0 0 535 114" fill="none" xmlns="http://www.w3.org/2000/svg">
<path d="M1.25 49.7351C14.5667 49.7351 14.5667 55.2853 27.8771 55.2853C41.1876 55.2853 41.1876 49.7351 54.5043 49.7351C67.821 49.7351 67.8147 55.2853 81.1314 55.2853C94.4481 55.2853 94.4419 49.7351 107.759 49.7351" stroke="#006B67" stroke-width="2.5" stroke-linecap="round" stroke-linejoin="round"/>
<path d="M7.00439 86.0024H113.004" stroke="#006B67" stroke-width="2.5" stroke-linecap="round" stroke-linejoin="round"/>
<path d="M13.0034 96.7085H18.4472" stroke="#006B67" stroke-width="2.5" stroke-linecap="round" stroke-linejoin="round"/>
<path d="M38.8584 96.7085H44.2959" stroke="#006B67" stroke-width="2.5" stroke-linecap="round" stroke-linejoin="round"/>
<path d="M64.7129 96.7085H70.1504" stroke="#006B67" stroke-width="2.5" stroke-linecap="round" stroke-linejoin="round"/>
<path d="M90.5615 96.7085H96.0053" stroke="#006B67" stroke-width="2.5" stroke-linecap="round" stroke-linejoin="round"/>
<path d="M25.9277 111.751H31.3715" stroke="#006B67" stroke-width="2.5" stroke-linecap="round" stroke-linejoin="round"/>
<path d="M51.7827 111.751H57.2265" stroke="#006B67" stroke-width="2.5" stroke-linecap="round" stroke-linejoin="round"/>
<path d="M77.6372 111.751H83.081" stroke="#006B67" stroke-width="2.5" stroke-linecap="round" stroke-linejoin="round"/>
<path d="M215.25 50.0024C228.567 50.0024 228.567 55.5526 241.877 55.5526C255.188 55.5526 255.188 50.0024 268.504 50.0024C281.821 50.0024 281.815 55.5526 295.131 55.5526C308.448 55.5526 308.442 50.0024 321.759 50.0024" stroke="#006B67" stroke-width="2.5" stroke-linecap="round" stroke-linejoin="round"/>
<path d="M214.004 86.2698L326.004 86.2698" stroke="#006B67" stroke-width="2.5" stroke-linecap="round" stroke-linejoin="round"/>
<path d="M227.003 96.9758H232.447" stroke="#006B67" stroke-width="2.5" stroke-linecap="round" stroke-linejoin="round"/>
<path d="M252.858 96.9758H258.296" stroke="#006B67" stroke-width="2.5" stroke-linecap="round" stroke-linejoin="round"/>
<path d="M278.713 96.9758H284.15" stroke="#006B67" stroke-width="2.5" stroke-linecap="round" stroke-linejoin="round"/>
<path d="M304.562 96.9758H310.005" stroke="#006B67" stroke-width="2.5" stroke-linecap="round" stroke-linejoin="round"/>
<path d="M239.928 112.018H245.372" stroke="#006B67" stroke-width="2.5" stroke-linecap="round" stroke-linejoin="round"/>
<path d="M265.783 112.018H271.226" stroke="#006B67" stroke-width="2.5" stroke-linecap="round" stroke-linejoin="round"/>
<path d="M291.637 112.018H297.081" stroke="#006B67" stroke-width="2.5" stroke-linecap="round" stroke-linejoin="round"/>
<path d="M107.25 49.7351C120.567 49.7351 120.567 55.2853 133.877 55.2853C147.188 55.2853 147.188 49.7351 160.504 49.7351C173.821 49.7351 173.815 55.2853 187.131 55.2853C200.448 55.2853 200.442 49.7351 213.759 49.7351" stroke="#006B67" stroke-width="2.5" stroke-linecap="round" stroke-linejoin="round"/>
<path d="M107.004 86.0024L217.004 86.0025" stroke="#006B67" stroke-width="2.5" stroke-linecap="round" stroke-linejoin="round"/>
<path d="M119.003 96.7085H124.447" stroke="#006B67" stroke-width="2.5" stroke-linecap="round" stroke-linejoin="round"/>
<path d="M144.858 96.7085H150.296" stroke="#006B67" stroke-width="2.5" stroke-linecap="round" stroke-linejoin="round"/>
<path d="M170.713 96.7085H176.15" stroke="#006B67" stroke-width="2.5" stroke-linecap="round" stroke-linejoin="round"/>
<path d="M196.562 96.7085H202.005" stroke="#006B67" stroke-width="2.5" stroke-linecap="round" stroke-linejoin="round"/>
<path d="M131.928 111.751H137.372" stroke="#006B67" stroke-width="2.5" stroke-linecap="round" stroke-linejoin="round"/>
<path d="M157.783 111.751H163.226" stroke="#006B67" stroke-width="2.5" stroke-linecap="round" stroke-linejoin="round"/>
<path d="M183.637 111.751H189.081" stroke="#006B67" stroke-width="2.5" stroke-linecap="round" stroke-linejoin="round"/>
<path d="M152.196 8.01165C161.165 15.4891 160.318 28.4541 160.318 28.4541C160.318 28.4541 146.976 31.2073 138.786 24.462C130.595 17.7167 130.664 4.01951 130.664 4.01951C130.664 4.01951 144.005 1.26631 152.196 8.01165Z" stroke="#006B67" stroke-width="2.5" stroke-linecap="round" stroke-linejoin="round"/>
<path d="M160.498 49.7352V28.085C160.498 28.085 159.589 14.1626 169.218 6.13455C178.007 -1.11136 192.339 1.84832 192.339 1.84832C192.339 1.84832 192.414 16.5466 183.619 23.7988C176.78 29.4366 164.69 28.8359 160.498 28.3228C160.486 28.3228 160.48 28.3228 160.467 28.3228" stroke="#006B67" stroke-width="2.5" stroke-linecap="round" stroke-linejoin="round"/>
<path d="M320.25 49.7351C333.567 49.7351 333.567 55.2853 346.877 55.2853C360.188 55.2853 360.188 49.7351 373.504 49.7351C386.821 49.7351 386.815 55.2853 400.131 55.2853C413.448 55.2853 413.442 49.7351 426.759 49.7351" stroke="#006B67" stroke-width="2.5" stroke-linecap="round" stroke-linejoin="round"/>
<path d="M320.004 86.0024L431.004 86.0025" stroke="#006B67" stroke-width="2.5" stroke-linecap="round" stroke-linejoin="round"/>
<path d="M332.003 96.7085H337.447" stroke="#006B67" stroke-width="2.5" stroke-linecap="round" stroke-linejoin="round"/>
<path d="M357.858 96.7085H363.296" stroke="#006B67" stroke-width="2.5" stroke-linecap="round" stroke-linejoin="round"/>
<path d="M383.713 96.7085H389.15" stroke="#006B67" stroke-width="2.5" stroke-linecap="round" stroke-linejoin="round"/>
<path d="M409.562 96.7085H415.005" stroke="#006B67" stroke-width="2.5" stroke-linecap="round" stroke-linejoin="round"/>
<path d="M344.928 111.751H350.372" stroke="#006B67" stroke-width="2.5" stroke-linecap="round" stroke-linejoin="round"/>
<path d="M370.783 111.751H376.226" stroke="#006B67" stroke-width="2.5" stroke-linecap="round" stroke-linejoin="round"/>
<path d="M396.637 111.751H402.081" stroke="#006B67" stroke-width="2.5" stroke-linecap="round" stroke-linejoin="round"/>
<path d="M365.196 8.01165C374.165 15.4891 373.318 28.4541 373.318 28.4541C373.318 28.4541 359.976 31.2073 351.786 24.462C343.595 17.7167 343.664 4.01951 343.664 4.01951C343.664 4.01951 357.005 1.26631 365.196 8.01165Z" stroke="#006B67" stroke-width="2.5" stroke-linecap="round" stroke-linejoin="round"/>
<path d="M373.498 49.7352V28.085C373.498 28.085 372.589 14.1626 382.218 6.13455C391.007 -1.11136 405.339 1.84832 405.339 1.84832C405.339 1.84832 405.414 16.5466 396.619 23.7988C389.78 29.4366 377.69 28.8359 373.498 28.3228C373.486 28.3228 373.48 28.3228 373.467 28.3228" stroke="#006B67" stroke-width="2.5" stroke-linecap="round" stroke-linejoin="round"/>
<path d="M427.25 49.7351C440.567 49.7351 440.567 55.2853 453.877 55.2853C467.188 55.2853 467.188 49.7351 480.504 49.7351C493.821 49.7351 493.815 55.2853 507.131 55.2853C520.448 55.2853 520.442 49.7351 533.759 49.7351" stroke="#006B67" stroke-width="2.5" stroke-linecap="round" stroke-linejoin="round"/>
<path d="M426.004 86.0024L528.004 86.0025" stroke="#006B67" stroke-width="2.5" stroke-linecap="round" stroke-linejoin="round"/>
<path d="M439.003 96.7085H444.447" stroke="#006B67" stroke-width="2.5" stroke-linecap="round" stroke-linejoin="round"/>
<path d="M464.858 96.7085H470.296" stroke="#006B67" stroke-width="2.5" stroke-linecap="round" stroke-linejoin="round"/>
<path d="M490.713 96.7085H496.15" stroke="#006B67" stroke-width="2.5" stroke-linecap="round" stroke-linejoin="round"/>
<path d="M516.562 96.7085H522.005" stroke="#006B67" stroke-width="2.5" stroke-linecap="round" stroke-linejoin="round"/>
<path d="M451.928 111.751H457.372" stroke="#006B67" stroke-width="2.5" stroke-linecap="round" stroke-linejoin="round"/>
<path d="M477.783 111.751H483.226" stroke="#006B67" stroke-width="2.5" stroke-linecap="round" stroke-linejoin="round"/>
<path d="M503.637 111.751H509.081" stroke="#006B67" stroke-width="2.5" stroke-linecap="round" stroke-linejoin="round"/>
</svg>
