<svg width="105" height="105" viewBox="0 0 105 105" fill="none" xmlns="http://www.w3.org/2000/svg">
<g clip-path="url(#clip0_130_724)">
<path d="M52.4998 52.4999L82.7212 94.0936C59.7491 110.786 27.5935 105.693 10.9062 82.7213C-5.78654 59.7437 -0.693663 27.5936 22.2785 10.9008C31.4673 4.22591 41.1438 1.0835 52.4998 1.0835V52.4999Z" fill="#F9F9F9" stroke="#FFA28D" stroke-width="4" stroke-miterlimit="10"/>
<path d="M52.5 52.4999V1.0835C80.8955 1.0835 103.916 24.1044 103.916 52.4999C103.916 69.5394 96.5046 84.0812 82.7214 94.0936L52.5 52.4999Z" fill="#FF5424" stroke="#FFA28D" stroke-width="4" stroke-miterlimit="10"/>
<path d="M52.5001 81.6975C68.6254 81.6975 81.6975 68.6254 81.6975 52.5001C81.6975 36.3748 68.6254 23.3027 52.5001 23.3027C36.3748 23.3027 23.3027 36.3748 23.3027 52.5001C23.3027 68.6254 36.3748 81.6975 52.5001 81.6975Z" fill="#FFA28D"/>
</g>
<defs>
<clipPath id="clip0_130_724">
<rect width="105" height="105" fill="white"/>
</clipPath>
</defs>
</svg>
