<svg width="179" height="121" viewBox="0 0 179 121" fill="none" xmlns="http://www.w3.org/2000/svg">
<g clip-path="url(#clip0_186_3)">
<path d="M130.949 78.2675C130.949 78.1939 130.943 78.1147 130.937 78.0412C129.246 44.1924 90 0 90 0C90 0 50.7541 44.1924 49.0626 78.0412C49.0626 78.1147 49.0513 78.1939 49.0513 78.2675C49.0228 78.9352 49 79.6029 49 80.2649C49 102.763 67.3557 121 90 121C112.644 121 131 102.763 131 80.2649C131 79.6029 130.977 78.9352 130.949 78.2675Z" fill="#F9F9F9"/>
</g>
<path d="M73.0075 81H70.7975V71.276L68.3325 73.418V71.038L70.7975 68.896H73.0075V81ZM90.5242 81H88.0592L87.3452 78.858H83.0442L82.3132 81H79.8482L84.2512 68.896H86.1042L90.5242 81ZM86.7162 76.869L85.2372 72.466L83.7072 76.869H86.7162ZM101.28 81H99.172L94.378 73.571V81H92.015V68.896H94.123L98.917 76.308V68.896H101.28V81ZM112.363 68.896L108.725 76.036V81H106.379V76.036L102.741 68.896H105.308L107.569 73.775L109.796 68.896H112.363Z" fill="black"/>
<defs>
<clipPath id="clip0_186_3">
<rect width="82" height="121" fill="white" transform="translate(49)"/>
</clipPath>
</defs>
</svg>
