<svg width="179" height="121" viewBox="0 0 179 121" fill="none" xmlns="http://www.w3.org/2000/svg">
<g clip-path="url(#clip0_186_4)">
<path d="M130.949 78.2675C130.949 78.1939 130.943 78.1147 130.937 78.0412C129.246 44.1924 90 0 90 0C90 0 50.7541 44.1924 49.0626 78.0412C49.0626 78.1147 49.0513 78.1939 49.0513 78.2675C49.0228 78.9352 49 79.6029 49 80.2649C49 102.763 67.3557 121 90 121C112.644 121 131 102.763 131 80.2649C131 79.6029 130.977 78.9352 130.949 78.2675Z" fill="#F9F9F9"/>
</g>
<path d="M65.3423 76.92C65.3423 78.28 65.1553 79.232 64.2713 80.116C63.7273 80.66 62.8603 81.102 61.6023 81.102C60.3443 81.102 59.4263 80.66 58.8993 80.133C58.1513 79.385 57.9813 78.501 57.9133 77.617H60.1233C60.2423 78.569 60.6843 79.113 61.6023 79.113C62.0273 79.113 62.3843 78.994 62.6563 78.722C63.0473 78.331 63.1323 77.685 63.1323 76.92C63.1323 75.526 62.7243 74.744 61.6533 74.744C60.7523 74.744 60.3443 75.254 60.1913 75.73H58.1683V68.896H65.0703V70.885H60.1743V73.486C60.4973 73.18 61.1773 72.874 61.9933 72.874C62.9963 72.874 63.7613 73.197 64.2543 73.69C65.2063 74.642 65.3423 75.781 65.3423 76.92ZM74.5728 76.92C74.5728 78.28 74.3858 79.232 73.5018 80.116C72.9578 80.66 72.0908 81.102 70.8328 81.102C69.5748 81.102 68.6568 80.66 68.1298 80.133C67.3818 79.385 67.2118 78.501 67.1438 77.617H69.3538C69.4728 78.569 69.9148 79.113 70.8328 79.113C71.2578 79.113 71.6148 78.994 71.8868 78.722C72.2778 78.331 72.3628 77.685 72.3628 76.92C72.3628 75.526 71.9548 74.744 70.8838 74.744C69.9828 74.744 69.5748 75.254 69.4218 75.73H67.3988V68.896H74.3008V70.885H69.4048V73.486C69.7278 73.18 70.4078 72.874 71.2238 72.874C72.2268 72.874 72.9918 73.197 73.4848 73.69C74.4368 74.642 74.5728 75.781 74.5728 76.92ZM90.1174 81H87.6524L86.9384 78.858H82.6374L81.9064 81H79.4414L83.8444 68.896H85.6974L90.1174 81ZM86.3094 76.869L84.8304 72.466L83.3004 76.869H86.3094ZM100.873 81H98.7653L93.9713 73.571V81H91.6083V68.896H93.7163L98.5103 76.308V68.896H100.873V81ZM111.956 68.896L108.318 76.036V81H105.972V76.036L102.334 68.896H104.901L107.162 73.775L109.389 68.896H111.956ZM121.243 77.43C121.243 79.776 119.305 81.102 116.755 81.102C114.919 81.102 113.525 80.711 112.335 79.504L113.865 77.974C114.63 78.739 115.667 78.994 116.772 78.994C118.183 78.994 118.931 78.45 118.931 77.481C118.931 77.073 118.812 76.733 118.557 76.478C118.319 76.257 118.081 76.155 117.469 76.07L116.024 75.849C114.953 75.696 114.222 75.373 113.678 74.846C113.1 74.285 112.811 73.486 112.811 72.466C112.811 70.307 114.409 68.794 117.027 68.794C118.693 68.794 119.9 69.202 120.937 70.205L119.441 71.684C118.693 70.953 117.758 70.851 116.959 70.851C115.701 70.851 115.106 71.548 115.106 72.381C115.106 72.704 115.191 73.01 115.446 73.248C115.684 73.469 116.041 73.639 116.551 73.707L117.996 73.928C119.101 74.081 119.781 74.37 120.308 74.88C120.954 75.475 121.243 76.342 121.243 77.43Z" fill="black"/>
<defs>
<clipPath id="clip0_186_4">
<rect width="82" height="121" fill="white" transform="translate(49)"/>
</clipPath>
</defs>
</svg>
