<svg width="528" height="121" viewBox="0 0 528 121" fill="none" xmlns="http://www.w3.org/2000/svg">
<g clip-path="url(#clip0_186_3)">
<path d="M130.949 78.2675C130.949 78.1939 130.943 78.1147 130.937 78.0412C129.246 44.1924 90 0 90 0C90 0 50.7541 44.1924 49.0626 78.0412C49.0626 78.1147 49.0513 78.1939 49.0513 78.2675C49.0228 78.9352 49 79.6029 49 80.2649C49 102.763 67.3557 121 90 121C112.644 121 131 102.763 131 80.2649C131 79.6029 130.977 78.9352 130.949 78.2675Z" fill="#F9F9F9"/>
</g>
<g clip-path="url(#clip1_186_3)">
<path d="M479.949 78.2675C479.949 78.1939 479.943 78.1147 479.937 78.0412C478.246 44.1924 439 0 439 0C439 0 399.754 44.1924 398.063 78.0412C398.063 78.1147 398.051 78.1939 398.051 78.2675C398.023 78.9352 398 79.6029 398 80.2649C398 102.763 416.356 121 439 121C461.644 121 480 102.763 480 80.2649C480 79.6029 479.977 78.9352 479.949 78.2675Z" fill="#F9F9F9"/>
</g>
<path d="M73.0075 81H70.7975V71.276L68.3325 73.418V71.038L70.7975 68.896H73.0075V81ZM90.5242 81H88.0592L87.3452 78.858H83.0442L82.3132 81H79.8482L84.2512 68.896H86.1042L90.5242 81ZM86.7162 76.869L85.2372 72.466L83.7072 76.869H86.7162ZM101.28 81H99.172L94.378 73.571V81H92.015V68.896H94.123L98.917 76.308V68.896H101.28V81ZM112.363 68.896L108.725 76.036V81H106.379V76.036L102.741 68.896H105.308L107.569 73.775L109.796 68.896H112.363Z" fill="black"/>
<path d="M414.342 76.92C414.342 78.28 414.155 79.232 413.271 80.116C412.727 80.66 411.86 81.102 410.602 81.102C409.344 81.102 408.426 80.66 407.899 80.133C407.151 79.385 406.981 78.501 406.913 77.617H409.123C409.242 78.569 409.684 79.113 410.602 79.113C411.027 79.113 411.384 78.994 411.656 78.722C412.047 78.331 412.132 77.685 412.132 76.92C412.132 75.526 411.724 74.744 410.653 74.744C409.752 74.744 409.344 75.254 409.191 75.73H407.168V68.896H414.07V70.885H409.174V73.486C409.497 73.18 410.177 72.874 410.993 72.874C411.996 72.874 412.761 73.197 413.254 73.69C414.206 74.642 414.342 75.781 414.342 76.92ZM423.573 76.92C423.573 78.28 423.386 79.232 422.502 80.116C421.958 80.66 421.091 81.102 419.833 81.102C418.575 81.102 417.657 80.66 417.13 80.133C416.382 79.385 416.212 78.501 416.144 77.617H418.354C418.473 78.569 418.915 79.113 419.833 79.113C420.258 79.113 420.615 78.994 420.887 78.722C421.278 78.331 421.363 77.685 421.363 76.92C421.363 75.526 420.955 74.744 419.884 74.744C418.983 74.744 418.575 75.254 418.422 75.73H416.399V68.896H423.301V70.885H418.405V73.486C418.728 73.18 419.408 72.874 420.224 72.874C421.227 72.874 421.992 73.197 422.485 73.69C423.437 74.642 423.573 75.781 423.573 76.92ZM439.117 81H436.652L435.938 78.858H431.637L430.906 81H428.441L432.844 68.896H434.697L439.117 81ZM435.309 76.869L433.83 72.466L432.3 76.869H435.309ZM449.873 81H447.765L442.971 73.571V81H440.608V68.896H442.716L447.51 76.308V68.896H449.873V81ZM460.956 68.896L457.318 76.036V81H454.972V76.036L451.334 68.896H453.901L456.162 73.775L458.389 68.896H460.956ZM470.243 77.43C470.243 79.776 468.305 81.102 465.755 81.102C463.919 81.102 462.525 80.711 461.335 79.504L462.865 77.974C463.63 78.739 464.667 78.994 465.772 78.994C467.183 78.994 467.931 78.45 467.931 77.481C467.931 77.073 467.812 76.733 467.557 76.478C467.319 76.257 467.081 76.155 466.469 76.07L465.024 75.849C463.953 75.696 463.222 75.373 462.678 74.846C462.1 74.285 461.811 73.486 461.811 72.466C461.811 70.307 463.409 68.794 466.027 68.794C467.693 68.794 468.9 69.202 469.937 70.205L468.441 71.684C467.693 70.953 466.758 70.851 465.959 70.851C464.701 70.851 464.106 71.548 464.106 72.381C464.106 72.704 464.191 73.01 464.446 73.248C464.684 73.469 465.041 73.639 465.551 73.707L466.996 73.928C468.101 74.081 468.781 74.37 469.308 74.88C469.954 75.475 470.243 76.342 470.243 77.43Z" fill="black"/>
<defs>
<clipPath id="clip0_186_3">
<rect width="82" height="121" fill="white" transform="translate(49)"/>
</clipPath>
<clipPath id="clip1_186_3">
<rect width="82" height="121" fill="white" transform="translate(398)"/>
</clipPath>
</defs>
</svg>
