<svg width="657" height="63" viewBox="0 0 657 63" fill="none" xmlns="http://www.w3.org/2000/svg">
<path d="M19.9502 3.59106C20.4577 4.19847 21.1487 5.04071 21.9668 6.07837C23.7546 8.3461 26.1465 11.5395 28.5615 15.2434C33.4242 22.7012 38.23 32.0013 38.6396 39.929V41.262H38.667C38.5227 51.4674 30.1996 59.7024 19.96 59.7024C9.62995 59.7024 1.25004 51.3316 1.25 40.9924C1.25 40.6848 1.25941 40.3841 1.26953 40.05V39.9426C1.66933 32.0121 6.47548 22.7057 11.3398 15.2434C13.7542 11.5397 16.145 8.34609 17.9326 6.07837C18.7508 5.04054 19.4427 4.19851 19.9502 3.59106Z" fill="#006B67" stroke="#006B67" stroke-width="2.5"/>
<path d="M121.95 3.59106C122.458 4.19849 123.149 5.04068 123.967 6.07837C125.755 8.34614 128.146 11.5395 130.561 15.2434C135.422 22.7011 140.225 32.0007 140.63 39.928V41.262H140.667C140.523 51.4674 132.2 59.7024 121.96 59.7024C111.63 59.7024 103.25 51.3316 103.25 40.9924C103.25 40.6848 103.259 40.3841 103.27 40.05V39.9426C103.669 32.0172 108.475 22.711 113.34 15.2473C115.754 11.5428 118.145 8.34791 119.933 6.07935C120.751 5.0411 121.443 4.19878 121.95 3.59106Z" fill="#006B67" stroke="#006B67" stroke-width="2.5"/>
<path opacity="0.7" d="M449.88 40.0124C449.88 40.0124 449.88 39.9424 449.88 39.9024C449.06 23.3124 429.95 1.66235 429.95 1.66235C429.95 1.66235 410.84 23.3224 410.02 39.9024C410.02 39.9424 410.02 39.9724 410.02 40.0124C410.01 40.3424 410 40.6624 410 40.9924C410 52.0224 418.94 60.9524 429.96 60.9524C440.98 60.9524 449.92 52.0124 449.92 40.9924C449.92 40.6724 449.91 40.3424 449.9 40.0124H449.88Z" stroke="#006B67" stroke-width="2.2" stroke-miterlimit="10" stroke-linecap="round" stroke-dasharray="7 7"/>
<path opacity="0.7" d="M346.88 40.0124C346.88 40.0124 346.88 39.9424 346.88 39.9024C346.06 23.3124 326.95 1.66235 326.95 1.66235C326.95 1.66235 307.84 23.3224 307.02 39.9024C307.02 39.9424 307.02 39.9724 307.02 40.0124C307.01 40.3424 307 40.6624 307 40.9924C307 52.0224 315.94 60.9524 326.96 60.9524C337.98 60.9524 346.92 52.0124 346.92 40.9924C346.92 40.6724 346.91 40.3424 346.9 40.0124H346.88Z" stroke="#006B67" stroke-width="2.2" stroke-miterlimit="10" stroke-linecap="round" stroke-dasharray="7 7"/>
<path opacity="0.7" d="M243.88 40.0124C243.88 40.0124 243.88 39.9424 243.88 39.9024C243.06 23.3124 223.95 1.66235 223.95 1.66235C223.95 1.66235 204.84 23.3224 204.02 39.9024C204.02 39.9424 204.02 39.9724 204.02 40.0124C204.01 40.3424 204 40.6624 204 40.9924C204 52.0224 212.94 60.9524 223.96 60.9524C234.98 60.9524 243.92 52.0124 243.92 40.9924C243.92 40.6724 243.91 40.3424 243.9 40.0124H243.88Z" stroke="#006B67" stroke-width="2.2" stroke-miterlimit="10" stroke-linecap="round" stroke-dasharray="7 7"/>
<path opacity="0.7" d="M552.88 40.0124C552.88 40.0124 552.88 39.9424 552.88 39.9024C552.06 23.3124 532.95 1.66235 532.95 1.66235C532.95 1.66235 513.84 23.3224 513.02 39.9024C513.02 39.9424 513.02 39.9724 513.02 40.0124C513.01 40.3424 513 40.6624 513 40.9924C513 52.0224 521.94 60.9524 532.96 60.9524C543.98 60.9524 552.92 52.0124 552.92 40.9924C552.92 40.6724 552.91 40.3424 552.9 40.0124H552.88Z" stroke="#006B67" stroke-width="2.2" stroke-miterlimit="10" stroke-linecap="round" stroke-dasharray="7 7"/>
<path opacity="0.7" d="M654.88 40.0124C654.88 40.0124 654.88 39.9424 654.88 39.9024C654.06 23.3124 634.95 1.66235 634.95 1.66235C634.95 1.66235 615.84 23.3224 615.02 39.9024C615.02 39.9424 615.02 39.9724 615.02 40.0124C615.01 40.3424 615 40.6624 615 40.9924C615 52.0224 623.94 60.9524 634.96 60.9524C645.98 60.9524 654.92 52.0124 654.92 40.9924C654.92 40.6724 654.91 40.3424 654.9 40.0124H654.88Z" stroke="#006B67" stroke-width="2.2" stroke-miterlimit="10" stroke-linecap="round" stroke-dasharray="7 7"/>
</svg>
